<svg version="1" xmlns="http://www.w3.org/2000/svg" width="266.667" height="266.667" viewBox="0 0 200.000000 200.000000"><path d="M130.3 28.7c1.5.2 2.8 1 2.8 1.6.1.7 0 14.9-.1 31.7-.1 16.8-.2 47.6-.3 68.5l-.2 38-2.5.2c-1.4 0-3.6.1-4.9.2-1.3.1-2.2.4-1.9.7.5.5 37.7.9 48.6.5 4.4-.1 3.1-2.1-1.4-2.1H167v-10.3c0-16.5.3-117.8.4-122.7.1-4.4.2-4.5 3.6-5 7.8-1.2-1.8-2-22.5-1.8-11.5 0-19.8.3-18.2.5zm10.7 3.7c0 .3-.4.8-1 1.1-.5.3-1 .1-1-.4 0-.6.5-1.1 1-1.1.6 0 1 .2 1 .4zm6.3 6.6c-.7 2.8-2.3 3.6-2.3 1.1 0-1 .6-2.2 1.3-2.4.6-.3 1.3-.6 1.4-.6 0-.1-.1.8-.4 1.9zm-4.3 0c0 .5-.2 1-.4 1-.3 0-.8-.5-1.1-1-.3-.6-.1-1 .4-1 .6 0 1.1.4 1.1 1zm11.3 7.5c-.3.9-.8 1.4-1 1.1-.3-.3-.2-.9.2-1.5.9-1.6 1.5-1.3.8.4zM143 50c0 .5-1.1 1-2.5 1s-2.5-.5-2.5-1c0-.6 1.1-1 2.5-1s2.5.4 2.5 1zm-1 11.5c0 .8-.4 1.5-1 1.5-.5 0-.7-.7-.4-1.5.4-.8.8-1.5 1-1.5.2 0 .4.7.4 1.5zm17.1 81.8c-1 .9-1.1.8-.5-.6.3-1 .9-1.5 1.2-1.2.3.3 0 1.1-.7 1.8zm-4.1-.3c.8.5 1.2 1.1 1 1.4-.3.2-1.4-.2-2.4-1-2.2-1.5-1-1.9 1.4-.4zm-2.5 2c.3.5.1 1-.4 1-.6 0-1.1-.5-1.1-1 0-.6.2-1 .4-1 .3 0 .8.4 1.1 1zm11.5 6c0 .5-.5 1-1.1 1-.5 0-.7-.5-.4-1 .3-.6.8-1 1.1-1 .2 0 .4.4.4 1zm-17 4c0 .5-.4 1-.9 1-.6 0-1.3-.5-1.6-1-.3-.6.1-1 .9-1 .9 0 1.6.4 1.6 1zM24 30.9c0 .6 1.3 1.1 3 1.1h2.9v68c0 42.3-.3 68.2-.9 68.5-.6.4-1 .2-1-.2 0-.5-.9-.9-2-.9s-2 .6-2 1.3c0 1 8.1 1.3 40 1.3h40v-32.5c0-21-.4-32.5-1-32.5s-1 4.1-1 10.4c0 13.7-4.1 26.8-11.5 36.7-6.1 8.2-15.9 14.7-23.5 15.6l-5 .6.2-67.4c.3-66.6.3-67.4 2.3-67.5 4.6-.2 5.6-.4 5.1-1.2-.3-.5-8.9-.9-19.1-1-10.3 0-20.4-.3-22.6-.7-2.5-.4-3.9-.3-3.9.4zM34.5 35c-.3.5-1.1 1-1.6 1-.6 0-.7-.5-.4-1 .3-.6 1.1-1 1.6-1 .6 0 .7.4.4 1zM45 37c0 .5-.2 1-.4 1-.3 0-.8-.5-1.1-1-.3-.6-.1-1 .4-1 .6 0 1.1.4 1.1 1zm3.1 9.3c-.1 1.2-1.5.9-1.9-.4-.3-.6.1-1 .8-.8.6.3 1.1.8 1.1 1.2zM45 47c0 .5-.4 1-1 1-.5 0-1-.5-1-1 0-.6.5-1 1-1 .6 0 1 .4 1 1zm11.6 5.5c-.3.8.3 1.9 1.2 2.5 1.6 1.1 1.6 1.1 0 .6-1.2-.3-1.8 0-1.8.9 0 .8-.7 1.5-1.5 1.5s-1.5-.7-1.5-1.6c0-.9.5-1.2 1.1-.8.7.4 1 .1.7-.7-.2-.7 0-1.9.6-2.6 1.5-1.7 1.9-1.6 1.2.2zm-19.9 5.2c.7 2-1.3 2.2-2.4.3-1-1.5-.9-1.8.4-1.6 1 .2 1.9.8 2 1.3zM35 69.4c0 .3-.4.8-1 1.1-.5.3-1 .1-1-.4 0-.6.5-1.1 1-1.1.6 0 1 .2 1 .4zm19.6 7.4c-1 1-2.9-1.5-2.1-2.8.6-.9 1-.8 1.7.4.6 1 .7 2 .4 2.4zM43 83.5c0 1.2-1.9 1.2-2.3 0-.4-.9-.1-1.2.9-.8.7.3 1.4.7 1.4.8zm15.8 3.3c.2.7-.2 1-1.2.6-.9-.3-1.6-1.1-1.6-1.6 0-1.3 2.3-.5 2.8 1zM45 88.6c0 .8-.5 1.2-1 .9-.6-.4-.8-1.1-.5-1.6.9-1.4 1.5-1.1 1.5.7zm5.4.9c.3.8-.2 1.1-1.4.8-1-.3-2.1-1.1-2.4-1.8-.3-.8.2-1.1 1.4-.8 1 .3 2.1 1.1 2.4 1.8zm3.1 11.6c1.1 1.7-.1 2.1-1.5.4-.8-.9-.8-1.5-.2-1.5.6 0 1.4.5 1.7 1.1zM48 105c0 .5-.2 1-.4 1-.3 0-.8-.5-1.1-1-.3-.6-.1-1 .4-1 .6 0 1.1.4 1.1 1zm.3 6.3c.3.8.1 2-.4 2.8-.6 1-.9.7-.9-1.4 0-2.9.5-3.5 1.3-1.4zm-2.3 4.1c0 .3-.4.8-1 1.1-.5.3-1 .1-1-.4 0-.6.5-1.1 1-1.1.6 0 1 .2 1 .4zm9 13.7c0 .6-.4.7-1 .4-.5-.3-1-1.1-1-1.6 0-.6.5-.7 1-.4.6.3 1 1.1 1 1.6z"/></svg>