<svg id="Layer_1" data-name="Layer 1" xmlns="http://www.w3.org/2000/svg" viewBox="0 0 509.71 134.38"><defs><style>.cls-1{fill:#fff;}</style></defs><title>laiberia2</title><path class="cls-1" d="M392.41,389V254.66H902.12V389ZM608.42,282c-.21-.22-.47-.64-.63-.61-.8.16-1.56.45-2.51.74l.82.59-.86,1.72-2-1.5.68-.89.78,1c.37-.62.61-1,.81-1.37.33-.66.89-1.34.88-2s-.65-1.25-1-1.89c-.23-.46-.31-1.22-.64-1.35a8.73,8.73,0,0,0-2.85-.59c-2.38-.08-4.76,0-7.14,0a.85.85,0,0,0,.86.48c2.79-.51,3.65.47,3.49,3.41-.3,5.54,0,11.1-.11,16.65,0,2.27-.39,4.54-.44,6.82q-.24,11.86-.34,23.74c0,2.25.25,4.5.31,6.74s0,4.29,0,6.44v16.55l-5.5.52c.37.77.89,1.18,1.41,1.19,2.7.08,5.4.05,8.1.05,2.18,0,4.35-.06,6.53,0,4.23.12,8.46.42,12.69.43,3.59,0,7.18-.49,10.76-.39,4.77.13,8.35-2.57,10.78-5.75a23.05,23.05,0,0,0,4.05-11c.58-5,.85-10.35-1.34-15.18a18.54,18.54,0,0,0-4.23-5.62,15.46,15.46,0,0,0-4.94-2.69,52.34,52.34,0,0,0-5.55-1.54l.67-.24-2.34-.6c3.55-.92,7.17-1.1,9.88-2.77s4.2-4.74,6.43-7.43h-1.63c.7-1.07,1.81-2,1.93-3.11a44.56,44.56,0,0,0,.06-7.75c-.17-3,0-6.15-3.08-8.17l2-.94c-2-1.57-3.83-2.61-5.07-4.15a12.89,12.89,0,0,0-8.65-4.92c-5.14-.62-10.37-.59-15.57-.79-.53,0-1.07.42-1.59.39-2.94-.16-5.86-.39-8.85-.61l.81,2.3,1.9-.43,1.2,3.42.93-1.08-1.2-2.47,1.14.23,2.51,3.3-1,.91-.35-2.34-.92.91.57,1.09-2.38-.4-.31,1Zm98.48-6.27v82.63h-4.13v1.51h31.09v-1.76a27.55,27.55,0,0,0-3.09.74c-2,.71-3.26-.26-3.09-2.28.22-2.52.43-5,.48-7.55.13-6.44.2-12.88.25-19.33,0-4.56,0-9.13,0-13.76a21.87,21.87,0,0,0,2.39.42,6.34,6.34,0,0,1,5.93,6c.12,2.22-.4,4.47-.39,6.71,0,2.83.38,5.66.42,8.49,0,2.35-.2,4.7-.31,7.05a15.76,15.76,0,0,0-.08,3c.37,2.63.93,5.24,1.34,7.87.37,2.38,3.74,5.87,6.16,6,5.51.33,11,.17,15.45-3.71a5.68,5.68,0,0,0,.92-1.6l-.45-.42-3.29,2.09q0-8.85,0-17.65a86.69,86.69,0,0,0-.08-9.54c-.3-2.71-.7-5.74-2.14-7.92a14.05,14.05,0,0,0-9-6.11c-2.43-.48-4.94-.59-7.42-.87a4,4,0,0,1,2.19-1.28c2.62-.67,5.54-.77,7.81-2,5-2.79,7.42-7.62,7.87-13.14.33-4,.73-8.17-1.76-11.85-1.29-1.91-2.21-4.13-3.74-5.83a14.51,14.51,0,0,0-5.07-3.68,40.3,40.3,0,0,0-8-2.08c-1.15-.2-2.44.48-3.62.35-1.9-.2-3.76-1-5.65-1.07-3.5-.19-7,0-10.5-.07-2.84-.07-5.67-.41-8.5-.43a59.48,59.48,0,0,0-6.09.49c-.11,0-.2.34-.36.63Zm-33.61,53v-1.52l.88-.13c0-2.91,0-5.7,0-8.5,0-.48.07-1,.11-1.45a3.87,3.87,0,0,1,1.35.3,14.49,14.49,0,0,1,5.76,7.68q1.92,5.59,3.51,11.3a52.2,52.2,0,0,1,1,5.59l.74.07c.3-2.35.59-4.71.89-7.07-.33-.55-.14-1-.14-1.54,0-4,0-7.92,0-11.88a6.26,6.26,0,0,0-.51-1.72c.15-.33.51-.76.51-1.18q.06-12.29,0-24.56a3.08,3.08,0,0,0-.45-1.09c-.26.27-.72.52-.74.81-.27,2.88-.47,5.75-.69,8.63a1.85,1.85,0,0,0-1,1,71,71,0,0,1-3.2,6.7,30.85,30.85,0,0,1-4.06,4.88,2.35,2.35,0,0,1-1.88.65c-.4-.09-.85-1-.87-1.59-.07-3.5,0-7,0-10.5,0-.72.16-1.44.17-2.16,0-4.4.08-8.81.13-13.22,0-.18,0-.37,0-.55-.07-2.73-.21-5.46-.17-8.19a12.78,12.78,0,0,1,.68-3.14,1.31,1.31,0,0,1,.83.06,62.72,62.72,0,0,1,7.33,4.41,43.35,43.35,0,0,1,7.14,6.86,30.71,30.71,0,0,1,4.21,7.56,40.68,40.68,0,0,1,1.93,7.54c.47,2.39.69,4.84,1,7.26h.9q.39-7.36.79-14.72a20.18,20.18,0,0,1-.07-4c-.09-3.57-.35-7.14-.43-10.72,0-1.28.35-2.58.33-3.86a1.61,1.61,0,0,0-1.12-1.13c-1.48-.11-3,.06-4.49.05-6.06-.06-12.12-.18-18.19-.23-4.36,0-8.72,0-13.09,0-1.94,0-3.88.06-5.82,0a30.67,30.67,0,0,1-3.94-.46c-2-.35-2.84.24-2.52,2.08l4.63-.6v9.1c.09,1.63.21,2.9.23,4.18,0,2.89.09,5.79,0,8.68-.08,1.89-.62,3.77-.63,5.65,0,6.76.14,13.51.17,20.27,0,8.06,0,16.13,0,24.2,0,3,.06,6.05-.07,9.07,0,.39-1,1.05-1.5,1.05a18.57,18.57,0,0,1-3.39-.59v2.31c2-.22,3.85-.57,5.73-.6s3.59.4,5.38.4,3.78-.44,5.67-.41c3.54,0,7.07.37,10.6.43,4.84.07,9.68,0,14.52,0,.78,0,1.56,0,2.33-.07a22.65,22.65,0,0,1,4.76-.32c1.65.23,2.11-.26,2.09-1.76,0-1.72,0-3.45,0-5.18.06-10.14.14-20.28.15-30.42,0-.44-.6-.87-1.13-1.58-.3,2.72-.4,4.87-.81,7a53.55,53.55,0,0,1-2.36,9.71c-1.7,4.22-3.57,8.5-7,11.74a74,74,0,0,1-7.53,6.53c-1.48,1.06-3.56,1.23-5.27,2-2.73,1.23-2.76-.14-2.29-2.17a3.45,3.45,0,0,0,0-.72q0-12.72,0-25.44a5.4,5.4,0,0,0-.08-.69Zm-218-9.39c-.73.37-.92.43-.92.48,0,1.26.07,2.52-.08,3.76-.54,4.7-.94,9.43-1.85,14.07a27.92,27.92,0,0,1-3,7.63,34.69,34.69,0,0,1-4.29,5.79,18.72,18.72,0,0,1-4.08,4,74.17,74.17,0,0,1-7.09,3.34c-2.28,1.11-3.85.37-3.92-1.88-.12-4.33-.41-8.66-.43-13,0-3.2.37-6.41.41-9.62,0-1.73-.41-3.46-.42-5.2-.05-8.24,0-16.47,0-24.71,0-.36,0-.72,0-1.08.28-3.18.84-6.37.8-9.55-.07-5.31-.55-10.61-.76-15.92,0-.3.88-.85,1.39-.9a37.42,37.42,0,0,1,3.82,0c-.47-.9-.94-1.45-1.41-1.46q-4.41-.07-8.82.05c-1.59.05-3.19.37-4.78.34-2.6,0-5.2-.24-7.79-.46-1.16-.09-2.29-.47-3.45-.6a5.87,5.87,0,0,0-2.08.2c-.17,0-.19.69-.36,1.38,4.26-1.35,4,1.2,4,3.88-.11,5.08,0,10.17,0,15.25,0,2.3.06,4.59-.06,6.88-.1,1.81-.58,3.61-.59,5.42,0,2.43.38,4.86.39,7.3q.09,12.94,0,25.91c0,2.18-.46,4.35-.41,6.53.09,3.39.46,6.78.66,10.17a5.3,5.3,0,0,1-.25,1.43l-3.81-.49.69,1.76h48.46c.15-2.3.3-4.64.45-7l-.39,0Zm110.9-28.91-.3,0v55.06a14.59,14.59,0,0,0-.44,2.19c0,2.72-.16,5.45,0,8.16.15,1.95-.7,2.18-2.27,2-1.15-.11-2.32,0-3.47,0,.27.95.84,1.66,1.4,1.65,2.29,0,4.58-.39,6.87-.38,2.65,0,5.3.37,8,.41,1.71,0,3.43-.37,5.14-.42,2.47-.08,4.94,0,7.42,0h2.69s.17-.24.78-1c-1.86-.17-3.83.21-4.75-.6s-.73-2.8-1-4.16a7.27,7.27,0,0,0,.33-1.45c0-2.56,0-5.11,0-7.66.07-8.67.17-17.34.23-26,0-4.64,0-9.29,0-13.93,0-1.81.18-3.62.18-5.44,0-5.29-.11-10.58-.17-15.88,0-1.32,0-2.64,0-4s-.44-2.93,2-2.5a13.4,13.4,0,0,0,3.47-.32v-.87H560.42l0,.45h5.81Zm195.28,69.32c3.79-.24,7.37-.59,11-.64,3.25,0,6.5.25,9.75.45.55,0,1.07.5,1.62.53a39.18,39.18,0,0,0,4.72.09,22.81,22.81,0,0,0,3.92-.68c.19-.05.26-.67.41-1.12l-4.17-.34a31.6,31.6,0,0,1-.69-4.29c-.05-1.45.37-2.9.41-4.36.08-2.38,0-4.76,0-7.14V329.1c0-6,0-12.08,0-18.12,0-3.13.34-6.26.44-9.39.07-2.24,0-4.48,0-6.72,0-1-.06-1.95-.09-2.93-.11-2.85-.26-5.71-.29-8.56a31.84,31.84,0,0,1,.36-3.77c.11-1-.13-2.49.41-2.87s2,.09,3,.07a10.06,10.06,0,0,0,1.94-.37,14.11,14.11,0,0,0-4.94-.71c-3.75-.2-7.49-.59-11.24-.67-4.27-.09-8.55.05-12.82.13-1.08,0-2.15.23-3.23.34l0,.85h5.73c0,7.82,0,15.3,0,22.78,0,1.91-.12,3.82-.23,5.74-.13,2.17-.45,4.34-.44,6.51,0,2.58.38,5.15.42,7.73.08,4.9,0,9.81,0,14.71,0,3,0,6,0,9,0,3.95.36,7.9.12,11.82-.08,1.35.49,4.32-3,3.28C763.64,357.62,761.64,357,761.46,359.75Zm89.65.85-.12-1c-.31,0-.62-.06-.93-.06-2.26,0-5.08.83-4.92-3.08a5.44,5.44,0,0,0,.11-1.43c-.5-1.95-1.21-3.86-1.6-5.82-1-4.79-1.75-9.61-2.68-14.39-.74-3.75-1.64-7.47-2.38-11.21q-1.4-7.12-2.63-14.28c-.64-3.78-1.11-7.58-1.73-11.36q-.62-3.85-1.44-7.66c-.94-4.39-1.95-8.76-3-13.47l-4.59-.38v.12h-8.44c-.32,2-.56,4.22-1,6.37-.87,3.93-1.89,7.82-2.83,11.73-.45,1.84-.82,3.69-1.3,5.51-.39,1.49-1,2.92-1.32,4.41-.5,2.15-.8,4.34-1.27,6.49-.75,3.43-1.61,6.83-2.34,10.25-.57,2.66-.9,5.37-1.53,8-.87,3.6-2,7.14-2.87,10.73-.43,1.69-.59,3.45-1,5.15-.48,2.12-1.12,4.2-1.58,6.32-.57,2.63-1.18,5.17-4,6.36-.29.12-.44.76-.5,1.19,0,.19.31.63.49.63,3,.06,5.94.08,8.9,0,.31,0,.91-.56.86-.75a1.68,1.68,0,0,0-.79-1.13c-2-.61-3.73-1.23-3.24-3.9.69-3.69,1.29-7.39,1.92-11.09s1.21-7.11,1.81-10.69h14.66c.21,1.26.31,2.41.59,3.51,1,4,2.13,7.9,3.06,11.88.76,3.3,1.33,6.66,1.91,10,.07.42-.32,1.31-.5,1.31-1.47,0-2.94-.15-4.41-.24-.44,0-1.23-.1-1.27,0a4.88,4.88,0,0,0-.06,1.4c1.68-.11,3-.31,4.3-.27,1.82.06,3.63.37,5.45.44,5.5.2,11,.33,16.48.5.27,0,.54.17.81.16C847.78,360.82,849.44,360.7,851.11,360.6Zm-384.11-1c-3.67-.44-5-1.79-4.51-4.51.53-3.14.92-6.31,1.48-9.44s1.21-6.09,1.9-9.12c.39-1.66.28-3.47,3.19-3.28,3.67.24,7.39-.37,11.1-.58.26,0,.72.22.77.42.47,1.71.85,3.43,1.28,5.15.77,3.06,1.57,6.11,2.33,9.18.39,1.57.74,3.15,1.07,4.73.46,2.25.88,4.51,1.33,6.82l-6.72.49.08,1.61c2.25-.28,4.38-.67,6.52-.79,2.32-.14,4.65-.09,7,0,2.06.06,4.1.32,6.16.4s4.28.11,6.42,0c.43,0,1.24-.89,1.17-1.23-.49-2.66-1.14-5.29-1.78-7.93-1-3.94-2.07-7.86-2.9-11.84-.79-3.77-1.25-7.61-2-11.4-.77-4-1.67-8-2.53-12-.58-2.7-1.25-5.38-1.76-8.09s-.71-5.23-1.22-7.82c-1-4.86-2.11-9.69-3.1-14.56-.59-2.92-1-5.87-1.55-8.86-1.12,0-2.19.07-3.23,0-2.28-.19-4.55-.5-6.83-.68-1.82-.14-3.26.32-3.57,2.5-.39,2.73-.88,5.44-1.37,8.15-.55,3-1.15,6-1.74,9.05-.41,2.05-.74,4.12-1.29,6.12-.75,2.7-1.83,5.31-2.5,8-.8,3.2-1.35,6.47-1.95,9.73-.83,4.57-1.6,9.16-2.42,13.73-.47,2.6-.93,5.2-1.5,7.77-.89,4-1.69,8-2.89,11.84a37.26,37.26,0,0,1-3.13,6.21,3.77,3.77,0,0,1-.81.78c.4.27.79.76,1.19.77,2.76.07,5.52,0,8.32,0Zm404.72-7.29c-.08-.5-.37-1.86-.49-3.23-.35-4.11-1.25-7.68-5.6-9.63-4.93-2.21-11.4,1.35-11.44,6.73,0,2.83-.14,5.89.86,8.42a9.36,9.36,0,0,0,5,4.72c1.63.61,2.22,1.22,1.69,2.42a13.79,13.79,0,0,1-2.91,3.95c-1.25,1.27-2.82,2.22-4.15,3.42-.35.31-.33,1-.48,1.54a7.71,7.71,0,0,0,1.5.15,10.8,10.8,0,0,0,3-.51c2.51-1.07,5.33-1.88,7.35-3.59C870.12,363.28,871.62,358.46,871.72,352.32Z" transform="translate(-392.41 -254.66)"/><path d="M706.9,275.7h-4.52c.16-.29.25-.62.36-.63a59.48,59.48,0,0,1,6.09-.49c2.83,0,5.66.36,8.5.43,3.49.08,7-.12,10.5.07,1.89.1,3.75.87,5.65,1.07,1.18.13,2.47-.55,3.62-.35a40.3,40.3,0,0,1,8,2.08,14.51,14.51,0,0,1,5.07,3.68c1.53,1.7,2.45,3.92,3.74,5.83,2.49,3.68,2.09,7.86,1.76,11.85-.45,5.52-2.89,10.35-7.87,13.14-2.27,1.27-5.19,1.37-7.81,2a4,4,0,0,0-2.19,1.28c2.48.28,5,.39,7.42.87a14.05,14.05,0,0,1,9,6.11c1.44,2.18,1.84,5.21,2.14,7.92a86.69,86.69,0,0,1,.08,9.54q0,8.81,0,17.65l3.29-2.09.45.42a5.68,5.68,0,0,1-.92,1.6c-4.5,3.88-9.94,4-15.45,3.71-2.42-.15-5.79-3.64-6.16-6-.41-2.63-1-5.24-1.34-7.87a15.76,15.76,0,0,1,.08-3c.11-2.35.34-4.7.31-7.05,0-2.83-.4-5.66-.42-8.49,0-2.24.51-4.49.39-6.71a6.34,6.34,0,0,0-5.93-6,21.87,21.87,0,0,1-2.39-.42c0,4.63,0,9.2,0,13.76,0,6.45-.12,12.89-.25,19.33,0,2.51-.26,5-.48,7.55-.17,2,1.13,3,3.09,2.28a27.55,27.55,0,0,1,3.09-.74v1.76H702.77v-1.51h4.13Zm29.49,10.37.41-.11c-.4-1.86-.76-3.72-1.19-5.57a5.51,5.51,0,0,0-6.79-4.1,1,1,0,0,0-.61.67q0,9.84,0,19.69c0,3.33.16,6.66.2,10,0,2.79,0,5.59,0,8.42H730l.11-.64c1.34-.1,2.71.2,3.53-.34,2.76-1.8,3-4.88,3.13-7.8.16-3.39.06-6.8,0-10.2,0-.64-.4-1.29-.38-1.93.07-2,.3-4,.37-6A10.38,10.38,0,0,0,736.39,286.07Zm15.4,2.47-1.08,1.35.42.43,1.59-1.45-.46-.65,1.09.15c0-.41,0-.83-.08-1.85l-5.23.72.15,1.08,2.56-.48-.89,1.38ZM745,290.33l-.27-.48-2.68,1.28c.4,1.13.61,1.72.81,2.3l2-.75,0,.59,2.16-.19,0-.36-4.71-1.06Z" transform="translate(-392.41 -254.66)"/><path d="M608.39,282l.31-1,2.38.4-.57-1.09.92-.91.35,2.34,1-.91-2.51-3.3-1.14-.23,1.2,2.47-.93,1.08-1.2-3.42-1.9.43-.81-2.3c3,.22,5.91.45,8.85.61.52,0,1.06-.41,1.59-.39,5.2.2,10.43.17,15.57.79a12.89,12.89,0,0,1,8.65,4.92c1.24,1.54,3.1,2.58,5.07,4.15l-2,.94c3,2,2.91,5.2,3.08,8.17a44.56,44.56,0,0,1-.06,7.75c-.12,1.08-1.23,2-1.93,3.11h1.63c-2.23,2.69-3.85,5.83-6.43,7.43s-6.33,1.85-9.88,2.77l2.34.6-.67.24a52.34,52.34,0,0,1,5.55,1.54,15.46,15.46,0,0,1,4.94,2.69,18.54,18.54,0,0,1,4.23,5.62c2.19,4.83,1.92,10.15,1.34,15.18a23.05,23.05,0,0,1-4.05,11c-2.43,3.18-6,5.88-10.78,5.75-3.58-.1-7.17.4-10.76.39-4.23,0-8.46-.31-12.69-.43-2.18-.06-4.35,0-6.53,0-2.7,0-5.4,0-8.1-.05-.52,0-1-.42-1.41-1.19l5.5-.52V340c0-2.15.05-4.29,0-6.44s-.33-4.49-.31-6.74q.09-11.87.34-23.74c.05-2.28.41-4.55.44-6.82.07-5.55-.19-11.11.11-16.65.16-2.94-.7-3.92-3.49-3.41a.85.85,0,0,1-.86-.48c2.38,0,4.76-.05,7.14,0a8.73,8.73,0,0,1,2.85.59c.33.13.41.89.64,1.35.34.64,1,1.25,1,1.89s-.55,1.34-.88,2c-.2.39-.44.75-.81,1.37l-.78-1-.68.89,2,1.5.86-1.72-.82-.59c1-.29,1.71-.58,2.51-.74.16,0,.42.39.63.61l-2.08,1.24h2.17c.06.85.11,1.59.16,2.35l1-.42-1,1.78,1.56.1.16-.91.84,1.42,1-.3-1.27-4.76Zm10.53-2.27a6.37,6.37,0,0,1,.28,1.46c-.13,2.6-.38,5.18-.45,7.77-.08,3.1,0,6.21,0,9.31,0,2.11,0,4.22,0,6.33.09,3.88.23,7.76.35,11.76l-.37.05c-.31,12.26-.62,24.5-.93,36.46l.35,4.23c1.44,0,2.9.32,4.13-.08s3.26-1.36,3.48-2.38a60.67,60.67,0,0,0,.86-9.56c.1-2,0-4,0-6.06,0-5,0-10.09,0-15.14a12.9,12.9,0,0,0,0-3.35c-.73-2.62-2.19-4.64-5.28-4.89,1-.23,2.59.05,2.85-.41a18.06,18.06,0,0,0,2.39-6,61,61,0,0,0,.09-8.45l.62.2,1.32-1.54.19,1.85,2.09.54-3,.18-.67.77a5.55,5.55,0,0,0,1.55.52,6.08,6.08,0,0,0,1.67-.45l.75,1.44,3,.29-1.78-1.31,2.73-.93-.68-1.22v-5.72L632,296.65l-.06,1.22h-.38v-4.15c-.59,2.36-3,3.7-.63,5.65l-1.28,1.37-1.07-3.41L627,298.51c.14-2.23.19-4,.38-5.69.12-1.07.72-2.14.63-3.17-.22-2.38-.84-4.72-1.1-7.1-.51-4.58-2.77-6.43-7.64-6Zm-4.69,10.08-3.89,2.57-.31-.93h-1.82a10.58,10.58,0,0,0,1.33,2.18c.21.2.93-.13,1.41-.21l.36,1.76-.41-.2c-.36,1.46-.73,2.92-1.08,4.3.13.1-.08,0-.28-.19l-.89,1.3V298l-.66,0c0,1-.11,2.06-.17,3.27L605.74,300l-.19.38,1.34,1.49-1.52,1.23,1.51.07,1.13,2.22.83-2.09.85.79,2.55-3.85-1-.52,2.4-1.75c-.09-.19-.17-.36-.24-.53a4.67,4.67,0,0,1-.14-.5l-1.65.68-.23-.49,2.06-1c-.15-.4-.33-.91-.31-.84C613.61,293,613.94,291.29,614.23,289.81Zm17.52,53.38.64.4,2.46-3-1.7-1.24.44-1.66L633,338c-.08-.33-.16-.66-.11-.44l-2.79,2.92c-.21-1.6-.28-2.18-.37-2.86l-2.13,2.23,2.23.5-.89,1.71,2.17-1.51,1.53,1.14Zm-29.45-64a7.45,7.45,0,0,1,.59-.88,10.91,10.91,0,0,1,1.17-.88l-1.88.27c-.87,1.31-1.55,2.35-2.24,3.38l.31.56,1.85-1.22.22.29,2.09-1.42-.21-.48Zm26.42,12.08,6.06.29C632.39,289.44,630.18,289.44,628.72,291.3Z" transform="translate(-392.41 -254.66)"/><path d="M673.29,328.73l1,.11a5.4,5.4,0,0,1,.08.69q0,12.72,0,25.44a3.45,3.45,0,0,1,0,.72c-.47,2-.44,3.4,2.29,2.17,1.71-.77,3.79-.94,5.27-2a74,74,0,0,0,7.53-6.53c3.42-3.24,5.29-7.52,7-11.74a53.55,53.55,0,0,0,2.36-9.71c.41-2.09.51-4.24.81-7,.53.71,1.13,1.14,1.13,1.58,0,10.14-.09,20.28-.15,30.42,0,1.73-.06,3.46,0,5.18,0,1.5-.44,2-2.09,1.76a22.65,22.65,0,0,0-4.76.32c-.77.05-1.55.07-2.33.07-4.84,0-9.68.06-14.52,0-3.53-.06-7.06-.39-10.6-.43-1.89,0-3.78.4-5.67.41s-3.59-.43-5.38-.4-3.75.38-5.73.6v-2.31a18.57,18.57,0,0,0,3.39.59c.52,0,1.49-.66,1.5-1.05.13-3,.07-6,.07-9.07,0-8.07,0-16.14,0-24.2,0-6.76-.19-13.51-.17-20.27,0-1.88.55-3.76.63-5.65.11-2.89.05-5.79,0-8.68,0-1.28-.14-2.55-.23-4.18v-9.1l-4.63.6c-.32-1.84.53-2.43,2.52-2.08a30.67,30.67,0,0,0,3.94.46c1.94.08,3.88,0,5.82,0,4.37,0,8.73,0,13.09,0,6.07.05,12.13.17,18.19.23,1.5,0,3-.16,4.49-.05a1.61,1.61,0,0,1,1.12,1.13c0,1.28-.36,2.58-.33,3.86.08,3.58.34,7.15.43,10.72a20.18,20.18,0,0,0,.07,4q-.39,7.36-.79,14.72h-.9c-.33-2.42-.55-4.87-1-7.26a40.68,40.68,0,0,0-1.93-7.54,30.71,30.71,0,0,0-4.21-7.56,43.35,43.35,0,0,0-7.14-6.86,62.72,62.72,0,0,0-7.33-4.41,1.31,1.31,0,0,0-.83-.06,12.78,12.78,0,0,0-.68,3.14c0,2.73.1,5.46.17,8.19,0,.18,0,.37,0,.55-.05,4.41-.08,8.82-.13,13.22,0,.72-.16,1.44-.17,2.16,0,3.5,0,7,0,10.5,0,.57.47,1.5.87,1.59a2.35,2.35,0,0,0,1.88-.65,30.85,30.85,0,0,0,4.06-4.88,71,71,0,0,0,3.2-6.7,1.85,1.85,0,0,1,1-1c.22-2.88.42-5.75.69-8.63,0-.29.48-.54.74-.81a3.08,3.08,0,0,1,.45,1.09q0,12.27,0,24.56c0,.42-.36.85-.51,1.18a6.26,6.26,0,0,1,.51,1.72c0,4,0,7.92,0,11.88,0,.5-.19,1,.14,1.54-.3,2.36-.59,4.72-.89,7.07l-.74-.07a52.2,52.2,0,0,0-1-5.59q-1.59-5.7-3.51-11.3a14.49,14.49,0,0,0-5.76-7.68,3.87,3.87,0,0,0-1.35-.3c0,.48-.11,1-.11,1.45,0,2.8,0,5.59,0,8.5l-.88.13Z" transform="translate(-392.41 -254.66)"/><path d="M455.28,319.34V353l.39,0c-.15,2.33-.3,4.67-.45,7H406.76l-.69-1.76,3.81.49a5.3,5.3,0,0,0,.25-1.43c-.2-3.39-.57-6.78-.66-10.17-.05-2.18.4-4.35.41-6.53q.09-13,0-25.91c0-2.44-.4-4.87-.39-7.3,0-1.81.49-3.61.59-5.42.12-2.29.06-4.58.06-6.88,0-5.08-.07-10.17,0-15.25.05-2.68.28-5.23-4-3.88.17-.69.19-1.33.36-1.38a5.87,5.87,0,0,1,2.08-.2c1.16.13,2.29.51,3.45.6,2.59.22,5.19.41,7.79.46,1.59,0,3.19-.29,4.78-.34q4.41-.12,8.82-.05c.47,0,.94.56,1.41,1.46a37.42,37.42,0,0,0-3.82,0c-.51.05-1.4.6-1.39.9.21,5.31.69,10.61.76,15.92,0,3.18-.52,6.37-.8,9.55,0,.36,0,.72,0,1.08,0,8.24,0,16.47,0,24.71,0,1.74.45,3.47.42,5.2,0,3.21-.43,6.42-.41,9.62,0,4.34.31,8.67.43,13,.07,2.25,1.64,3,3.92,1.88a74.17,74.17,0,0,0,7.09-3.34,18.72,18.72,0,0,0,4.08-4,34.69,34.69,0,0,0,4.29-5.79,27.92,27.92,0,0,0,3-7.63c.91-4.64,1.31-9.37,1.85-14.07.15-1.24.05-2.5.08-3.76C454.36,319.77,454.55,319.71,455.28,319.34Z" transform="translate(-392.41 -254.66)"/><path d="M566.18,290.43V275.69h-5.81l0-.45h31.87v.87a13.4,13.4,0,0,1-3.47.32c-2.44-.43-2,1.17-2,2.5s0,2.64,0,4c.06,5.3.14,10.59.17,15.88,0,1.82-.17,3.63-.18,5.44,0,4.64,0,9.29,0,13.93-.06,8.67-.16,17.34-.23,26,0,2.55,0,5.1,0,7.66a7.27,7.27,0,0,1-.33,1.45c.27,1.36.1,3.36,1,4.16s2.89.43,4.75.6c-.61.8-.8,1.06-.78,1h-2.69c-2.48,0-5-.06-7.42,0-1.71.05-3.43.44-5.14.42-2.65,0-5.3-.4-8-.41-2.29,0-4.58.36-6.87.38-.56,0-1.13-.7-1.4-1.65,1.15,0,2.32-.09,3.47,0,1.57.16,2.42-.07,2.27-2-.19-2.71-.06-5.44,0-8.16a14.59,14.59,0,0,1,.44-2.19V290.41Z" transform="translate(-392.41 -254.66)"/><path d="M761.46,359.75c.18-2.77,2.18-2.13,3.17-1.84,3.49,1,2.92-1.93,3-3.28.24-3.92-.07-7.87-.12-11.82,0-3,0-6,0-9,0-4.9.06-9.81,0-14.71,0-2.58-.41-5.15-.42-7.73,0-2.17.31-4.34.44-6.51.11-1.92.23-3.83.23-5.74,0-7.48,0-15,0-22.78H762l0-.85c1.08-.11,2.15-.32,3.23-.34,4.27-.08,8.55-.22,12.82-.13,3.75.08,7.49.47,11.24.67a14.11,14.11,0,0,1,4.94.71,10.06,10.06,0,0,1-1.94.37c-1,0-2.34-.53-3-.07s-.3,1.87-.41,2.87a31.84,31.84,0,0,0-.36,3.77c0,2.85.18,5.71.29,8.56,0,1,.08,1.95.09,2.93,0,2.24.06,4.48,0,6.72-.1,3.13-.41,6.26-.44,9.39-.08,6,0,12.08,0,18.12v13.15c0,2.38.06,4.76,0,7.14,0,1.46-.46,2.91-.41,4.36a31.6,31.6,0,0,0,.69,4.29l4.17.34c-.15.45-.22,1.07-.41,1.12a22.81,22.81,0,0,1-3.92.68,39.18,39.18,0,0,1-4.72-.09c-.55,0-1.07-.5-1.62-.53-3.25-.2-6.5-.48-9.75-.45C768.83,359.16,765.25,359.51,761.46,359.75Z" transform="translate(-392.41 -254.66)"/><path d="M851.11,360.6c-1.67.1-3.33.22-5,.3-.27,0-.54-.15-.81-.16-5.49-.17-11-.3-16.48-.5-1.82-.07-3.63-.38-5.45-.44-1.31,0-2.62.16-4.3.27a4.88,4.88,0,0,1,.06-1.4c0-.12.83-.05,1.27,0,1.47.09,2.94.25,4.41.24.18,0,.57-.89.5-1.31-.58-3.35-1.15-6.71-1.91-10-.93-4-2.07-7.91-3.06-11.88-.28-1.1-.38-2.25-.59-3.51H805.09q-.9,5.37-1.81,10.69c-.63,3.7-1.23,7.4-1.92,11.09-.49,2.67,1.29,3.29,3.24,3.9a1.68,1.68,0,0,1,.79,1.13c.05.19-.55.74-.86.75-3,0-5.93,0-8.9,0-.18,0-.52-.44-.49-.63.06-.43.21-1.07.5-1.19,2.86-1.19,3.47-3.73,4-6.36.46-2.12,1.1-4.2,1.58-6.32.39-1.7.55-3.46,1-5.15.91-3.59,2-7.13,2.87-10.73.63-2.64,1-5.35,1.53-8,.73-3.42,1.59-6.82,2.34-10.25.47-2.15.77-4.34,1.27-6.49.34-1.49.93-2.92,1.32-4.41.48-1.82.85-3.67,1.3-5.51.94-3.91,2-7.8,2.83-11.73.48-2.15.72-4.35,1-6.37h8.44v-.12l4.59.38c1.06,4.71,2.07,9.08,3,13.47q.83,3.81,1.44,7.66c.62,3.78,1.09,7.58,1.73,11.36q1.23,7.15,2.63,14.28c.74,3.74,1.64,7.46,2.38,11.21.93,4.78,1.72,9.6,2.68,14.39.39,2,1.1,3.87,1.6,5.82a5.44,5.44,0,0,1-.11,1.43c-.16,3.91,2.66,3,4.92,3.08.31,0,.62,0,.93.06Zm-40-29.42V331c.93,0,1.86-.05,2.78,0,1.78.11,3.55.32,5.33.37.19,0,.64-.82.56-1.17-.56-2.69-1.23-5.35-1.84-8-1.06-4.6-2.16-9.2-3.1-13.84-.42-2-.47-4.16-.78-6.23a11.82,11.82,0,0,0-.73-2.12h-.63q-3.6,15.19-7.22,30.41l.54.81Z" transform="translate(-392.41 -254.66)"/><path d="M467,359.61V361c-2.8,0-5.56,0-8.32,0-.4,0-.79-.5-1.19-.77a3.77,3.77,0,0,0,.81-.78,37.26,37.26,0,0,0,3.13-6.21c1.2-3.88,2-7.88,2.89-11.84.57-2.57,1-5.17,1.5-7.77.82-4.57,1.59-9.16,2.42-13.73.6-3.26,1.15-6.53,1.95-9.73.67-2.72,1.75-5.33,2.5-8,.55-2,.88-4.07,1.29-6.12.59-3,1.19-6,1.74-9.05.49-2.71,1-5.42,1.37-8.15.31-2.18,1.75-2.64,3.57-2.5,2.28.18,4.55.49,6.83.68,1,.08,2.11,0,3.23,0,.52,3,1,5.94,1.55,8.86,1,4.87,2.13,9.7,3.1,14.56.51,2.59.74,5.23,1.22,7.82s1.18,5.39,1.76,8.09c.86,4,1.76,8,2.53,12,.73,3.79,1.19,7.63,2,11.4.83,4,1.94,7.9,2.9,11.84.64,2.64,1.29,5.27,1.78,7.93.07.34-.74,1.21-1.17,1.23-2.14.11-4.28.08-6.42,0s-4.1-.34-6.16-.4c-2.32-.07-4.65-.12-7,0-2.14.12-4.27.51-6.52.79l-.08-1.61,6.72-.49c-.45-2.31-.87-4.57-1.33-6.82-.33-1.58-.68-3.16-1.07-4.73-.76-3.07-1.56-6.12-2.33-9.18-.43-1.72-.81-3.44-1.28-5.15-.05-.2-.51-.44-.77-.42-3.71.21-7.43.82-11.1.58-2.91-.19-2.8,1.62-3.19,3.28-.69,3-1.34,6.07-1.9,9.12s-1,6.3-1.48,9.44C462,357.82,463.33,359.17,467,359.61Zm16.71-28.08.21-.46c-.37-.35-.77-1-1.12-1-2.77.19-2.29-1.89-2.59-3.49-.46-2.5-.92-5-1.53-7.48-.68-2.79-1.68-5.51-2.25-8.32-.61-3-.84-6.09-1.3-9.12-.05-.38-.48-.7-1.09-1.53-.79,3.6-1.41,6.55-2.09,9.49q-.63,2.7-1.38,5.36c-.5,1.79-1.22,3.53-1.56,5.35-.61,3.33-1,6.69-1.48,10-.11.72-.17,1.45-.25,2.19a14.36,14.36,0,0,1,2.17-.41c2.75,0,5.51.07,8.26-.05a32.4,32.4,0,0,0,4.22-.73l-.15-.39Z" transform="translate(-392.41 -254.66)"/><path class="cls-1" d="M736.39,286.07a10.38,10.38,0,0,1,.37,2.11c-.07,2-.3,4-.37,6,0,.64.37,1.29.38,1.93,0,3.4.14,6.81,0,10.2-.14,2.92-.37,6-3.13,7.8-.82.54-2.19.24-3.53.34l-.11.64H728.4c0-2.83,0-5.63,0-8.42,0-3.33-.18-6.66-.2-10q0-9.86,0-19.69a1,1,0,0,1,.61-.67,5.51,5.51,0,0,1,6.79,4.1c.43,1.85.79,3.71,1.19,5.57Z" transform="translate(-392.41 -254.66)"/><path class="cls-1" d="M751.79,288.54l-1.93.68.89-1.38-2.56.48-.15-1.08,5.23-.72c0,1,.06,1.44.08,1.85l-1.09-.15.46.65-1.59,1.45-.42-.43Z" transform="translate(-392.41 -254.66)"/><path class="cls-1" d="M745,290.33l-2.68,1.33,4.71,1.06,0,.36-2.16.19,0-.59-2,.75c-.2-.58-.41-1.17-.81-2.3l2.68-1.28Z" transform="translate(-392.41 -254.66)"/><path class="cls-1" d="M618.92,279.73l.33-3.15c4.87-.46,7.13,1.39,7.64,6,.26,2.38.88,4.72,1.1,7.1.09,1-.51,2.1-.63,3.17-.19,1.72-.24,3.46-.38,5.69l1.56-1.18,1.07,3.41,1.28-1.37c-2.38-1.95,0-3.29.63-5.65v4.15h.38l.06-1.22,2.48-1.26v5.72l.68,1.22-2.73.93,1.78,1.31-3-.29-.75-1.44a6.08,6.08,0,0,1-1.67.45,5.55,5.55,0,0,1-1.55-.52l.67-.77,3-.18-2.09-.54-.19-1.85L627.24,301l-.62-.2a61,61,0,0,1-.09,8.45,18.06,18.06,0,0,1-2.39,6c-.26.46-1.85.18-2.85.41,3.09.25,4.55,2.27,5.28,4.89a12.9,12.9,0,0,1,0,3.35c0,5.05,0,10.09,0,15.14,0,2,.09,4,0,6.06a60.67,60.67,0,0,1-.86,9.56c-.22,1-2.16,1.95-3.48,2.38s-2.69.08-4.13.08l-.35-4.23c.31-12,.62-24.2.93-36.46l.37-.05c-.12-4-.26-7.88-.35-11.76,0-2.11,0-4.22,0-6.33,0-3.1-.06-6.21,0-9.31.07-2.59.32-5.17.45-7.77A6.37,6.37,0,0,0,618.92,279.73Z" transform="translate(-392.41 -254.66)"/><path class="cls-1" d="M614.23,289.81c-.29,1.48-.62,3.2-1.06,5.43,0-.07.16.44.31.84l-2.06,1,.23.49,1.65-.68a4.67,4.67,0,0,0,.14.5c.07.17.15.34.24.53l-2.4,1.75,1,.52-2.55,3.85-.85-.79-.83,2.09-1.13-2.22-1.51-.07,1.52-1.23-1.34-1.49.19-.38,2.08,1.23c.06-1.21.12-2.24.17-3.27l.66,0v2.43l.89-1.3c.2.14.41.29.28.19.35-1.38.72-2.84,1.08-4.3l.41.2-.36-1.76c-.48.08-1.2.41-1.41.21a10.58,10.58,0,0,1-1.33-2.18H610l.31.93Z" transform="translate(-392.41 -254.66)"/><path class="cls-1" d="M631.75,343.19l.85-1.5-1.53-1.14-2.17,1.51.89-1.71-2.23-.5,2.13-2.23c.09.68.16,1.26.37,2.86l2.79-2.92c-.05-.22,0,.11.11.44l.63-.35-.44,1.66,1.7,1.24-2.46,3Z" transform="translate(-392.41 -254.66)"/><path class="cls-1" d="M608.39,282l2.51.47,1.27,4.76-1,.3-.84-1.42-.16.91-1.56-.1,1-1.78-1,.42c0-.76-.1-1.5-.16-2.35h-2.17l2.08-1.24Z" transform="translate(-392.41 -254.66)"/><path class="cls-1" d="M602.3,279.22l1.9-.38.21.48-2.09,1.42-.22-.29-1.85,1.22-.31-.56c.69-1,1.37-2.07,2.24-3.38l1.88-.27a10.91,10.91,0,0,0-1.17.88A7.45,7.45,0,0,0,602.3,279.22Z" transform="translate(-392.41 -254.66)"/><path class="cls-1" d="M628.72,291.3c1.46-1.86,3.67-1.86,6.06.29Z" transform="translate(-392.41 -254.66)"/><path class="cls-1" d="M811.09,331.18H806l-.54-.81q3.62-15.22,7.22-30.41h.63a11.82,11.82,0,0,1,.73,2.12c.31,2.07.36,4.19.78,6.23.94,4.64,2,9.24,3.1,13.84.61,2.68,1.28,5.34,1.84,8,.08.35-.37,1.18-.56,1.17-1.78-.05-3.55-.26-5.33-.37-.92-.06-1.85,0-2.78,0Z" transform="translate(-392.41 -254.66)"/><path class="cls-1" d="M483.71,331.53l-1.93-.54.15.39a32.4,32.4,0,0,1-4.22.73c-2.75.12-5.51,0-8.26.05a14.36,14.36,0,0,0-2.17.41c.08-.74.14-1.47.25-2.19.47-3.35.87-6.71,1.48-10,.34-1.82,1.06-3.56,1.56-5.35s1-3.56,1.38-5.36c.68-2.94,1.3-5.89,2.09-9.49.61.83,1,1.15,1.09,1.53.46,3,.69,6.11,1.3,9.12.57,2.81,1.57,5.53,2.25,8.32.61,2.47,1.07,5,1.53,7.48.3,1.6-.18,3.68,2.59,3.49.35,0,.75.64,1.12,1Z" transform="translate(-392.41 -254.66)"/><path d="M632.47,304.91c-.64-4.84-.23-9.79-.1-14.64a1.51,1.51,0,0,0-2.26-1.3,2.31,2.31,0,0,0-1.33,1.83,1.52,1.52,0,0,0,2.2,1.7c2.15-1.24.8.85.47,1.77a13.87,13.87,0,0,0-.69,3.55,21.57,21.57,0,0,0,.59,7.72,1.52,1.52,0,0,0,2.21.9,4.3,4.3,0,0,0,2-3.65,12.34,12.34,0,0,0-.68-3.12c-.3-1.22-.1-3.56-.69-4.52q.27-2.14-1.41,0c-.09.43-.17.86-.22,1.3-.13,1,.12,2.24-.3,3.16,0,0-2.12,2.42-2.19,2.43-.32,0,.17-3.58.17-3.59.29-1.89-2.6-2.7-2.89-.79-.35,2.25-1.56,8.83,2.69,8.14,1.75-.28,2.55-2.29,3.61-3.43.59-.63,1.43-1.09,1.73-1.94s0-2.1.09-3.07c.13-1.73,1.12-3.94-.52-5.29A2.38,2.38,0,0,0,632,292c-1.28,1-.87,2.8-.74,4.18s2,6.82.82,7.71l2.21.89a18.45,18.45,0,0,1-.38-7.9c.3-1.71,2.07-3.52,1.8-5.29-.44-2.87-4.3-2.74-6.2-1.64l2.2,1.69,0,0-2.26-1.29c-.13,4.85-.54,9.8.1,14.64.26,1.88,3.26,1.91,3,0Z" transform="translate(-392.41 -254.66)"/><path d="M628.58,300.17a1.5,1.5,0,0,0,0-3,1.5,1.5,0,0,0,0,3Z" transform="translate(-392.41 -254.66)"/><path d="M628.5,300.5a1.5,1.5,0,0,0,0-3,1.5,1.5,0,0,0,0,3Z" transform="translate(-392.41 -254.66)"/><path d="M628.25,302.17a1.5,1.5,0,0,0,0-3,1.5,1.5,0,0,0,0,3Z" transform="translate(-392.41 -254.66)"/><path d="M630.09,340.49a4.08,4.08,0,0,1,1.52-2.39l-2.36-.31c-.13-.31-.29.53-.3.55-.18.5-.3,1-.46,1.53l-.82,2.75,2.94.4c.06-1.7,2.06-3.35,3.09-4.6l-2.51-.66c.85,2,0,5-.36,7.06h2.89a19.59,19.59,0,0,1-.51-2.27,22.6,22.6,0,0,0-.2-2.49c.18-.6-.09-.95-.8-1.05l.25,1.11.51,2.2c.44,1.88,3.33,1.08,2.89-.8s-1.19-7.26-4.51-5.06c-2.54,1.69-1.17,6.81-.52,9.16.36,1.33,2.65,1.52,2.89,0,.4-2.63,1.43-6.1.36-8.65-.38-.93-1.7-1.64-2.5-.67-1.65,2-3.88,4-4,6.72a1.51,1.51,0,0,0,2.95.4c.63-2.1,2.2-5,1.28-7.14-.41-1-1.7-.84-2.35-.3a6.59,6.59,0,0,0-2.29,3.72c-.44,1.87,2.45,2.68,2.89.79Z" transform="translate(-392.41 -254.66)"/><path d="M671.25,326.75V330a1.5,1.5,0,0,0,3,0v-3.25a1.5,1.5,0,0,0-3,0Z" transform="translate(-392.41 -254.66)"/><path d="M607.3,303.74a62.15,62.15,0,0,0,.25-11.33l-2.94.4q.82,6.06,1.88,12.08c.28,1.54,2.48,1.3,2.9,0a170.61,170.61,0,0,0,4.25-17.59c.38-1.88-2.48-2.69-2.89-.8a106,106,0,0,0-2.08,22.83,1.51,1.51,0,0,0,3,.4c1.84-6.2,6.08-14.16,3-20.53a1.51,1.51,0,0,0-2.74.36q-1.2,6.26-2.14,12.54h2.89c-1.2-4.35-1.34-8.71-1.57-13.18-.09-1.74.22-4-1.09-5.35a1.51,1.51,0,0,0-2.56,1.06c0,2.85.15,5.69.35,8.54.13,1.92,3.13,1.93,3,0-.2-2.85-.32-5.69-.35-8.54l-2.56,1.06c1.1,1.14.39,7.6.52,9.25a42.09,42.09,0,0,0,1.37,8c.37,1.33,2.66,1.53,2.89,0,.63-4.2,1.34-8.37,2.14-12.54l-2.74.36c2.4,5-1.88,13.31-3.33,18.21l2.94.4a102.46,102.46,0,0,1,2-22l-2.89-.8a168.11,168.11,0,0,1-4.26,17.59h2.9q-1.07-6-1.89-12.08c-.23-1.66-3.1-1.28-3,.4a62.17,62.17,0,0,1-.25,11.33c-.18,1.92,2.82,1.91,3,0Z" transform="translate(-392.41 -254.66)"/><path d="M604.83,279.08a1.5,1.5,0,0,0,0-3,1.5,1.5,0,0,0,0,3Z" transform="translate(-392.41 -254.66)"/><path d="M605.42,278.67a1.5,1.5,0,0,0,0-3,1.5,1.5,0,0,0,0,3Z" transform="translate(-392.41 -254.66)"/><path d="M603.83,279a1.5,1.5,0,0,0,0-3,1.5,1.5,0,0,0,0,3Z" transform="translate(-392.41 -254.66)"/><path d="M603.83,278.75a1.5,1.5,0,0,0,0-3,1.5,1.5,0,0,0,0,3Z" transform="translate(-392.41 -254.66)"/><path d="M602.22,281.87l1.6-2.16-2.74-.35,1,3.7c.36,1.36,2.62,1.49,2.89,0l.56-3.07H602.6a25.68,25.68,0,0,0,1.3,4.3c.57,1.44,3.07,1.44,2.94-.39a8,8,0,0,1,1.41-4.95l-1.29.75c-.93.08-1,3.11-1.07,3.84-.23,1.58,1.81,2.73,2.74,1.15l2.78-4.68-2.74-.36a17.51,17.51,0,0,1,1,6.21l2.8-.76c-.34-.58-.68-1.16-1-1.77s-.72-3.2-.59-1.37l2.56-1.06c-1.75-1.72-2.36-4.39-5.24-4.34-1.92,0-1.93,3,0,3,.92,0,2.4,2.75,3.12,3.46a1.52,1.52,0,0,0,2.56-1.06c-.16-2.28-2-4.82-4.51-3.27-3,1.87-.81,5.72.49,7.93a1.51,1.51,0,0,0,2.79-.76,19.91,19.91,0,0,0-1.07-7,1.52,1.52,0,0,0-2.74-.36L606,283.18l2.74,1.16c.28-1.93,2.11-7.32-1.3-7.69-3-.32-3.77,5.26-3.64,7.25l2.95-.4a26,26,0,0,1-1.3-4.3,1.51,1.51,0,0,0-2.89,0l-.56,3.06h2.89l-.95-3.7a1.53,1.53,0,0,0-2.75-.36l-1.6,2.15c-1.16,1.55,1.45,3,2.59,1.52Z" transform="translate(-392.41 -254.66)"/><rect x="207.05" y="21.01" width="8.63" height="1.5"/><path d="M747,287.28a3.23,3.23,0,0,0,2,1.68,5.06,5.06,0,0,0,1.5.14,4.12,4.12,0,0,1,1.25,0c1.71.91,3.22-1.68,1.52-2.59a4,4,0,0,0-2.3-.4c-.5,0-1.19.24-1.43-.31a1.51,1.51,0,0,0-2.05-.54,1.55,1.55,0,0,0-.54,2.06Z" transform="translate(-392.41 -254.66)"/><path d="M752.45,293.24c1-1.28.21-3.16-.1-4.57s-.85-3-2.59-2.89c-1.52.1-1.85,1.4-1.87,2.67a20.12,20.12,0,0,1-1.34,7.12l2.74-.36a63.44,63.44,0,0,1-3.9-8.15,1.52,1.52,0,0,0-2.74-.36c-.89,1.3-.33,3.07-.18,4.54a18,18,0,0,1-.13,6.12l2.74-.35c-1.35-1.89-1.59-5.07-2.06-7.31l-2.9.79a39.93,39.93,0,0,1,2,7.57c.31,1.9,3.2,1.1,2.89-.79a40.25,40.25,0,0,0-2-7.57,1.5,1.5,0,0,0-2.9.79c.54,2.54.83,5.88,2.37,8a1.52,1.52,0,0,0,2.74-.36,16.73,16.73,0,0,0,.4-5.09c0-.86-.15-1.71-.24-2.57-.06-.48-.42-1.89-.15-2.29l-2.74-.36a69.23,69.23,0,0,0,4.2,8.88,1.52,1.52,0,0,0,2.74-.36,20.83,20.83,0,0,0,1.23-4.6c.13-.89-.1-3.06.16-3.64l-.89.69.42-.12-1.15-.16a8.62,8.62,0,0,1,.65,3.19c-1.18,1.53,1.42,3,2.59,1.51Z" transform="translate(-392.41 -254.66)"/><path d="M481.12,330.59c.37.79.77,1.56,1.19,2.32a1.5,1.5,0,1,0,2.59-1.51c-.42-.77-.82-1.54-1.19-2.32a1.51,1.51,0,0,0-2-.54,1.53,1.53,0,0,0-.54,2Z" transform="translate(-392.41 -254.66)"/><path d="M642.06,286.91c1.63,2.84,1.15,6.2,1.19,9.34a1.5,1.5,0,0,0,3,0c0-3.73.33-7.49-1.6-10.86a1.5,1.5,0,0,0-2.59,1.52Z" transform="translate(-392.41 -254.66)"/><path d="M645.5,306.11a7.72,7.72,0,0,0,.55-5.68c-.53-1.85-3.43-1.07-2.89.79a4.57,4.57,0,0,1-.25,3.37c-.86,1.73,1.72,3.25,2.59,1.52Z" transform="translate(-392.41 -254.66)"/><path d="M630.85,319.17l1.92.68c.27.09.72.2.87.44,1,1.63,3.62.13,2.59-1.52s-3-1.92-4.58-2.49a1.5,1.5,0,1,0-.8,2.89Z" transform="translate(-392.41 -254.66)"/><path d="M687.22,320.49a5.94,5.94,0,0,0,.11-1.57,1.53,1.53,0,0,0-1.5-1.5,1.5,1.5,0,0,0-1.5,1.5c0,.17,0,.33,0,.5s-.06.47,0,.27a1.5,1.5,0,0,0,2.89.8Z" transform="translate(-392.41 -254.66)"/><path d="M685.67,322.33a1.5,1.5,0,0,0,0-3,1.5,1.5,0,0,0,0,3Z" transform="translate(-392.41 -254.66)"/></svg>