<svg xmlns="http://www.w3.org/2000/svg" viewBox="0 0 445.04 148.44"><title>logofinalisimo</title><g id="logo"><path d="M300.83,20.68h-4.52c.16-.3.24-.62.36-.63a59.51,59.51,0,0,1,6.09-.5c2.83,0,5.66.36,8.49.43,3.5.08,7-.11,10.51.07,1.89.1,3.75.87,5.65,1.07,1.18.13,2.47-.55,3.62-.34a39,39,0,0,1,8,2.08,14.51,14.51,0,0,1,5.07,3.68c1.53,1.69,2.45,3.91,3.74,5.82,2.49,3.68,2.09,7.87,1.76,11.85-.45,5.53-2.89,10.36-7.87,13.14-2.27,1.27-5.19,1.38-7.81,2a3.91,3.91,0,0,0-2.19,1.27c2.48.28,5,.39,7.42.87a14.09,14.09,0,0,1,9,6.11c1.44,2.18,1.84,5.21,2.14,7.93a86.49,86.49,0,0,1,.08,9.53v17.65l3.3-2.09.45.43a5.49,5.49,0,0,1-.92,1.59c-4.5,3.89-9.94,4-15.45,3.71-2.42-.14-5.79-3.64-6.16-6-.41-2.64-1-5.25-1.34-7.88a15.8,15.8,0,0,1,.08-3c.11-2.35.33-4.7.31-7,0-2.84-.4-5.67-.42-8.5,0-2.24.51-4.49.39-6.71a6.34,6.34,0,0,0-5.93-6,22,22,0,0,1-2.39-.41c0,4.62,0,9.19,0,13.76,0,6.44-.12,12.88-.25,19.32,0,2.52-.26,5-.48,7.55-.17,2,1.13,3,3.09,2.28a28,28,0,0,1,3.08-.73v1.75H296.7V103.3h4.13ZM330.32,31l.41-.11c-.4-1.86-.76-3.72-1.19-5.57a5.51,5.51,0,0,0-6.79-4.1,1,1,0,0,0-.61.67q0,9.86,0,19.69c0,3.33.16,6.66.2,10,0,2.8,0,5.59,0,8.42h1.58l.11-.64c1.34-.1,2.71.2,3.53-.34,2.76-1.8,3-4.88,3.13-7.8.16-3.39.06-6.79,0-10.19,0-.65-.4-1.3-.38-1.94.07-2,.3-4,.37-6A10.6,10.6,0,0,0,330.32,31Zm15.4,2.48-1.08,1.34.42.43,1.59-1.45-.46-.65,1.09.15c0-.4,0-.82-.08-1.85l-5.24.73.16,1.07,2.56-.47-.89,1.38ZM339,35.3l-.27-.47L336,36.1l.81,2.3,1.95-.75,0,.59,2.16-.19,0-.36-4.71-1Z" transform="translate(0 -2.38)"/><path d="M202.32,27l.31-1,2.38.39-.57-1.09.92-.91.35,2.34,1-.91-2.51-3.3-1.14-.22,1.2,2.47-.93,1.08-1.2-3.42-1.9.42-.81-2.3c3,.22,5.91.46,8.85.62.52,0,1.06-.42,1.59-.4,5.2.2,10.43.17,15.57.79a12.93,12.93,0,0,1,8.65,4.92c1.24,1.55,3.1,2.58,5.07,4.16l-2,.93c3,2,2.91,5.2,3.08,8.17a44.56,44.56,0,0,1-.06,7.75c-.12,1.08-1.23,2-1.93,3.11h1.63c-2.23,2.69-3.85,5.83-6.43,7.43s-6.33,1.86-9.88,2.78l2.34.6-.68.23a54.3,54.3,0,0,1,5.56,1.54,15.46,15.46,0,0,1,4.94,2.69A18.54,18.54,0,0,1,240,71.46c2.19,4.83,1.92,10.15,1.34,15.18a23,23,0,0,1-4,11c-2.43,3.19-6,5.88-10.78,5.75-3.58-.1-7.17.4-10.76.39-4.23,0-8.46-.31-12.69-.43-2.18-.06-4.35,0-6.53,0-2.7,0-5.4,0-8.1,0a1.78,1.78,0,0,1-1.41-1.2l5.5-.51V85c0-2.14.05-4.29,0-6.43s-.33-4.5-.31-6.74q.09-11.88.34-23.75c0-2.27.41-4.54.44-6.82.07-5.55-.19-11.11.11-16.64.16-2.95-.7-3.92-3.49-3.41-.27.05-.58-.07-.86-.49,2.38,0,4.76-.05,7.14,0a8.73,8.73,0,0,1,2.85.59c.33.13.41.9.64,1.35.34.64,1,1.25,1,1.89s-.55,1.34-.88,2c-.2.39-.44.75-.81,1.37l-.78-1-.68.88,2,1.5.86-1.72-.82-.59c.95-.29,1.71-.57,2.51-.73.16,0,.42.39.63.6l-2.08,1.24h2.17c.06.85.11,1.59.16,2.35l1-.42-1,1.79,1.56.09.16-.9.84,1.42,1-.31-1.27-4.76Zm10.53-2.27a6.35,6.35,0,0,1,.28,1.47c-.13,2.59-.38,5.17-.45,7.77-.08,3.09,0,6.2,0,9.3,0,2.11,0,4.22,0,6.33.09,3.88.23,7.76.35,11.77.44-.06.1,0-.37,0-.31,12.27-.62,24.51-.93,36.46l.35,4.24c1.44,0,2.9.31,4.13-.09s3.26-1.35,3.48-2.37a60.91,60.91,0,0,0,.86-9.57c.1-2,0-4,0-6.06,0-5,0-10.09,0-15.14a12.9,12.9,0,0,0-.05-3.35c-.73-2.62-2.19-4.64-5.28-4.89,1-.23,2.59,0,2.85-.41a18.06,18.06,0,0,0,2.39-6,61,61,0,0,0,.09-8.45l.62.2,1.32-1.54.19,1.85,2.09.54-3,.18-.67.78a5.87,5.87,0,0,0,1.55.51,6.39,6.39,0,0,0,1.67-.44l.75,1.43,3,.29-1.78-1.31,2.73-.93-.68-1.21V40.37l-2.48,1.25-.06,1.23h-.38V38.69c-.59,2.36-3,3.7-.63,5.65l-1.28,1.37-1.07-3.41-1.56,1.18c.14-2.23.19-4,.38-5.69.12-1.07.72-2.14.63-3.17-.22-2.38-.84-4.72-1.1-7.09-.51-4.59-2.77-6.44-7.64-6Zm-4.69,10.08-3.89,2.57-.31-.92h-1.82a10.74,10.74,0,0,0,1.33,2.17c.21.2.93-.13,1.41-.21l.36,1.76-.41-.2c-.36,1.46-.73,2.92-1.08,4.31l-.28-.2-.89,1.3V42.93l-.66,0c0,1-.11,2.06-.17,3.27L199.67,45l-.19.37,1.34,1.49-1.52,1.23,1.51.07,1.13,2.22c.42-1,.63-1.58.83-2.09l.85.79,2.55-3.84-1-.52,2.4-1.76c-.09-.19-.17-.35-.24-.53a4.67,4.67,0,0,1-.14-.5l-1.65.69-.23-.5,2.06-1-.31-.85C207.54,38,207.87,36.26,208.16,34.78Zm17.52,53.38.64.4c.82-1,1.63-2,2.46-3l-1.7-1.24.43-1.65-.62.34c-.08-.32-.16-.66-.11-.44L224,85.45c-.21-1.6-.28-2.17-.37-2.86l-2.13,2.23,2.23.51-.89,1.7,2.17-1.5,1.53,1.14Zm-29.46-64a7.65,7.65,0,0,1,.6-.87,9.66,9.66,0,0,1,1.17-.88l-1.88.26c-.87,1.32-1.55,2.35-2.24,3.38l.3.56L196,25.42l.22.29,2.09-1.42-.21-.47Zm26.43,12.08,6.06.29C226.32,34.41,224.11,34.41,222.65,36.27Z" transform="translate(0 -2.38)"/><path d="M267.22,73.7l1,.11c0,.23.08.46.08.7q0,12.7,0,25.43a3.45,3.45,0,0,1,0,.72c-.47,2-.44,3.4,2.29,2.18,1.71-.78,3.79-1,5.27-2a72.8,72.8,0,0,0,7.53-6.53c3.42-3.24,5.29-7.51,7-11.74a53.55,53.55,0,0,0,2.36-9.71c.41-2.08.5-4.23.81-7,.53.71,1.13,1.14,1.13,1.58,0,10.14-.09,20.28-.15,30.42,0,1.73-.06,3.46,0,5.19,0,1.49-.44,2-2.09,1.75a22.65,22.65,0,0,0-4.76.32c-.77,0-1.55.07-2.33.07-4.84,0-9.68.07-14.52,0-3.53-.06-7.06-.38-10.6-.43-1.89,0-3.78.41-5.67.41s-3.59-.43-5.38-.4-3.75.38-5.73.6v-2.31a19.35,19.35,0,0,0,3.39.6c.52,0,1.49-.67,1.5-1.06.13-3,.07-6,.07-9.07,0-8.06,0-16.13,0-24.2,0-6.76-.19-13.51-.17-20.27,0-1.88.55-3.76.63-5.65.11-2.89.05-5.78,0-8.68,0-1.27-.13-2.55-.22-4.17v-9.1l-4.63.59c-.32-1.84.53-2.43,2.52-2.08a30.69,30.69,0,0,0,3.94.47c1.94.08,3.88,0,5.82,0,4.37,0,8.73,0,13.09,0,6.07.06,12.13.17,18.19.23,1.5,0,3-.15,4.49-.05a1.63,1.63,0,0,1,1.12,1.13c0,1.28-.36,2.58-.33,3.86.08,3.58.34,7.15.43,10.73a20.07,20.07,0,0,0,.07,3.95q-.39,7.37-.79,14.72h-.9c-.33-2.42-.55-4.86-1-7.26a40.68,40.68,0,0,0-1.93-7.54,30.89,30.89,0,0,0-4.21-7.56,42.89,42.89,0,0,0-7.14-6.85A61.44,61.44,0,0,0,270,21.41a1.38,1.38,0,0,0-.83-.06,13,13,0,0,0-.68,3.14c0,2.73.1,5.46.17,8.19,0,.19,0,.37,0,.56,0,4.4-.08,8.81-.13,13.22,0,.71-.16,1.43-.17,2.15,0,3.5,0,7,0,10.5,0,.57.47,1.5.87,1.59a2.35,2.35,0,0,0,1.88-.65,30.85,30.85,0,0,0,4.06-4.88,70.86,70.86,0,0,0,3.2-6.69,1.86,1.86,0,0,1,1-1c.22-2.87.42-5.75.69-8.62,0-.3.48-.55.74-.82a3.16,3.16,0,0,1,.45,1.09q0,12.28,0,24.56c0,.43-.36.85-.51,1.19a6.09,6.09,0,0,1,.51,1.71c.05,4,0,7.92,0,11.88,0,.5-.19,1,.14,1.54-.3,2.36-.59,4.72-.89,7.08L279.8,87a52,52,0,0,0-1-5.6q-1.59-5.7-3.51-11.3a14.49,14.49,0,0,0-5.76-7.68,4.11,4.11,0,0,0-1.35-.3c0,.49-.11,1-.12,1.45,0,2.8,0,5.59,0,8.5l-.88.14Z" transform="translate(0 -2.38)"/><path d="M49.21,64.31V98h.39c-.15,2.34-.3,4.68-.45,7H.69L0,103.23l3.81.5a5.13,5.13,0,0,0,.24-1.44c-.19-3.39-.56-6.78-.65-10.17,0-2.17.4-4.35.41-6.53q.09-12.95,0-25.91c0-2.43-.4-4.87-.39-7.3,0-1.8.49-3.61.59-5.42.12-2.29.06-4.58.06-6.87,0-5.09-.07-10.18,0-15.26,0-2.68.28-5.23-4-3.88.17-.69.18-1.32.36-1.37a5.88,5.88,0,0,1,2.08-.21c1.16.13,2.29.51,3.45.61,2.59.22,5.19.41,7.79.46,1.59,0,3.19-.3,4.78-.34C21.53,20,24.47,20,27.41,20c.47,0,.94.56,1.41,1.46a37.42,37.42,0,0,0-3.82,0c-.51.06-1.4.61-1.39.9.21,5.31.69,10.62.76,15.93,0,3.17-.52,6.36-.8,9.54,0,.36,0,.72,0,1.08,0,8.24,0,16.48,0,24.71,0,1.74.45,3.47.42,5.2,0,3.21-.43,6.42-.41,9.63,0,4.33.31,8.66.43,13,.07,2.24,1.64,3,3.92,1.87A75.33,75.33,0,0,0,35,100.06a18.72,18.72,0,0,0,4.08-4,34.29,34.29,0,0,0,4.29-5.79,27.8,27.8,0,0,0,3-7.63c.91-4.63,1.31-9.37,1.85-14.06.15-1.24,0-2.51.08-3.77C48.29,64.74,48.48,64.69,49.21,64.31Z" transform="translate(0 -2.38)"/><path d="M160.11,35.4V20.67H154.3l0-.45h31.87v.86a13,13,0,0,1-3.47.32c-2.44-.43-2,1.17-2,2.5s0,2.64,0,4c.06,5.29.14,10.58.17,15.88,0,1.81-.17,3.62-.18,5.43,0,4.65,0,9.29,0,13.93-.06,8.67-.16,17.34-.23,26,0,2.55,0,5.11,0,7.66a8,8,0,0,1-.33,1.45c.27,1.36.1,3.37,1,4.16s2.89.43,4.75.6c-.61.8-.8,1.07-.78,1h-2.69c-2.48,0-4.95-.06-7.42,0-1.71.06-3.43.44-5.14.42-2.65,0-5.3-.4-7.95-.41-2.29,0-4.58.37-6.87.39-.56,0-1.13-.71-1.4-1.66,1.15,0,2.32-.09,3.47,0,1.57.16,2.42-.07,2.27-2-.19-2.7-.06-5.44,0-8.15a14.35,14.35,0,0,1,.44-2.19V35.38Z" transform="translate(0 -2.38)"/><path d="M355.39,104.72c.17-2.77,2.18-2.13,3.17-1.83,3.49,1,2.92-1.94,3-3.28.24-3.93-.07-7.88-.12-11.82,0-3,0-6,0-9,0-4.9.06-9.81,0-14.71,0-2.58-.41-5.15-.42-7.73,0-2.17.31-4.34.44-6.51.11-1.91.23-3.83.23-5.74,0-7.48,0-15,0-22.78h-5.74l0-.84c1.08-.12,2.15-.32,3.23-.34,4.27-.09,8.55-.23,12.82-.14,3.75.08,7.49.47,11.24.67a14.11,14.11,0,0,1,4.94.71,10.08,10.08,0,0,1-1.94.38c-1,0-2.34-.53-3-.07s-.3,1.86-.41,2.86a32.25,32.25,0,0,0-.36,3.77c0,2.86.18,5.71.29,8.56,0,1,.08,2,.09,2.93,0,2.24.06,4.48,0,6.72-.1,3.13-.41,6.26-.44,9.4-.08,6,0,12.07,0,18.11V87.22c0,2.38.06,4.76,0,7.14,0,1.46-.46,2.92-.41,4.36a31.6,31.6,0,0,0,.69,4.29l4.17.34c-.15.45-.22,1.08-.41,1.12a22.81,22.81,0,0,1-3.92.68,39.14,39.14,0,0,1-4.72-.08c-.55,0-1.07-.5-1.62-.54-3.25-.2-6.5-.48-9.75-.44C362.76,104.13,359.18,104.49,355.39,104.72Z" transform="translate(0 -2.38)"/><path d="M445,105.57c-1.67.11-3.33.22-5,.3-.27,0-.54-.15-.81-.16-5.49-.16-11-.3-16.48-.5-1.82-.06-3.63-.38-5.45-.43-1.31,0-2.62.15-4.3.26a4.88,4.88,0,0,1,.06-1.4c0-.12.83,0,1.27,0,1.47.1,2.94.26,4.41.25.18,0,.57-.9.5-1.32-.58-3.35-1.15-6.7-1.92-10-.92-4-2.06-7.91-3.06-11.88-.27-1.1-.37-2.25-.58-3.5H399q-.9,5.36-1.81,10.68c-.63,3.7-1.23,7.41-1.92,11.1-.49,2.67,1.29,3.28,3.24,3.9a1.64,1.64,0,0,1,.79,1.13c.05.18-.55.74-.86.74-3,.05-5.93,0-8.9,0a.84.84,0,0,1-.49-.64c.06-.42.21-1.06.5-1.19,2.86-1.19,3.47-3.72,4-6.36.46-2.12,1.1-4.2,1.58-6.32.39-1.7.55-3.45,1-5.14.91-3.59,2-7.14,2.87-10.74.63-2.64,1-5.35,1.53-8,.73-3.43,1.59-6.83,2.34-10.25.47-2.16.77-4.35,1.27-6.5.34-1.49.93-2.92,1.32-4.4.48-1.83.85-3.68,1.3-5.52.94-3.91,2-7.8,2.83-11.72.48-2.15.72-4.35,1-6.37h8.44v-.12l4.59.37c1.06,4.71,2.07,9.08,3,13.47.55,2.54,1,5.1,1.44,7.66.62,3.78,1.09,7.58,1.73,11.36q1.23,7.15,2.63,14.28c.74,3.75,1.64,7.46,2.38,11.21.93,4.79,1.72,9.61,2.67,14.39.4,2,1.11,3.87,1.61,5.82a5.54,5.54,0,0,1-.11,1.44c-.16,3.9,2.66,3,4.92,3.07.31,0,.62,0,.93.06ZM405,76.15V76c.93,0,1.86,0,2.78,0,1.78.11,3.55.32,5.33.37.19,0,.64-.81.56-1.17-.56-2.68-1.23-5.35-1.84-8-1.06-4.61-2.16-9.21-3.1-13.84-.42-2-.47-4.17-.78-6.24a12.09,12.09,0,0,0-.73-2.12h-.63q-3.6,15.2-7.22,30.4l.54.81Z" transform="translate(0 -2.38)"/><path d="M60.93,104.58v1.36c-2.8,0-5.56,0-8.32,0-.4,0-.79-.5-1.19-.77a3.35,3.35,0,0,0,.81-.78,36.88,36.88,0,0,0,3.13-6.21c1.2-3.88,2-7.87,2.89-11.84.57-2.57,1-5.17,1.5-7.77.82-4.57,1.59-9.16,2.42-13.73.6-3.25,1.15-6.52,2-9.73.67-2.71,1.75-5.33,2.5-8,.55-2,.88-4.08,1.29-6.13.59-3,1.19-6,1.74-9,.49-2.71,1-5.42,1.37-8.15.31-2.18,1.75-2.64,3.57-2.5,2.28.18,4.55.49,6.83.68,1,.09,2.11,0,3.23,0,.52,3,1,5.95,1.55,8.87,1,4.86,2.13,9.69,3.1,14.55.51,2.59.74,5.23,1.22,7.82s1.18,5.39,1.76,8.09c.86,4,1.76,8,2.53,12,.73,3.79,1.19,7.63,2,11.41.83,4,1.94,7.89,2.9,11.84.64,2.63,1.29,5.26,1.78,7.92.07.35-.74,1.21-1.17,1.23-2.14.12-4.28.08-6.42,0s-4.1-.33-6.16-.4c-2.32-.07-4.65-.12-7,0-2.14.13-4.27.51-6.52.8l-.08-1.62,6.72-.49c-.45-2.31-.87-4.57-1.33-6.82-.33-1.58-.68-3.16-1.07-4.73-.76-3.06-1.56-6.12-2.33-9.18-.43-1.71-.81-3.44-1.28-5.15,0-.2-.51-.43-.77-.42-3.71.21-7.43.82-11.1.58-2.91-.19-2.8,1.62-3.19,3.28-.69,3-1.34,6.07-1.9,9.13s-.95,6.29-1.48,9.43C56,102.79,57.26,104.15,60.93,104.58ZM77.64,76.51l.21-.47c-.37-.35-.77-1-1.12-1-2.77.19-2.29-1.89-2.59-3.49-.46-2.5-.92-5-1.53-7.48-.68-2.79-1.69-5.51-2.25-8.32-.61-3-.84-6.08-1.3-9.12C69,46.26,68.58,46,68,45.12c-.79,3.59-1.41,6.54-2.09,9.49Q65.25,57.3,64.5,60c-.5,1.79-1.23,3.53-1.56,5.34-.61,3.33-1,6.69-1.49,10-.1.72-.16,1.45-.24,2.19a15.79,15.79,0,0,1,2.17-.41c2.75,0,5.51.07,8.26,0a30.79,30.79,0,0,0,4.22-.73L75.71,76Z" transform="translate(0 -2.38)"/><path d="M226.4,49.88c-.64-4.83-.23-9.78-.1-14.64a1.51,1.51,0,0,0-2.26-1.3,2.31,2.31,0,0,0-1.33,1.84,1.51,1.51,0,0,0,2.2,1.69c2.15-1.24.8.85.47,1.78a13.79,13.79,0,0,0-.69,3.54,21.55,21.55,0,0,0,.59,7.72,1.51,1.51,0,0,0,2.21.9,4.3,4.3,0,0,0,1.95-3.65,12.34,12.34,0,0,0-.68-3.12c-.3-1.22-.1-3.56-.69-4.52q.27-2.15-1.41,0c-.09.43-.17.86-.22,1.3-.13,1,.12,2.25-.3,3.16,0,0-2.12,2.42-2.19,2.43-.32.05.17-3.57.17-3.58.29-1.89-2.6-2.71-2.89-.8-.35,2.25-1.56,8.84,2.69,8.15,1.75-.29,2.55-2.3,3.61-3.44.59-.63,1.43-1.08,1.73-1.94s0-2.1.09-3.07c.13-1.72,1.12-3.94-.52-5.29a2.39,2.39,0,0,0-2.94-.15c-1.28,1-.87,2.8-.74,4.19s2,6.82.82,7.7l2.21.9a18.34,18.34,0,0,1-.38-7.91c.3-1.7,2.07-3.52,1.8-5.29-.44-2.87-4.3-2.74-6.2-1.64l2.2,1.69,0,0-2.26-1.29c-.13,4.86-.54,9.81.1,14.64.26,1.89,3.26,1.91,3,0Z" transform="translate(0 -2.38)"/><path d="M222.51,45.14a1.5,1.5,0,0,0,0-3,1.5,1.5,0,0,0,0,3Z" transform="translate(0 -2.38)"/><path d="M222.43,45.47a1.5,1.5,0,0,0,0-3,1.5,1.5,0,0,0,0,3Z" transform="translate(0 -2.38)"/><path d="M222.18,47.14a1.5,1.5,0,0,0,0-3,1.5,1.5,0,0,0,0,3Z" transform="translate(0 -2.38)"/><path d="M224,85.47a4.07,4.07,0,0,1,1.52-2.4l-2.36-.3c-.13-.31-.29.52-.3.54-.18.5-.3,1-.46,1.53l-.82,2.75,2.94.4c.06-1.7,2.06-3.35,3.09-4.59l-2.51-.66c.85,2,0,5-.37,7.05h2.9a19.42,19.42,0,0,1-.51-2.26,22.78,22.78,0,0,0-.2-2.5c.17-.6-.09-1-.8-1l.25,1.1.51,2.2c.44,1.88,3.33,1.08,2.89-.8s-1.19-7.26-4.51-5.06c-2.54,1.69-1.17,6.81-.53,9.16.37,1.33,2.66,1.53,2.9,0,.4-2.62,1.43-6.1.36-8.65-.38-.92-1.7-1.64-2.5-.66-1.65,2-3.88,4-4,6.71-.06,1.73,2.47,2,3,.4.63-2.1,2.2-5,1.28-7.14-.41-1-1.7-.84-2.35-.3a6.66,6.66,0,0,0-2.29,3.72c-.44,1.88,2.45,2.68,2.89.8Z" transform="translate(0 -2.38)"/><path d="M265.18,71.72V75a1.5,1.5,0,0,0,3,0V71.72a1.5,1.5,0,0,0-3,0Z" transform="translate(0 -2.38)"/><path d="M201.23,48.71a62.06,62.06,0,0,0,.25-11.32l-2.94.39q.83,6.06,1.88,12.08c.28,1.55,2.48,1.3,2.9,0a170.61,170.61,0,0,0,4.25-17.59c.38-1.88-2.48-2.69-2.89-.8A106,106,0,0,0,202.6,54.3a1.51,1.51,0,0,0,3,.4c1.84-6.19,6.08-14.16,3-20.53a1.52,1.52,0,0,0-2.74.36q-1.2,6.26-2.14,12.55h2.89c-1.2-4.35-1.34-8.72-1.57-13.19-.09-1.73.22-4-1.09-5.35a1.52,1.52,0,0,0-2.56,1.06q0,4.27.35,8.54c.13,1.92,3.13,1.93,3,0q-.3-4.26-.35-8.54l-2.56,1.06c1.1,1.14.39,7.61.52,9.25a42.09,42.09,0,0,0,1.37,8c.37,1.33,2.66,1.53,2.89,0q.94-6.28,2.14-12.54l-2.74.36c2.4,5-1.88,13.32-3.33,18.22l2.94.39a102.46,102.46,0,0,1,2-22l-2.89-.8a168.11,168.11,0,0,1-4.26,17.59h2.9q-1.06-6-1.89-12.07c-.23-1.66-3.1-1.29-3,.4a62.06,62.06,0,0,1-.25,11.32c-.18,1.92,2.82,1.91,3,0Z" transform="translate(0 -2.38)"/><path d="M198.76,24.06a1.5,1.5,0,0,0,0-3,1.5,1.5,0,0,0,0,3Z" transform="translate(0 -2.38)"/><path d="M199.35,23.64a1.5,1.5,0,0,0,0-3,1.5,1.5,0,0,0,0,3Z" transform="translate(0 -2.38)"/><path d="M197.76,24a1.5,1.5,0,0,0,0-3,1.5,1.5,0,0,0,0,3Z" transform="translate(0 -2.38)"/><path d="M197.76,23.72a1.5,1.5,0,0,0,0-3,1.5,1.5,0,0,0,0,3Z" transform="translate(0 -2.38)"/><path d="M196.15,26.84l1.6-2.15L195,24.33l1,3.7c.35,1.36,2.62,1.5,2.89,0l.56-3.06h-2.89a26,26,0,0,0,1.3,4.3c.57,1.43,3.07,1.43,2.94-.4a7.91,7.91,0,0,1,1.41-4.94l-1.29.74c-.93.08-1,3.12-1.07,3.84-.23,1.59,1.81,2.73,2.74,1.16L205.34,25l-2.74-.36a17.51,17.51,0,0,1,1,6.21l2.8-.75c-.34-.58-.68-1.17-1-1.78s-.72-3.2-.59-1.37l2.56-1.06c-1.75-1.72-2.36-4.39-5.24-4.34-1.92,0-1.93,3,0,3,.92,0,2.4,2.76,3.12,3.46a1.52,1.52,0,0,0,2.56-1.06c-.16-2.28-2-4.82-4.51-3.27-3,1.87-.81,5.72.49,7.93a1.51,1.51,0,0,0,2.79-.76,19.91,19.91,0,0,0-1.07-7,1.52,1.52,0,0,0-2.74-.35L200,28.15l2.74,1.16c.28-1.93,2.11-7.32-1.3-7.69-3-.32-3.77,5.26-3.64,7.25l2.95-.4a26,26,0,0,1-1.3-4.3,1.51,1.51,0,0,0-2.89,0L196,27.23h2.89l-1-3.7a1.53,1.53,0,0,0-2.75-.36l-1.6,2.15c-1.16,1.55,1.45,3.05,2.59,1.52Z" transform="translate(0 -2.38)"/><rect x="193.39" y="18.26" width="8.63" height="1.5"/><path d="M340.92,32.25A3.2,3.2,0,0,0,343,33.93a4.76,4.76,0,0,0,1.5.15c.32,0,1-.17,1.25,0,1.7.91,3.22-1.68,1.52-2.59a4.06,4.06,0,0,0-2.3-.4c-.5,0-1.19.24-1.43-.31a1.5,1.5,0,0,0-2.05-.53,1.53,1.53,0,0,0-.54,2.05Z" transform="translate(0 -2.38)"/><path d="M346.38,38.22c1-1.29.21-3.17-.1-4.57s-.85-3-2.59-2.9c-1.52.1-1.85,1.4-1.88,2.67a19.89,19.89,0,0,1-1.33,7.12l2.74-.35a64.21,64.21,0,0,1-3.9-8.16,1.52,1.52,0,0,0-2.74-.36c-.89,1.3-.33,3.08-.18,4.54a18,18,0,0,1-.13,6.13L339,42c-1.35-1.89-1.59-5.07-2.07-7.31l-2.89.8a39.53,39.53,0,0,1,2,7.57c.31,1.9,3.2,1.09,2.89-.8a39.53,39.53,0,0,0-2-7.57,1.5,1.5,0,0,0-2.89.8c.54,2.53.83,5.87,2.37,8a1.52,1.52,0,0,0,2.74-.36,16.67,16.67,0,0,0,.4-5.08c-.05-.86-.15-1.72-.24-2.58-.06-.48-.42-1.89-.15-2.29l-2.74-.35a69.74,69.74,0,0,0,4.2,8.87,1.52,1.52,0,0,0,2.74-.36,20.9,20.9,0,0,0,1.23-4.59c.13-.9-.1-3.07.16-3.65l-.89.69.42-.12-1.15-.15a8.53,8.53,0,0,1,.65,3.18c-1.18,1.53,1.42,3,2.59,1.52Z" transform="translate(0 -2.38)"/><path d="M75.05,75.56c.37.79.77,1.56,1.19,2.32a1.5,1.5,0,1,0,2.59-1.51c-.42-.76-.82-1.54-1.19-2.32a1.5,1.5,0,1,0-2.59,1.51Z" transform="translate(0 -2.38)"/><path d="M236,31.88c1.63,2.84,1.15,6.2,1.18,9.34,0,1.93,3,1.94,3,0,0-3.73.34-7.49-1.59-10.85A1.5,1.5,0,0,0,236,31.88Z" transform="translate(0 -2.38)"/><path d="M239.43,51.08A7.72,7.72,0,0,0,240,45.4a1.5,1.5,0,0,0-2.89.8,4.53,4.53,0,0,1-.26,3.37c-.85,1.72,1.73,3.24,2.6,1.51Z" transform="translate(0 -2.38)"/><path d="M224.78,64.15l1.92.67c.27.09.72.2.87.44,1,1.63,3.62.13,2.59-1.51s-3-1.93-4.58-2.5a1.5,1.5,0,1,0-.8,2.9Z" transform="translate(0 -2.38)"/><path d="M281.15,65.46a6.36,6.36,0,0,0,.11-1.57,1.53,1.53,0,0,0-1.5-1.5,1.5,1.5,0,0,0-1.5,1.5c0,.17,0,.33,0,.5s-.06.48,0,.27a1.54,1.54,0,0,0,1.05,1.85,1.52,1.52,0,0,0,1.84-1.05Z" transform="translate(0 -2.38)"/><path d="M279.6,67.31a1.5,1.5,0,0,0,0-3,1.5,1.5,0,0,0,0,3Z" transform="translate(0 -2.38)"/><path d="M142.11,9a3.69,3.69,0,0,0-.23,1.26,1.16,1.16,0,0,0,.22.74.47.47,0,0,0,.39.19.6.6,0,0,0,.27-.06,1.76,1.76,0,0,0,.43-.31,3.21,3.21,0,0,0,.38-.46,2.56,2.56,0,0,0,.32-.64h.28a3.15,3.15,0,0,1-1,1.5,1.55,1.55,0,0,1-1,.46.75.75,0,0,1-.61-.33,1.91,1.91,0,0,1-.34-1.19,4.36,4.36,0,0,1,.1-.79,5.42,5.42,0,0,1,.23-.76,7.59,7.59,0,0,1,.46-.9l.53-.77.57-.6a1.86,1.86,0,0,1,.48-.31,1.26,1.26,0,0,1,.51-.11.79.79,0,0,1,.58.28,1,1,0,0,1,.26.71,1.55,1.55,0,0,1-.2.74,1.54,1.54,0,0,1-.42.54l-.57.37a3.93,3.93,0,0,1-.51.17A10.59,10.59,0,0,1,142.11,9Zm.11-.35a1.86,1.86,0,0,0,.69-.17,3.69,3.69,0,0,0,.67-.37,1.92,1.92,0,0,0,.37-.38,1.88,1.88,0,0,0,.32-.54,1.51,1.51,0,0,0,.11-.59.47.47,0,0,0-.11-.33.38.38,0,0,0-.26-.13.78.78,0,0,0-.44.22,4.33,4.33,0,0,0-.89,1.23A7,7,0,0,0,142.22,8.66Z" transform="translate(0 -2.38)"/><path d="M146.91,6.46a.56.56,0,0,0-.21,0,2.65,2.65,0,0,0-.47.29,3.82,3.82,0,0,0-.58.56l-.4.09a4.26,4.26,0,0,1,1.17-1.12,2.2,2.2,0,0,1,1-.4.35.35,0,0,1,.24.08.28.28,0,0,1,.08.2,3,3,0,0,1-.39,1.12l-.22.49c-.28.6-.57,1.16-.88,1.69-.1.18-.21.38-.33.62s-.12.23-.17.32a1.22,1.22,0,0,0-.21.53.09.09,0,0,0,0,.08.1.1,0,0,0,.09,0,.62.62,0,0,0,.23-.08,3.58,3.58,0,0,0,.61-.46,3.42,3.42,0,0,0,.63-.73h.3a5.59,5.59,0,0,1-.61.85,3.34,3.34,0,0,1-.92.77,1.52,1.52,0,0,1-.69.22.45.45,0,0,1-.33-.1.3.3,0,0,1-.11-.24,5.62,5.62,0,0,1,.77-2l1.1-2.08a3,3,0,0,0,.24-.5.5.5,0,0,0,0-.16A.41.41,0,0,0,146.91,6.46Zm.39-3.07a.6.6,0,0,1,.18-.43.59.59,0,0,1,.43-.19.58.58,0,0,1,.4.16.53.53,0,0,1,.17.38.72.72,0,0,1-.21.5.59.59,0,0,1-.45.13.5.5,0,0,1-.37-.15A.55.55,0,0,1,147.3,3.39Z" transform="translate(0 -2.38)"/><path d="M150.16,6.47a2.2,2.2,0,0,0-.63.53,4.48,4.48,0,0,0-.5.47,2.59,2.59,0,0,1-.24.24l-.22,0a5.15,5.15,0,0,1,.64-.77A4.66,4.66,0,0,1,150.28,6a.94.94,0,0,1,.49-.16A.3.3,0,0,1,151,6a.28.28,0,0,1,.09.2,1.06,1.06,0,0,1-.11.39s0,.11-.11.23c-.2.48-.6,1.3-1.19,2.44a8.63,8.63,0,0,0-.76,1.68v0a1.07,1.07,0,0,0,.48-.29,14,14,0,0,0,1.36-1.27l.31-.33a11.37,11.37,0,0,0,1.29-1.55,13.28,13.28,0,0,0,.88-1.61l.32,0a.3.3,0,0,1,.24.11q-.15.42-.54,1.41L152,10.56a1.49,1.49,0,0,0-.15.45h0s.11,0,.23-.15a4.89,4.89,0,0,0,.66-.73c.08-.11.16-.2.21-.26l.22,0a5.34,5.34,0,0,1-1.1,1.35,1.21,1.21,0,0,1-.68.4.74.74,0,0,1-.23,0,.36.36,0,0,1-.13-.25,3,3,0,0,1,.28-1l1-2.25a1.21,1.21,0,0,0,.05-.14l-.54.61a21.58,21.58,0,0,1-1.69,1.81,8.69,8.69,0,0,1-1.52,1.13.82.82,0,0,1-.39.11.24.24,0,0,1-.16-.07.29.29,0,0,1-.07-.19,1.11,1.11,0,0,1,0-.28,5.37,5.37,0,0,1,.39-.89l1.17-2.3.48-1a.59.59,0,0,0,.13-.3A.42.42,0,0,0,150.16,6.47Z" transform="translate(0 -2.38)"/><path d="M154.09,10.3c.23,0,.41.18.56.53a.83.83,0,0,0,.21.34.35.35,0,0,0,.25.09.77.77,0,0,0,.56-.27.86.86,0,0,0,.21-.63,3.47,3.47,0,0,0-.23-1,4.88,4.88,0,0,1-.33-1.49,2.41,2.41,0,0,1,.42-1.4,1.54,1.54,0,0,1,1.34-.61.84.84,0,0,1,.62.22.65.65,0,0,1,.24.51.45.45,0,0,1-.12.33.34.34,0,0,1-.25.13.7.7,0,0,1-.54-.29,1.8,1.8,0,0,0-.32-.34.59.59,0,0,0-.26,0,.42.42,0,0,0-.33.16A.57.57,0,0,0,156,7a5.26,5.26,0,0,0,.33,1.54,4.87,4.87,0,0,1,.32,1.54,1.41,1.41,0,0,1-.21.71,1.74,1.74,0,0,1-.67.61,2,2,0,0,1-.93.25,1.3,1.3,0,0,1-.86-.25.75.75,0,0,1-.29-.59.46.46,0,0,1,.12-.33A.42.42,0,0,1,154.09,10.3Z" transform="translate(0 -2.38)"/><path d="M162.26,9a3.69,3.69,0,0,0-.23,1.26,1.16,1.16,0,0,0,.22.74.47.47,0,0,0,.39.19.6.6,0,0,0,.27-.06,2,2,0,0,0,.43-.31,3.21,3.21,0,0,0,.38-.46,2.56,2.56,0,0,0,.32-.64h.28a3.22,3.22,0,0,1-1,1.5,1.55,1.55,0,0,1-1.05.46.75.75,0,0,1-.61-.33,1.91,1.91,0,0,1-.34-1.19,4.36,4.36,0,0,1,.1-.79,5.42,5.42,0,0,1,.23-.76,7.59,7.59,0,0,1,.46-.9l.53-.77.57-.6a1.86,1.86,0,0,1,.48-.31,1.25,1.25,0,0,1,.5-.11.79.79,0,0,1,.59.28,1,1,0,0,1,.26.71,1.55,1.55,0,0,1-.2.74,1.54,1.54,0,0,1-.42.54l-.57.37a3.93,3.93,0,0,1-.51.17C163.05,8.84,162.69,8.92,162.26,9Zm.11-.35a1.86,1.86,0,0,0,.69-.17,3.69,3.69,0,0,0,.67-.37,1.92,1.92,0,0,0,.37-.38,1.88,1.88,0,0,0,.32-.54,1.51,1.51,0,0,0,.11-.59.52.52,0,0,0-.11-.33.38.38,0,0,0-.26-.13.76.76,0,0,0-.44.22,4.33,4.33,0,0,0-.89,1.23A7,7,0,0,0,162.37,8.66Z" transform="translate(0 -2.38)"/><path d="M167,6.74s0-.07,0-.08a.08.08,0,0,0-.06,0c-.23,0-.6.37-1.1,1.12h-.25A5.3,5.3,0,0,1,166,7a3.23,3.23,0,0,1,.69-.73,3,3,0,0,1,.69-.44.51.51,0,0,1,.2,0h.1a.39.39,0,0,1,.12.25,1,1,0,0,1,0,.17s0,.14-.07.25c-.14.39-.24.67-.31.83l-.38,1c-.1.23-.18.48-.27.74a.77.77,0,0,0,.09-.13,21.68,21.68,0,0,1,1.38-1.78A5.62,5.62,0,0,1,169.48,6a1.27,1.27,0,0,1,.65-.21.45.45,0,0,1,.36.13.41.41,0,0,1,.13.32,1.94,1.94,0,0,1,0,.24,6.39,6.39,0,0,1-.22.72c-.11.31-.39,1-.86,2l-.68,1.58,0,.09a.28.28,0,0,0,.05.12c.25,0,.64-.46,1.15-1.21h.28a7.29,7.29,0,0,1-.7,1,3.13,3.13,0,0,1-.81.71,1,1,0,0,1-.51.14.37.37,0,0,1-.25-.07.19.19,0,0,1-.08-.15,3.19,3.19,0,0,1,.35-1.12l1-2.17.38-.91a2.83,2.83,0,0,0,.16-.41,1,1,0,0,0,0-.23.2.2,0,0,0,0-.14.14.14,0,0,0-.12-.06.45.45,0,0,0-.25.09,4.68,4.68,0,0,0-1.12,1,16.09,16.09,0,0,0-1.16,1.51,17.27,17.27,0,0,0-1.25,2.31.7.7,0,0,1-.2.28,1,1,0,0,1-.22,0l-.27,0a.23.23,0,0,1,0-.09.87.87,0,0,1,.07-.25c.1-.29.34-.92.74-1.87l.15-.37Z" transform="translate(0 -2.38)"/><path d="M172.9,6.46a.59.59,0,0,0-.21,0,2.65,2.65,0,0,0-.47.29,3.82,3.82,0,0,0-.58.56l-.4.09a4.26,4.26,0,0,1,1.17-1.12,2.24,2.24,0,0,1,1-.4.33.33,0,0,1,.24.08.28.28,0,0,1,.08.2,3,3,0,0,1-.39,1.12l-.22.49c-.28.6-.57,1.16-.88,1.69-.1.18-.21.38-.33.62s-.12.23-.17.32a1.22,1.22,0,0,0-.21.53.09.09,0,0,0,0,.08.1.1,0,0,0,.09,0,.62.62,0,0,0,.23-.08,3.23,3.23,0,0,0,.61-.46,3.42,3.42,0,0,0,.63-.73h.3a5.59,5.59,0,0,1-.61.85,3.34,3.34,0,0,1-.92.77,1.49,1.49,0,0,1-.68.22.46.46,0,0,1-.34-.1.3.3,0,0,1-.11-.24,5.62,5.62,0,0,1,.77-2l1.11-2.08a3.8,3.8,0,0,0,.23-.5.64.64,0,0,0,.05-.16A.54.54,0,0,0,172.9,6.46Zm.39-3.07a.57.57,0,0,1,.19-.43.56.56,0,0,1,.43-.19.57.57,0,0,1,.39.16.53.53,0,0,1,.17.38.72.72,0,0,1-.21.5.59.59,0,0,1-.45.13.5.5,0,0,1-.37-.15A.55.55,0,0,1,173.29,3.39Z" transform="translate(0 -2.38)"/><path d="M176.26,6.56l-.09,0a.77.77,0,0,0-.39.2,4.34,4.34,0,0,0-.81.79l-.14.16-.26,0a3.52,3.52,0,0,1,.43-.57,6.59,6.59,0,0,1,.68-.65A3.88,3.88,0,0,1,176.4,6a.83.83,0,0,1,.34-.07A.37.37,0,0,1,177,6a.28.28,0,0,1,.1.19,8.69,8.69,0,0,1-.8,1.8c-.15.3-.25.51-.3.62.25-.27.58-.63,1-1.09a11.74,11.74,0,0,1,1.12-1.12,2,2,0,0,1,.62-.37,1.93,1.93,0,0,1,.58-.13.47.47,0,0,1,.32.12.32.32,0,0,1,.09.24,5.45,5.45,0,0,1-.79,2.05l-.31.6-.05.11.7-.83.44-.48.31-.32a4.93,4.93,0,0,1,1.2-1.08,2.11,2.11,0,0,1,1-.37.34.34,0,0,1,.26.12.42.42,0,0,1,.12.32,1.09,1.09,0,0,1,0,.26,3.62,3.62,0,0,1-.22.61s-.2.39-.59,1.09q-.33.62-.51.9l-.35.54a2.32,2.32,0,0,1-.38.57,1.11,1.11,0,0,0-.39.64.08.08,0,0,0,0,.07.9.9,0,0,0,.26-.13,9.26,9.26,0,0,0,1.09-.87l.21.05a3.35,3.35,0,0,1-1.07,1,2.52,2.52,0,0,1-1.33.48.31.31,0,0,1-.25-.11.32.32,0,0,1,0-.14,2.55,2.55,0,0,1,.22-.37l1.13-1.84a19.68,19.68,0,0,0,1.09-1.89,3,3,0,0,0,.26-.7.16.16,0,0,0,0-.12.16.16,0,0,0-.12-.06.54.54,0,0,0-.25.09,4,4,0,0,0-.92.77c-.69.74-1.22,1.32-1.58,1.76a13.66,13.66,0,0,0-1.49,2.16,1.46,1.46,0,0,1-.32.43,1.46,1.46,0,0,1-.29,0,1.19,1.19,0,0,1-.36,0,1.19,1.19,0,0,1,.19-.4c.22-.35.57-1,1-1.85s.8-1.49,1-1.8a6.75,6.75,0,0,0,.29-.7,1,1,0,0,0,0-.16.32.32,0,0,0-.07-.2.12.12,0,0,0-.1-.06.74.74,0,0,0-.33.12,4.13,4.13,0,0,0-.88.77c-.65.7-1,1.1-1.11,1.21-.56.72-1,1.3-1.25,1.74,0,0-.1.18-.26.45s-.27.47-.32.58a1.83,1.83,0,0,1-.27.3l-.3,0a.57.57,0,0,1-.18,0l0-.1a.6.6,0,0,1,.11-.27c0-.05.4-.76,1.12-2.15l1.22-2.38A.49.49,0,0,0,176.26,6.56Z" transform="translate(0 -2.38)"/><path d="M186.69,7.82h-.28a4.66,4.66,0,0,1,1.06-1.72.89.89,0,0,1,.63-.32.44.44,0,0,1,.33.16.6.6,0,0,1,.15.44,3.23,3.23,0,0,1-.06.61,10,10,0,0,1-.33,1l-.62,1.56c-.18.43-.28.69-.32.79l-.09.27a1.74,1.74,0,0,0-.15.51.48.48,0,0,0,.05.18l.1,0,.46-.22a9.88,9.88,0,0,0,1.06-.87,11.73,11.73,0,0,0,1-1.18,2.83,2.83,0,0,0,.42-.81,1.9,1.9,0,0,0,.1-.61A6.74,6.74,0,0,0,190,6.47a.82.82,0,0,1,.17-.53.33.33,0,0,1,.26-.17.38.38,0,0,1,.28.18.84.84,0,0,1,.14.51,4.53,4.53,0,0,1-.5,1.92A7.86,7.86,0,0,1,189.25,10a6.94,6.94,0,0,1-1.62,1.41,1.66,1.66,0,0,1-.88.25.93.93,0,0,1-.33-.07.43.43,0,0,1-.18-.32,1.92,1.92,0,0,1,.17-.68c.49-1.21.93-2.35,1.31-3.4a1.57,1.57,0,0,0,.1-.5.37.37,0,0,0-.06-.21.14.14,0,0,0-.11-.06q-.15,0-.33.24A4.82,4.82,0,0,0,186.69,7.82Z" transform="translate(0 -2.38)"/><path d="M192.61,6.46a.56.56,0,0,0-.21,0,2.65,2.65,0,0,0-.47.29,3.82,3.82,0,0,0-.58.56l-.4.09a4.26,4.26,0,0,1,1.17-1.12,2.2,2.2,0,0,1,1-.4.35.35,0,0,1,.24.08.28.28,0,0,1,.08.2,3,3,0,0,1-.39,1.12c0,.06-.11.22-.22.49-.28.6-.57,1.16-.88,1.69-.1.18-.21.38-.33.62s-.12.23-.17.32a1.22,1.22,0,0,0-.21.53.09.09,0,0,0,0,.08.1.1,0,0,0,.09,0,.62.62,0,0,0,.23-.08,3.58,3.58,0,0,0,.61-.46,3.42,3.42,0,0,0,.63-.73h.3a5.59,5.59,0,0,1-.61.85,3.34,3.34,0,0,1-.92.77,1.52,1.52,0,0,1-.69.22.45.45,0,0,1-.33-.1.3.3,0,0,1-.11-.24,5.62,5.62,0,0,1,.77-2l1.1-2.08a3,3,0,0,0,.24-.5.5.5,0,0,0,0-.16A.41.41,0,0,0,192.61,6.46ZM193,3.39a.6.6,0,0,1,.18-.43.59.59,0,0,1,.43-.19.58.58,0,0,1,.4.16.53.53,0,0,1,.17.38.72.72,0,0,1-.21.5.59.59,0,0,1-.45.13.5.5,0,0,1-.37-.15A.55.55,0,0,1,193,3.39Z" transform="translate(0 -2.38)"/><path d="M195.63,6.74a.12.12,0,0,0,0-.08l-.06,0c-.24,0-.61.37-1.11,1.12h-.24a5.07,5.07,0,0,1,.46-.72,3.74,3.74,0,0,1,.69-.73,3.31,3.31,0,0,1,.7-.44.5.5,0,0,1,.19,0h.11a.39.39,0,0,1,.12.25,1,1,0,0,1,0,.17,1.71,1.71,0,0,1-.07.25l-.3.83-.39,1c-.09.23-.18.48-.27.74l.1-.13a19.58,19.58,0,0,1,1.37-1.78A5.61,5.61,0,0,1,198.1,6a1.22,1.22,0,0,1,.65-.21.48.48,0,0,1,.36.13.41.41,0,0,1,.13.32,1,1,0,0,1,0,.24,4.55,4.55,0,0,1-.21.72c-.11.31-.4,1-.86,2l-.69,1.58,0,.09a.24.24,0,0,0,0,.12c.26,0,.64-.46,1.15-1.21h.28a6.48,6.48,0,0,1-.7,1,3.1,3.1,0,0,1-.8.71,1,1,0,0,1-.51.14.36.36,0,0,1-.25-.07.17.17,0,0,1-.08-.15,3,3,0,0,1,.35-1.12l1-2.17.38-.91a2.83,2.83,0,0,0,.16-.41.93.93,0,0,0,0-.23.2.2,0,0,0,0-.14.16.16,0,0,0-.13-.06.51.51,0,0,0-.25.09,4.49,4.49,0,0,0-1.11,1,15,15,0,0,0-1.17,1.51,18.48,18.48,0,0,0-1.25,2.31.69.69,0,0,1-.19.28,1,1,0,0,1-.22,0l-.28,0a.18.18,0,0,1,0-.09,1.14,1.14,0,0,1,.06-.25c.1-.29.35-.92.74-1.87l.16-.37Z" transform="translate(0 -2.38)"/><path d="M203.11,7.1,203,7s-.06-.12-.13-.27a1,1,0,0,0-.14-.26.25.25,0,0,0-.17-.07.72.72,0,0,0-.51.29,6.12,6.12,0,0,0-1,1.78,5.72,5.72,0,0,0-.51,2.06.74.74,0,0,0,.09.43.22.22,0,0,0,.19.09.88.88,0,0,0,.59-.29,4.93,4.93,0,0,0,.87-1.06l.2,0h.11a3.73,3.73,0,0,1-.38.65,4.21,4.21,0,0,1-.95,1.05,1.45,1.45,0,0,1-.79.29.59.59,0,0,1-.49-.22,1.56,1.56,0,0,1-.22-.93,4.42,4.42,0,0,1,.26-1.33,6.09,6.09,0,0,1,.78-1.52,8.89,8.89,0,0,1,.83-1,3.12,3.12,0,0,1,.8-.54,1.5,1.5,0,0,1,.6-.16.7.7,0,0,1,.51.25.85.85,0,0,1,.22.59.47.47,0,0,1-.1.32.36.36,0,0,1-.25.11A.69.69,0,0,1,203.11,7.1Z" transform="translate(0 -2.38)"/><path d="M205.36,6.47a2.2,2.2,0,0,0-.64.53,5.56,5.56,0,0,0-.5.47,1.83,1.83,0,0,1-.23.24l-.22,0a4.09,4.09,0,0,1,.64-.77A4.46,4.46,0,0,1,205.48,6a.94.94,0,0,1,.49-.16.28.28,0,0,1,.22.1.3.3,0,0,1,.1.2.93.93,0,0,1-.12.39l-.1.23c-.21.48-.6,1.3-1.19,2.44a9.08,9.08,0,0,0-.77,1.68v0a1.07,1.07,0,0,0,.48-.29A13.72,13.72,0,0,0,206,9.38l.31-.33a11.49,11.49,0,0,0,1.3-1.55,15.31,15.31,0,0,0,.87-1.61l.32,0A.28.28,0,0,1,209,6q-.13.42-.54,1.41l-1.27,3.17A1.49,1.49,0,0,0,207,11h.05a.56.56,0,0,0,.22-.15,4.49,4.49,0,0,0,.67-.73,2.32,2.32,0,0,1,.21-.26l.22,0a5.41,5.41,0,0,1-1.11,1.35,1.18,1.18,0,0,1-.68.4.79.79,0,0,1-.23,0,.39.39,0,0,1-.12-.25,2.74,2.74,0,0,1,.28-1l1-2.25a.53.53,0,0,0,.06-.14c-.09.09-.27.3-.54.61a21.46,21.46,0,0,1-1.7,1.81,8.33,8.33,0,0,1-1.52,1.13.82.82,0,0,1-.39.11.26.26,0,0,1-.16-.07.29.29,0,0,1-.06-.19.79.79,0,0,1,.05-.28,5.37,5.37,0,0,1,.39-.89l1.17-2.3.47-1a.59.59,0,0,0,.13-.3A.31.31,0,0,0,205.36,6.47Z" transform="translate(0 -2.38)"/><path d="M211.71,2.65l0-.2c.56-.05,1-.07,1.27-.07h.3v.09l-.21.67s-.17.44-.5,1.26l-.92,2.41c-.17.45-.44,1.14-.82,2.09l-.23.59a5.73,5.73,0,0,1-.38.88,1.22,1.22,0,0,0-.23.54l0,.11a1,1,0,0,0,.55-.31,4.08,4.08,0,0,0,.88-1l.2,0h.07a3.27,3.27,0,0,1-.55.81,6.67,6.67,0,0,1-.64.63,3.43,3.43,0,0,1-.76.45,1.06,1.06,0,0,1-.45.11.24.24,0,0,1-.18-.06.24.24,0,0,1,0-.16,15.89,15.89,0,0,1,1.09-2.82c.22-.51.45-1.09.7-1.74.42-1.14.75-1.95,1-2.43a7.61,7.61,0,0,0,.5-1.31.44.44,0,0,0,0-.1.26.26,0,0,0-.1-.18A1.6,1.6,0,0,0,211.71,2.65Z" transform="translate(0 -2.38)"/><path d="M214.12,6.47a2.34,2.34,0,0,0-.64.53c-.17.15-.34.3-.5.47a1.83,1.83,0,0,1-.23.24l-.22,0a5.15,5.15,0,0,1,.64-.77A4.66,4.66,0,0,1,214.24,6a.94.94,0,0,1,.49-.16A.27.27,0,0,1,215,6a.26.26,0,0,1,.1.2.93.93,0,0,1-.12.39,1.91,1.91,0,0,1-.1.23c-.2.48-.6,1.3-1.19,2.44a8.63,8.63,0,0,0-.76,1.68v0a1.07,1.07,0,0,0,.48-.29,12.65,12.65,0,0,0,1.35-1.27s.15-.15.32-.33a11.37,11.37,0,0,0,1.29-1.55,13.28,13.28,0,0,0,.88-1.61l.32,0a.3.3,0,0,1,.24.11q-.15.42-.54,1.41l-1.28,3.17a2.37,2.37,0,0,0-.15.45h.05a.64.64,0,0,0,.23-.15,4.89,4.89,0,0,0,.66-.73,2.32,2.32,0,0,1,.21-.26l.22,0a5.41,5.41,0,0,1-1.11,1.35,1.16,1.16,0,0,1-.67.4.85.85,0,0,1-.24,0,.39.39,0,0,1-.12-.25,3,3,0,0,1,.28-1l1-2.25a1.21,1.21,0,0,0,0-.14l-.54.61a23.39,23.39,0,0,1-1.69,1.81,8.69,8.69,0,0,1-1.52,1.13.82.82,0,0,1-.39.11.22.22,0,0,1-.16-.07.25.25,0,0,1-.07-.19,1.11,1.11,0,0,1,.05-.28,5.37,5.37,0,0,1,.39-.89l1.17-2.3.48-1a.7.7,0,0,0,.13-.3A.42.42,0,0,0,214.12,6.47Z" transform="translate(0 -2.38)"/><path d="M220.07,6.56l-.09,0a.77.77,0,0,0-.39.2,4.34,4.34,0,0,0-.81.79l-.14.16-.26,0a3,3,0,0,1,.43-.57,6.59,6.59,0,0,1,.68-.65,3.58,3.58,0,0,1,.72-.44.83.83,0,0,1,.34-.07.37.37,0,0,1,.25.09.28.28,0,0,1,.1.19,8.69,8.69,0,0,1-.8,1.8c-.15.3-.25.51-.3.62.25-.27.58-.63,1-1.09a11.74,11.74,0,0,1,1.12-1.12,2,2,0,0,1,.62-.37,1.87,1.87,0,0,1,.58-.13.47.47,0,0,1,.32.12.32.32,0,0,1,.09.24,5.45,5.45,0,0,1-.79,2.05l-.32.6,0,.11.7-.83.44-.48.31-.32A4.93,4.93,0,0,1,225,6.33,2.11,2.11,0,0,1,226,6a.34.34,0,0,1,.26.12.42.42,0,0,1,.12.32,1.09,1.09,0,0,1,0,.26,3.62,3.62,0,0,1-.22.61s-.2.39-.59,1.09c-.22.41-.4.71-.51.9l-.35.54a2.32,2.32,0,0,1-.38.57,1.11,1.11,0,0,0-.39.64.08.08,0,0,0,0,.07.9.9,0,0,0,.26-.13,9.26,9.26,0,0,0,1.09-.87l.21.05a3.35,3.35,0,0,1-1.07,1,2.52,2.52,0,0,1-1.33.48.31.31,0,0,1-.25-.11.32.32,0,0,1,0-.14,2.55,2.55,0,0,1,.22-.37l1.13-1.84a19.68,19.68,0,0,0,1.09-1.89,3,3,0,0,0,.26-.7.16.16,0,0,0,0-.12.17.17,0,0,0-.12-.06.54.54,0,0,0-.25.09,4,4,0,0,0-.92.77c-.69.74-1.22,1.32-1.59,1.76a14.29,14.29,0,0,0-1.48,2.16,1.46,1.46,0,0,1-.32.43,1.46,1.46,0,0,1-.29,0,1.19,1.19,0,0,1-.36,0,1.19,1.19,0,0,1,.19-.4c.22-.35.57-1,1.05-1.85s.8-1.49.95-1.8a6.75,6.75,0,0,0,.29-.7,1,1,0,0,0,0-.16.32.32,0,0,0-.07-.2.13.13,0,0,0-.11-.06.75.75,0,0,0-.32.12,4.13,4.13,0,0,0-.88.77c-.65.7-1,1.1-1.11,1.21-.56.72-1,1.3-1.25,1.74,0,0-.1.18-.26.45s-.27.47-.32.58a1.83,1.83,0,0,1-.27.3l-.3,0a.57.57,0,0,1-.18,0l0-.1a.6.6,0,0,1,.11-.27c0-.05.4-.76,1.12-2.15l1.22-2.38A.49.49,0,0,0,220.07,6.56Z" transform="translate(0 -2.38)"/><path d="M230.89,9a3.46,3.46,0,0,0-.23,1.26,1.16,1.16,0,0,0,.22.74.44.44,0,0,0,.39.19.53.53,0,0,0,.26-.06,1.82,1.82,0,0,0,.44-.31,3.21,3.21,0,0,0,.38-.46,2.56,2.56,0,0,0,.32-.64H233a3.22,3.22,0,0,1-1,1.5,1.55,1.55,0,0,1-1.05.46.75.75,0,0,1-.61-.33,1.85,1.85,0,0,1-.34-1.19,3.62,3.62,0,0,1,.1-.79,4.35,4.35,0,0,1,.23-.76,7.59,7.59,0,0,1,.46-.9l.52-.77.58-.6a1.86,1.86,0,0,1,.48-.31,1.25,1.25,0,0,1,.5-.11.79.79,0,0,1,.59.28,1,1,0,0,1,.25.71,1.54,1.54,0,0,1-.19.74,1.54,1.54,0,0,1-.42.54l-.57.37a3.93,3.93,0,0,1-.51.17C231.68,8.84,231.32,8.92,230.89,9Zm.11-.35a1.78,1.78,0,0,0,.68-.17,3.38,3.38,0,0,0,.67-.37,1.92,1.92,0,0,0,.38-.38,1.88,1.88,0,0,0,.32-.54,1.51,1.51,0,0,0,.11-.59.52.52,0,0,0-.11-.33.38.38,0,0,0-.26-.13.76.76,0,0,0-.44.22,4.33,4.33,0,0,0-.89,1.23A6.12,6.12,0,0,0,231,8.66Z" transform="translate(0 -2.38)"/><path d="M234,10.3c.23,0,.41.18.56.53a.83.83,0,0,0,.21.34.35.35,0,0,0,.25.09.77.77,0,0,0,.56-.27.86.86,0,0,0,.21-.63,3.47,3.47,0,0,0-.23-1,4.88,4.88,0,0,1-.33-1.49,2.41,2.41,0,0,1,.42-1.4A1.53,1.53,0,0,1,237,5.87a.84.84,0,0,1,.62.22.65.65,0,0,1,.24.51.45.45,0,0,1-.12.33.34.34,0,0,1-.25.13.7.7,0,0,1-.54-.29,1.8,1.8,0,0,0-.32-.34.59.59,0,0,0-.26,0,.45.45,0,0,0-.34.16.61.61,0,0,0-.14.4,5.26,5.26,0,0,0,.33,1.54,4.87,4.87,0,0,1,.32,1.54,1.41,1.41,0,0,1-.21.71,1.74,1.74,0,0,1-.67.61,2,2,0,0,1-.93.25,1.3,1.3,0,0,1-.86-.25.75.75,0,0,1-.29-.59.46.46,0,0,1,.12-.33A.42.42,0,0,1,234,10.3Z" transform="translate(0 -2.38)"/><path d="M239.65,6.5h-1.14a1,1,0,0,1,.12-.35c.67,0,1.06,0,1.18,0,.09-.22.17-.39.23-.52.14-.3.27-.65.42-1.06a1.94,1.94,0,0,1,.15-.36l.34,0a1.12,1.12,0,0,1,.32,0v.1a11.08,11.08,0,0,1-.6,1.51,3,3,0,0,0-.12.32l.24,0h1a.7.7,0,0,1-.09.37,7,7,0,0,1-.7,0h-.28a1.49,1.49,0,0,0-.4.07l-1.11,2.67c-.13.26-.34.74-.64,1.47a.16.16,0,0,0,0,.09h.09a.76.76,0,0,0,.46-.23,8.53,8.53,0,0,0,1.12-1.19.72.72,0,0,1,.2.14,14,14,0,0,1-.95,1.09,5.53,5.53,0,0,1-.69.55,3.38,3.38,0,0,1-.51.31.7.7,0,0,1-.31.07.36.36,0,0,1-.25-.08.25.25,0,0,1-.08-.2,3.28,3.28,0,0,1,.33-.93l.28-.63,1-2.43C239.47,7,239.57,6.74,239.65,6.5Z" transform="translate(0 -2.38)"/><path d="M246.08,6.46a2.17,2.17,0,0,0-.43.38l-.62.82h-.28a4.18,4.18,0,0,1,.63-.91,3.65,3.65,0,0,1,.81-.74,1.28,1.28,0,0,1,.49-.15.53.53,0,0,1,.23.13.29.29,0,0,1,.07.2.91.91,0,0,1,0,.23,10.87,10.87,0,0,1-.3,1.07c-.15.46-.28.83-.4,1.1l-.35.84,0,.12.39-.73a13.12,13.12,0,0,1,1.61-2.6,1.15,1.15,0,0,1,.84-.36.78.78,0,0,1,.52.22.6.6,0,0,1,.17.45.79.79,0,0,1-.19.54.47.47,0,0,1-.39.16.38.38,0,0,1-.3-.1,1,1,0,0,1-.11-.49c-.06-.12-.12-.18-.19-.18a.37.37,0,0,0-.24.11,10.78,10.78,0,0,0-1.24,1.88,21,21,0,0,0-1.14,2.21,5.11,5.11,0,0,1-.37.85.3.3,0,0,1-.28.12.37.37,0,0,1-.26-.07.21.21,0,0,1-.08-.17,1,1,0,0,1,.07-.31c.2-.48.51-1.36.94-2.65L246.1,7c0-.13.06-.21.07-.25l0-.1S246.17,6.53,246.08,6.46Z" transform="translate(0 -2.38)"/><path d="M253.21,6.52l.09-.18a.63.63,0,0,1,.16-.27l.28,0a.64.64,0,0,1,.23,0l0,.08a.3.3,0,0,1,0,.13,2.52,2.52,0,0,0-.08.25l-.06.14-.45,1.23c-.19.55-.36,1-.5,1.31a9.48,9.48,0,0,0-.38,1,3.84,3.84,0,0,1-.28.72l0,.07s0,.06.07.1a2.39,2.39,0,0,0,.49-.36l.61-.64c0-.06.09-.11.13-.16a.93.93,0,0,1,.14.14,6.52,6.52,0,0,1-.61.72,3.17,3.17,0,0,1-.78.65,1.06,1.06,0,0,1-.51.15.34.34,0,0,1-.22-.07.23.23,0,0,1-.08-.17,1.51,1.51,0,0,1,.07-.36,5.37,5.37,0,0,1,.24-.59c0-.1.11-.25.18-.45s.14-.33.28-.64a3.74,3.74,0,0,0-.33.38,9.52,9.52,0,0,1-1.3,1.32,5,5,0,0,1-.82.46,2.21,2.21,0,0,1-.56.12,1.09,1.09,0,0,1-.37-.06.67.67,0,0,1-.27-.28,1,1,0,0,1-.08-.44,2.85,2.85,0,0,1,.2-1,5.24,5.24,0,0,1,.67-1.35,6.39,6.39,0,0,1,1.17-1.2,4.33,4.33,0,0,1,1.06-.65,2.91,2.91,0,0,1,1.1-.28,1.36,1.36,0,0,1,.29,0ZM249.87,11a1.34,1.34,0,0,0,.3-.12l.55-.37,1-1a7.07,7.07,0,0,0,.56-.73c.05-.08.17-.29.36-.64l.17-.47a3.5,3.5,0,0,0,.1-.48.5.5,0,0,0-.16-.36.46.46,0,0,0-.34-.11,1.17,1.17,0,0,0-.48.09,3.55,3.55,0,0,0-.8.52,6,6,0,0,0-1,1.11,6.31,6.31,0,0,0-.64,1.12,2.53,2.53,0,0,0-.26.93.59.59,0,0,0,.1.38.34.34,0,0,0,.27.12Z" transform="translate(0 -2.38)"/><path d="M256,6.5h-1.14a1,1,0,0,1,.12-.35c.67,0,1.06,0,1.18,0,.09-.22.17-.39.23-.52.14-.3.27-.65.42-1.06a1.94,1.94,0,0,1,.15-.36l.34,0a1.12,1.12,0,0,1,.32,0v.1A11.08,11.08,0,0,1,257,5.8a3,3,0,0,0-.12.32l.23,0h1a.7.7,0,0,1-.09.37,7,7,0,0,1-.7,0h-.28a1.49,1.49,0,0,0-.4.07L255.6,9.29c-.13.26-.34.74-.64,1.47a.16.16,0,0,0,0,.09h.09a.76.76,0,0,0,.46-.23,8.53,8.53,0,0,0,1.12-1.19.9.9,0,0,1,.2.14c-.45.55-.77.91-1,1.09a5.53,5.53,0,0,1-.69.55,3.38,3.38,0,0,1-.51.31.7.7,0,0,1-.31.07.36.36,0,0,1-.25-.08.25.25,0,0,1-.08-.2,3.28,3.28,0,0,1,.33-.93l.28-.63,1-2.43C255.83,7,255.93,6.74,256,6.5Z" transform="translate(0 -2.38)"/><path d="M259.35,6.46a.56.56,0,0,0-.21,0,2.82,2.82,0,0,0-.48.29,5.05,5.05,0,0,0-.58.56l-.39.09a4.26,4.26,0,0,1,1.17-1.12,2.2,2.2,0,0,1,1-.4.32.32,0,0,1,.23.08.24.24,0,0,1,.08.2,2.92,2.92,0,0,1-.38,1.12c0,.06-.11.22-.23.49a17.82,17.82,0,0,1-.87,1.69c-.1.18-.21.38-.33.62s-.12.23-.17.32A1.22,1.22,0,0,0,258,11a.09.09,0,0,0,0,.08.1.1,0,0,0,.09,0,.69.69,0,0,0,.23-.08,3.58,3.58,0,0,0,.61-.46,3.42,3.42,0,0,0,.63-.73h.3a5.59,5.59,0,0,1-.61.85,3.34,3.34,0,0,1-.92.77,1.52,1.52,0,0,1-.69.22.45.45,0,0,1-.33-.1.28.28,0,0,1-.11-.24,5.62,5.62,0,0,1,.77-2l1.1-2.08a3,3,0,0,0,.24-.5.5.5,0,0,0,0-.16A.41.41,0,0,0,259.35,6.46Zm.39-3.07a.6.6,0,0,1,.18-.43.59.59,0,0,1,.43-.19.58.58,0,0,1,.4.16.52.52,0,0,1,.16.38.71.71,0,0,1-.2.5.59.59,0,0,1-.45.13.5.5,0,0,1-.37-.15A.55.55,0,0,1,259.74,3.39Z" transform="translate(0 -2.38)"/><path d="M264.87,7.59a4.46,4.46,0,0,1-1,2.82,2.64,2.64,0,0,1-2,1.23,1.1,1.1,0,0,1-.89-.42,2,2,0,0,1-.34-1.29,4.43,4.43,0,0,1,.26-1.37,4.14,4.14,0,0,1,.69-1.29l.22-.28a3.23,3.23,0,0,1,.86-.79,1.87,1.87,0,0,1,1-.33,1,1,0,0,1,.81.4A2.1,2.1,0,0,1,264.87,7.59Zm-3.56,3.11a.66.66,0,0,0,.15.47.65.65,0,0,0,.47.15.94.94,0,0,0,.65-.32,6,6,0,0,0,1.18-2,6.32,6.32,0,0,0,.59-2.21.67.67,0,0,0-.15-.46.4.4,0,0,0-.32-.16,1.18,1.18,0,0,0-.84.47,6.62,6.62,0,0,0-1.29,2.18A5.54,5.54,0,0,0,261.31,10.7Z" transform="translate(0 -2.38)"/><path d="M269.73,9a3.69,3.69,0,0,0-.23,1.26,1.23,1.23,0,0,0,.22.74.47.47,0,0,0,.39.19.6.6,0,0,0,.27-.06,1.76,1.76,0,0,0,.43-.31,3.21,3.21,0,0,0,.38-.46,2.56,2.56,0,0,0,.32-.64h.28a3.15,3.15,0,0,1-1,1.5,1.53,1.53,0,0,1-1,.46.75.75,0,0,1-.62-.33,1.91,1.91,0,0,1-.33-1.19,3.62,3.62,0,0,1,.1-.79,4.41,4.41,0,0,1,.22-.76,7.59,7.59,0,0,1,.46-.9L270.1,7l.57-.6a1.86,1.86,0,0,1,.48-.31,1.3,1.3,0,0,1,.51-.11.77.77,0,0,1,.58.28,1,1,0,0,1,.26.71,1.55,1.55,0,0,1-.2.74,1.54,1.54,0,0,1-.42.54l-.57.37a3.93,3.93,0,0,1-.51.17A10.59,10.59,0,0,1,269.73,9Zm.12-.35a1.86,1.86,0,0,0,.68-.17,3.69,3.69,0,0,0,.67-.37,1.92,1.92,0,0,0,.37-.38,1.91,1.91,0,0,0,.33-.54,1.71,1.71,0,0,0,.11-.59.48.48,0,0,0-.12-.33.38.38,0,0,0-.26-.13.78.78,0,0,0-.44.22,4.33,4.33,0,0,0-.89,1.23A5.92,5.92,0,0,0,269.85,8.66Z" transform="translate(0 -2.38)"/><path d="M274.56,6.5h-1.14a1.16,1.16,0,0,1,.11-.35c.67,0,1.06,0,1.19,0,.09-.22.16-.39.22-.52a10.65,10.65,0,0,0,.42-1.06,3,3,0,0,1,.15-.36l.35,0a1.06,1.06,0,0,1,.31,0v.1a11.08,11.08,0,0,1-.6,1.51,3,3,0,0,0-.11.32l.23,0h1a.81.81,0,0,1-.08.37c-.18,0-.42,0-.71,0h-.28a1.49,1.49,0,0,0-.4.07l-1.11,2.67c-.12.26-.34.74-.64,1.47a.31.31,0,0,0,0,.09h.09a.73.73,0,0,0,.46-.23,8,8,0,0,0,1.12-1.19.72.72,0,0,1,.2.14c-.45.55-.76.91-.94,1.09a6.6,6.6,0,0,1-.7.55,3.38,3.38,0,0,1-.51.31.67.67,0,0,1-.31.07.37.37,0,0,1-.25-.08.25.25,0,0,1-.08-.2,3.28,3.28,0,0,1,.33-.93l.29-.63,1-2.43C274.37,7,274.48,6.74,274.56,6.5Z" transform="translate(0 -2.38)"/><path d="M283.7,7.59a4.46,4.46,0,0,1-1,2.82,2.62,2.62,0,0,1-2,1.23,1.08,1.08,0,0,1-.89-.42,2,2,0,0,1-.35-1.29,4.19,4.19,0,0,1,.27-1.37,4.14,4.14,0,0,1,.69-1.29l.22-.28a3.23,3.23,0,0,1,.86-.79,1.82,1.82,0,0,1,1-.33,1,1,0,0,1,.81.4A2.1,2.1,0,0,1,283.7,7.59Zm-3.55,3.11a.66.66,0,0,0,.15.47.62.62,0,0,0,.47.15,1,1,0,0,0,.65-.32,6.13,6.13,0,0,0,1.18-2,6.26,6.26,0,0,0,.58-2.21.67.67,0,0,0-.14-.46.41.41,0,0,0-.33-.16,1.18,1.18,0,0,0-.84.47,6.78,6.78,0,0,0-1.28,2.18A5.54,5.54,0,0,0,280.15,10.7Z" transform="translate(0 -2.38)"/><path d="M285.79,6.46a2.13,2.13,0,0,0-.42.38s-.24.31-.62.82h-.28a4.18,4.18,0,0,1,.63-.91,3.65,3.65,0,0,1,.81-.74,1.28,1.28,0,0,1,.49-.15.53.53,0,0,1,.23.13.29.29,0,0,1,.07.2.91.91,0,0,1,0,.23,10.87,10.87,0,0,1-.3,1.07c-.15.46-.28.83-.4,1.1l-.35.84,0,.12.39-.73a13.79,13.79,0,0,1,1.6-2.6,1.19,1.19,0,0,1,.85-.36.76.76,0,0,1,.51.22.61.61,0,0,1,.18.45.76.76,0,0,1-.2.54.47.47,0,0,1-.39.16.34.34,0,0,1-.29-.1.86.86,0,0,1-.11-.49c-.06-.12-.12-.18-.2-.18a.37.37,0,0,0-.23.11,10.78,10.78,0,0,0-1.24,1.88,17.57,17.57,0,0,0-1.14,2.21,6.14,6.14,0,0,1-.37.85.31.31,0,0,1-.28.12.37.37,0,0,1-.26-.07.21.21,0,0,1-.08-.17.8.8,0,0,1,.07-.31c.2-.48.51-1.36.94-2.65L285.82,7c0-.13.06-.21.07-.25l0-.1S285.88,6.53,285.79,6.46Z" transform="translate(0 -2.38)"/><path d="M292.93,6.52c0-.07.07-.14.09-.18a.63.63,0,0,1,.16-.27l.28,0a.64.64,0,0,1,.23,0l0,.08a.3.3,0,0,1,0,.13l-.09.25-.05.14-.45,1.23c-.19.55-.36,1-.5,1.31a9.48,9.48,0,0,0-.38,1,3.84,3.84,0,0,1-.28.72l0,.07s0,.06.07.1a2.7,2.7,0,0,0,.49-.36c.34-.35.54-.56.6-.64l.14-.16a.93.93,0,0,1,.14.14,5.82,5.82,0,0,1-.62.72,2.84,2.84,0,0,1-.78.65,1,1,0,0,1-.5.15.39.39,0,0,1-.23-.07.22.22,0,0,1-.07-.17,1.51,1.51,0,0,1,.07-.36,5.37,5.37,0,0,1,.24-.59l.18-.45.28-.64a3.74,3.74,0,0,0-.33.38,9.07,9.07,0,0,1-1.31,1.32,4.32,4.32,0,0,1-.81.46,2.21,2.21,0,0,1-.56.12,1.09,1.09,0,0,1-.37-.06.67.67,0,0,1-.27-.28.84.84,0,0,1-.08-.44,2.82,2.82,0,0,1,.19-1A5.21,5.21,0,0,1,289,8.54a6.1,6.1,0,0,1,1.17-1.2,4.49,4.49,0,0,1,1.05-.65,3,3,0,0,1,1.11-.28,1.36,1.36,0,0,1,.29,0ZM289.59,11a1.34,1.34,0,0,0,.3-.12l.55-.37,1-1a7.07,7.07,0,0,0,.56-.73c0-.08.17-.29.36-.64l.17-.47a3.5,3.5,0,0,0,.1-.48.5.5,0,0,0-.16-.36.48.48,0,0,0-.34-.11,1.14,1.14,0,0,0-.48.09,3.85,3.85,0,0,0-.81.52,6.37,6.37,0,0,0-.95,1.11,6.31,6.31,0,0,0-.64,1.12,2.53,2.53,0,0,0-.26.93.59.59,0,0,0,.1.38.34.34,0,0,0,.27.12Z" transform="translate(0 -2.38)"/><path d="M295.73,6.5h-1.14a1,1,0,0,1,.12-.35c.66,0,1.06,0,1.18,0,.09-.22.17-.39.23-.52.13-.3.27-.65.42-1.06a3,3,0,0,1,.14-.36l.35,0a1.12,1.12,0,0,1,.32,0v.1a11.08,11.08,0,0,1-.6,1.51,1.75,1.75,0,0,0-.12.32l.23,0h1a.7.7,0,0,1-.08.37c-.18,0-.42,0-.71,0h-.27a1.39,1.39,0,0,0-.4.07l-1.11,2.67c-.13.26-.34.74-.64,1.47a.16.16,0,0,0,0,.09h.09a.78.78,0,0,0,.46-.23,8.53,8.53,0,0,0,1.12-1.19.9.9,0,0,1,.2.14c-.45.55-.77.91-.95,1.09a5.53,5.53,0,0,1-.69.55,3.38,3.38,0,0,1-.51.31.7.7,0,0,1-.31.07.34.34,0,0,1-.25-.08.22.22,0,0,1-.08-.2,3.28,3.28,0,0,1,.33-.93l.28-.63,1-2.43C295.55,7,295.65,6.74,295.73,6.5Z" transform="translate(0 -2.38)"/><path d="M299.07,6.46a.65.65,0,0,0-.22,0,3.09,3.09,0,0,0-.47.29,4.35,4.35,0,0,0-.58.56l-.4.09a4.55,4.55,0,0,1,1.17-1.12,2.23,2.23,0,0,1,1-.4.32.32,0,0,1,.23.08.24.24,0,0,1,.08.2,3.11,3.11,0,0,1-.38,1.12c0,.06-.11.22-.23.49a17.82,17.82,0,0,1-.87,1.69c-.1.18-.21.38-.33.62l-.17.32a1.22,1.22,0,0,0-.21.53.11.11,0,0,0,0,.08.13.13,0,0,0,.1,0,.59.59,0,0,0,.22-.08,3.24,3.24,0,0,0,.62-.46,3.68,3.68,0,0,0,.62-.73h.31a5.75,5.75,0,0,1-.62.85,3.3,3.3,0,0,1-.91.77,1.52,1.52,0,0,1-.69.22.49.49,0,0,1-.34-.1.3.3,0,0,1-.1-.24,5.42,5.42,0,0,1,.77-2l1.1-2.08c.11-.21.19-.38.24-.5a.5.5,0,0,0,0-.16A.41.41,0,0,0,299.07,6.46Zm.39-3.07a.6.6,0,0,1,.18-.43.58.58,0,0,1,.83,0,.52.52,0,0,1,.16.38.76.76,0,0,1-.2.5.63.63,0,0,1-.46.13.49.49,0,0,1-.36-.15A.55.55,0,0,1,299.46,3.39Z" transform="translate(0 -2.38)"/><path d="M304.59,7.59a4.46,4.46,0,0,1-1,2.82,2.64,2.64,0,0,1-2,1.23,1.09,1.09,0,0,1-.89-.42,2,2,0,0,1-.34-1.29,4.15,4.15,0,0,1,.26-1.37,4.14,4.14,0,0,1,.69-1.29l.22-.28a3.23,3.23,0,0,1,.86-.79,1.84,1.84,0,0,1,1-.33,1,1,0,0,1,.81.4A2.1,2.1,0,0,1,304.59,7.59ZM301,10.7a.66.66,0,0,0,.15.47.63.63,0,0,0,.47.15,1,1,0,0,0,.65-.32,6.13,6.13,0,0,0,1.18-2,6.32,6.32,0,0,0,.59-2.21.67.67,0,0,0-.15-.46.4.4,0,0,0-.32-.16,1.21,1.21,0,0,0-.85.47,6.78,6.78,0,0,0-1.28,2.18A5.54,5.54,0,0,0,301,10.7Z" transform="translate(0 -2.38)"/></g><g id="text"><path d="M136.85,128.22a6.33,6.33,0,0,1,1.67-.86,10.89,10.89,0,0,1,2.25-.41h1a6,6,0,0,1,3.67,1.32l0-.42,0-1.18.07-1.88a9.23,9.23,0,0,0-.46-3.76,1,1,0,0,0-.92-.51,2.73,2.73,0,0,1-1.06-.23v-.84a3.23,3.23,0,0,1,.86-.12A11.3,11.3,0,0,0,146,119l.59-.12,1.74-.41a4.42,4.42,0,0,1,.65-.12,1.23,1.23,0,0,1,.28,0,1.81,1.81,0,0,1,.11.54l0,.27v.31c0,.33,0,1.2.06,2.62v2.34l.05,1.83,0,1.07c0,.47,0,1.21,0,2.21a3,3,0,0,0,0,.44v.65a3.82,3.82,0,0,0,0,.43c0,.17,0,.42.05.75v1l0,.37c0,.34,0,.81,0,1.4s0,1.16,0,1.66c0,.2,0,.38,0,.54v1.32c0,.42,0,.93,0,1.51a4.26,4.26,0,0,0,1.54.28,3.4,3.4,0,0,1,.69.09,1.43,1.43,0,0,1,.09.39,1.34,1.34,0,0,1-.13.47,11.57,11.57,0,0,1-1.51.27,10.55,10.55,0,0,0-3.43.84,1.65,1.65,0,0,1-.68.28l-.44,0c0-.22,0-.35,0-.41a11.67,11.67,0,0,0-.06-1.54l-.65.37a9,9,0,0,1-2.14,1,7.88,7.88,0,0,1-2.22.28A6.52,6.52,0,0,1,137,141a6.76,6.76,0,0,1-2.7-3,9.37,9.37,0,0,1-.74-3.78A7.46,7.46,0,0,1,136.85,128.22Zm5.42,11.62.63,0a3.62,3.62,0,0,0,1.24-.24,7.39,7.39,0,0,0,1.4-.71c0-.38,0-.62,0-.72,0-3.71-.06-5.95-.16-6.71a3.67,3.67,0,0,0-1.16-2.36,3.4,3.4,0,0,0-2.31-.82,3.79,3.79,0,0,0-1.46.28,2.77,2.77,0,0,0-1.14.8,5.42,5.42,0,0,0-1,1.76,8,8,0,0,0-.46,2.56,6.92,6.92,0,0,0,1.21,4.38A4.6,4.6,0,0,0,142.27,139.84Z" transform="translate(0 -2.38)"/><path d="M152.09,132.37a8.4,8.4,0,0,1,.81-2,9.18,9.18,0,0,1,2.1-2.25,6.76,6.76,0,0,1,2-1.07,7.29,7.29,0,0,1,1.88-.34,11.32,11.32,0,0,1,2.67.26,5,5,0,0,1,1.7.73,8,8,0,0,1,1.59,1.39,5.8,5.8,0,0,1,1,1.65,6.66,6.66,0,0,1,.41,2.3l-2,0c-.54,0-1.72,0-3.55-.15-.68-.06-1.15-.09-1.4-.09l-1.9,0h-1.51a2.27,2.27,0,0,0,0,.42,9.16,9.16,0,0,0,.23,2,6,6,0,0,0,.69,1.82,5.08,5.08,0,0,0,1.13,1.35,4.66,4.66,0,0,0,1.4.81l1,.33a13.56,13.56,0,0,0,1.81-.08,7,7,0,0,0,3-1.38c.42.31.77.58,1,.83a10,10,0,0,1-3.21,2.47,8.73,8.73,0,0,1-3.71.76,8.85,8.85,0,0,1-2.27-.24,6.9,6.9,0,0,1-2.13-1,6.27,6.27,0,0,1-1.63-1.62,7.23,7.23,0,0,1-1-2,7,7,0,0,1-.44-2.14A14.58,14.58,0,0,1,152.09,132.37Zm10.22-.74a5.07,5.07,0,0,0-.39-1.89,3.06,3.06,0,0,0-1.14-1.41,2.91,2.91,0,0,0-1.57-.5,2.83,2.83,0,0,0-2.12,1,4.5,4.5,0,0,0-1.08,2.81l4,0c.26,0,.62,0,1.09-.06s.58,0,.72,0Z" transform="translate(0 -2.38)"/><path d="M166.07,140.92a2.13,2.13,0,0,1,1-.34c.81-.1,1.27-.22,1.39-.37a3.29,3.29,0,0,0,.36-1.86v-5l0-1.17v-3.55l0-4.06v-.7a7.37,7.37,0,0,0-.23-2.13,2.63,2.63,0,0,0-1.33-.36,3.38,3.38,0,0,1-.8-.09c0-.3,0-.51,0-.65a1.91,1.91,0,0,1,0-.32,11.87,11.87,0,0,0,2.88-.71,9.61,9.61,0,0,0,2.28-1.13l.49,0a4,4,0,0,1,.45,0q.1,6.08.11,8.32a10.26,10.26,0,0,1,0,1.07V128l0,.33v7.78l0,2.57v.42a1.74,1.74,0,0,0,.25,1.07,1.36,1.36,0,0,0,.89.28c.24,0,.73.08,1.45.18a2.57,2.57,0,0,1,.09.59c0,.12,0,.28,0,.5l-1.39-.07c-.77,0-1.74-.08-2.92-.08h-.65c-.66,0-1.63,0-2.9.16h-1.28Z" transform="translate(0 -2.38)"/><path d="M182.89,136.78a4.59,4.59,0,0,1,.77-.11l.37,0,.16.18a18.53,18.53,0,0,0,1.25,2,7.19,7.19,0,0,0,1.21,1.16,5.32,5.32,0,0,0,1.27.58,3.57,3.57,0,0,0,1.23.21,2.77,2.77,0,0,0,1.9-.71,2.1,2.1,0,0,0,.79-1.54,1.55,1.55,0,0,0-.3-1,3.08,3.08,0,0,0-1.2-.78,17.5,17.5,0,0,0-2.2-.63c-1.18-.3-1.89-.49-2.14-.58a5,5,0,0,1-1.47-.88,4,4,0,0,1-1-1.27,4.22,4.22,0,0,1-.46-1.72,5.3,5.3,0,0,1,.39-2.19,4.43,4.43,0,0,1,2.63-2.4,5.93,5.93,0,0,1,2.2-.4,16,16,0,0,1,2.94.23,7.59,7.59,0,0,1,2.14.68q.1.41.3,1.86c.13,1,.19,1.55.19,1.73a.63.63,0,0,1,0,.26,2.75,2.75,0,0,1-.75.14l-.51,0c-.11-.17-.25-.41-.43-.74a6.45,6.45,0,0,0-1.73-2.21,3.37,3.37,0,0,0-2-.64,3,3,0,0,0-2,.7,1.74,1.74,0,0,0-.6,1.39,1.7,1.7,0,0,0,.62,1.18,4.24,4.24,0,0,0,2.14.93,17.61,17.61,0,0,1,3.4,1,5.09,5.09,0,0,1,2.23,1.74,4.19,4.19,0,0,1,.64,2.32,4.37,4.37,0,0,1-1.53,3.4,6.6,6.6,0,0,1-4.5,1.36c-.25,0-.93,0-2-.17a14.43,14.43,0,0,1-1.74-.35c-.16-.05-.59-.22-1.28-.51a.62.62,0,0,1-.27-.26,8.21,8.21,0,0,1-.24-1.46C183,137.92,182.9,137.06,182.89,136.78Z" transform="translate(0 -2.38)"/><path d="M195.34,141.7l0-1.14,2-.27a1,1,0,0,0,.6-.36,2.12,2.12,0,0,0,.17-1.06v-.19c0-.14,0-.4,0-.77s0-.69,0-1,0-.65-.05-1.29l0-.88,0-.82.05-2.87A6.29,6.29,0,0,0,198,130a1.53,1.53,0,0,0-.71-.46,7.12,7.12,0,0,0-1.79-.28v-1a8.55,8.55,0,0,0,3.18-.76,7.31,7.31,0,0,0,2-1.49h1.18c.05,1.45.07,3.34.07,5.66l-.12,7.17a10.69,10.69,0,0,0,.07,1.33,10.88,10.88,0,0,0,1.78.39,4.14,4.14,0,0,1,.75.18l0,1-.71,0-.8,0c-1.2-.06-2.79-.09-4.79-.09-.58,0-1.13,0-1.67.06S195.53,141.7,195.34,141.7Zm2.46-21a2.11,2.11,0,0,1,.61-1.56,2.17,2.17,0,0,1,1.58-.6,2.42,2.42,0,0,1,1.73.64,2,2,0,0,1,.68,1.45,2.82,2.82,0,0,1-.27,1.19,2.15,2.15,0,0,1-.86,1,2.3,2.3,0,0,1-1.21.36,2.14,2.14,0,0,1-1.55-.72A2.33,2.33,0,0,1,197.8,120.73Z" transform="translate(0 -2.38)"/><path d="M208.47,144.06a7.14,7.14,0,0,1-3.17-1.4,2.51,2.51,0,0,1-.79-1.79,1.65,1.65,0,0,1,.42-1.21,32.71,32.71,0,0,1,3.85-2.37,7.45,7.45,0,0,1-2.39-2,4.48,4.48,0,0,1-.84-2.49,6.8,6.8,0,0,1,.46-2.36,6.38,6.38,0,0,1,2.69-2.68,9.65,9.65,0,0,1,4.42-.89A10.34,10.34,0,0,1,215,127a8.49,8.49,0,0,1,1.23.38l.66.25a11.22,11.22,0,0,1,1.57,1.16,19.75,19.75,0,0,0,2.44-.62A4,4,0,0,1,222,128a.66.66,0,0,1,.56.3,2.91,2.91,0,0,1,.21,1.4,2.55,2.55,0,0,1-.26,1.35.73.73,0,0,1-.55.38,2.31,2.31,0,0,1-.61-.25,5.67,5.67,0,0,0-1.92-.58,7.06,7.06,0,0,1,.42,2.3,4.56,4.56,0,0,1-.74,2.46,5.4,5.4,0,0,1-2.05,1.85,7.6,7.6,0,0,1-3.62,1,13.69,13.69,0,0,1-1.59-.06,16.73,16.73,0,0,1-1.72-.31,11,11,0,0,0-2.09,1.4.89.89,0,0,0-.3.67.84.84,0,0,0,.31.64,2,2,0,0,0,1,.38l.38.07c.62,0,1.45.07,2.48.07.13,0,.55,0,1.25-.05l.51,0q4.2,0,5.89,1.34a4.06,4.06,0,0,1,1.67,3.27,4,4,0,0,1-.59,2,4.74,4.74,0,0,1-1.59,1.62,11,11,0,0,1-2.89,1.11,15.94,15.94,0,0,1-4,.49,17.91,17.91,0,0,1-4.2-.45,6.28,6.28,0,0,1-2.91-1.5,2.24,2.24,0,0,1-.8-1.65,2.13,2.13,0,0,1,.67-1.54A10.67,10.67,0,0,1,208.47,144.06Zm5.39,5.57a8.07,8.07,0,0,0,4-1.41,1.92,1.92,0,0,0,.91-1.42,1.61,1.61,0,0,0-.19-.76,2.25,2.25,0,0,0-.7-.73,3.13,3.13,0,0,0-1.13-.5,12.67,12.67,0,0,0-2.37-.17l-2.17,0a7.22,7.22,0,0,0-3.82.7,2.2,2.2,0,0,0-1,1.87,1.87,1.87,0,0,0,.55,1.22,3.81,3.81,0,0,0,1.83,1,10.53,10.53,0,0,0,2.76.35C212.88,149.7,213.3,149.68,213.86,149.63Zm-1-12.64a2.52,2.52,0,0,0,2-1,4.85,4.85,0,0,0,.84-3.14q0-2.81-.75-3.78a2.51,2.51,0,0,0-2.1-1c-.12,0-.43,0-.93.08a2.52,2.52,0,0,0-1.54,1.2,5,5,0,0,0-.69,2.78c0,.31,0,.94.12,1.88a3,3,0,0,0,.26,1,3.87,3.87,0,0,0,.65,1.07,2.69,2.69,0,0,0,.94.61A3.16,3.16,0,0,0,212.86,137Z" transform="translate(0 -2.38)"/><path d="M221.14,140.92a2.13,2.13,0,0,1,1-.34c.81-.1,1.28-.22,1.39-.37a3.29,3.29,0,0,0,.36-1.86v-5l0-1.17v-3.55l0-4.06v-.7a7.37,7.37,0,0,0-.23-2.13,2.63,2.63,0,0,0-1.33-.36,3.44,3.44,0,0,1-.8-.09c0-.3-.05-.51-.05-.65a1.91,1.91,0,0,1,0-.32,11.87,11.87,0,0,0,2.88-.71,9.61,9.61,0,0,0,2.28-1.13l.49,0a4,4,0,0,1,.45,0q.1,6.08.11,8.32a10.26,10.26,0,0,1,0,1.07V128l0,.33v7.78l0,2.57v.42a1.81,1.81,0,0,0,.25,1.07,1.36,1.36,0,0,0,.89.28c.24,0,.73.08,1.45.18a2.57,2.57,0,0,1,.09.59c0,.12,0,.28,0,.5l-1.39-.07c-.77,0-1.74-.08-2.92-.08h-.65c-.66,0-1.63,0-2.9.16h-1.28Z" transform="translate(0 -2.38)"/><path d="M244.11,128.89a7,7,0,0,1,1.68,2.5,7.3,7.3,0,0,1,.56,2.66,8.4,8.4,0,0,1-.73,3.8,7.27,7.27,0,0,1-2.93,3.22,8.69,8.69,0,0,1-4.3,1,8.39,8.39,0,0,1-4.65-1.23,7.69,7.69,0,0,1-2.73-2.79,8.39,8.39,0,0,1-.82-3.89,7.53,7.53,0,0,1,.39-2.36,6.79,6.79,0,0,1,1.06-2.06,7.72,7.72,0,0,1,1.49-1.48,8.32,8.32,0,0,1,2.37-1.21,10,10,0,0,1,2.87-.36A7.51,7.51,0,0,1,244.11,128.89ZM234.5,135c.1,1.46.18,2.29.23,2.52a6.33,6.33,0,0,0,.72,2,2.76,2.76,0,0,0,1.11,1,3.79,3.79,0,0,0,1.84.42,3,3,0,0,0,2.16-.82,4.82,4.82,0,0,0,1.27-2.56,20.21,20.21,0,0,0,.25-3.75c0-2.13-.36-3.64-1.06-4.53a3.36,3.36,0,0,0-2.78-1.33,3.31,3.31,0,0,0-2.24.76,4.11,4.11,0,0,0-1.24,2.23A23.35,23.35,0,0,0,234.5,135Z" transform="translate(0 -2.38)"/><path d="M253.82,118.94l1,0,.68,0,1,.07.44,0,.63.09a19.86,19.86,0,0,0,2.83.16,31.26,31.26,0,0,0,4.33-.29l.61.06c0,.38,0,.77,0,1.16l-.37.16-1.74.29a5.1,5.1,0,0,0-.58.2,1.4,1.4,0,0,0,.07.45,33.25,33.25,0,0,0,2.41,3.66l1.71,2.44.2.27,1-1.22,2.18-3.18a9.57,9.57,0,0,0,1-1.76.78.78,0,0,0,.07-.33l-.05-.28a3,3,0,0,0-.57-.25l-.66,0a11.16,11.16,0,0,1-1.64-.14,4.93,4.93,0,0,1-.05-.53q0-.09,0-.42c0-.08,0-.22,0-.4a1.62,1.62,0,0,0,.35-.09q1.59.1,6.54.1a9.68,9.68,0,0,0,1.13,0,5.6,5.6,0,0,1,.59,0,3.13,3.13,0,0,1,.53,0,2.58,2.58,0,0,1,.09.63c0,.12,0,.31,0,.57l-2.71.57a2.65,2.65,0,0,0-.73.49,30.45,30.45,0,0,0-2.18,2.64l-2.55,3.3-.73,1-.52.64.26.38,2,2.79,3.49,5.16a11.46,11.46,0,0,0,2.06,2.53,8,8,0,0,0,2.41.7c0,.24,0,.39,0,.46s0,.28-.09.66l.05.16-1.25,0c-.26,0-.79,0-1.58-.09l-2.16-.14-.23,0-.51,0c-.74,0-1.61.05-2.62.13s-1.74.12-2.21.12l-1.5,0v-.47c0-.21,0-.43,0-.66.9-.23,1.85-.43,2.83-.58l.44-.25v-.19a.84.84,0,0,0-.05-.31,4.56,4.56,0,0,0-.49-1c-.51-.81-1.21-1.8-2.1-3l-2.09-2.8c-.27.31-1.2,1.61-2.81,3.89a9.26,9.26,0,0,0-1.31,1.89,2.52,2.52,0,0,0-.35.83v.14l.23.32a15.35,15.35,0,0,0,1.62.61l1.25.41.1.82v.09l0,.19a5.49,5.49,0,0,1-.69.07c-.19,0-.75,0-1.69-.14-.31,0-.88-.06-1.7-.07l-.83,0-3.88.18-.83,0-.07-.8a3.47,3.47,0,0,1,.05-.46l.76-.09a6.18,6.18,0,0,0,2.11-.49,5.89,5.89,0,0,0,1.11-1.07c.83-.92,1.58-1.81,2.25-2.69.38-.52.69-.9.91-1.16.62-.86,1.56-2.08,2.8-3.67l-1-1.56c-.75-.93-1.33-1.7-1.75-2.3l-1-1.51c-.4-.66-.66-1.08-.78-1.25-.56-.72-1.23-1.69-2-2.9a2.79,2.79,0,0,0-1.13-1,6.76,6.76,0,0,0-2.25-.41v-.26a1.7,1.7,0,0,0,0-.28,2.39,2.39,0,0,1-.07-.44Z" transform="translate(0 -2.38)"/><path d="M277.05,118.94l1,0,.69,0,.95.07.44,0,.63.09a19.86,19.86,0,0,0,2.83.16,31.26,31.26,0,0,0,4.33-.29l.61.06c0,.38,0,.77,0,1.16l-.37.16-1.74.29a5.1,5.1,0,0,0-.58.2,1.4,1.4,0,0,0,.07.45,33.25,33.25,0,0,0,2.41,3.66l1.71,2.44.2.27,1-1.22,2.18-3.18a9.57,9.57,0,0,0,1-1.76,1,1,0,0,0,.07-.33l-.06-.28a2.71,2.71,0,0,0-.56-.25l-.67,0a11,11,0,0,1-1.63-.14,3.21,3.21,0,0,1-.05-.53q0-.09,0-.42c0-.08,0-.22,0-.4a1.62,1.62,0,0,0,.35-.09q1.59.1,6.54.1a9.4,9.4,0,0,0,1.12,0,5.91,5.91,0,0,1,.6,0,3.13,3.13,0,0,1,.53,0,2.58,2.58,0,0,1,.09.63c0,.12,0,.31,0,.57l-2.71.57a2.51,2.51,0,0,0-.73.49,30.45,30.45,0,0,0-2.18,2.64l-2.55,3.3-.73,1-.52.64.26.38,2,2.79,3.49,5.16a11.17,11.17,0,0,0,2.06,2.53,7.85,7.85,0,0,0,2.4.7,3.74,3.74,0,0,1,.06.46q0,.09-.09.66l.05.16-1.25,0c-.27,0-.79,0-1.58-.09l-2.16-.14-.23,0-.51,0c-.74,0-1.61.05-2.62.13s-1.74.12-2.21.12l-1.5,0v-.47a5.07,5.07,0,0,1,0-.66,28.85,28.85,0,0,1,2.83-.58l.44-.25v-.19a.84.84,0,0,0-.05-.31,4.56,4.56,0,0,0-.49-1c-.51-.81-1.21-1.8-2.1-3l-2.09-2.8q-.4.47-2.81,3.89a9.26,9.26,0,0,0-1.31,1.89,2.65,2.65,0,0,0-.36.83l0,.14.23.32a14.55,14.55,0,0,0,1.62.61l1.25.41.1.82v.09l0,.19a5.49,5.49,0,0,1-.69.07c-.19,0-.75,0-1.69-.14-.31,0-.88-.06-1.7-.07l-.83,0-3.88.18-.83,0-.07-.8a3.47,3.47,0,0,1,.05-.46l.76-.09a6.18,6.18,0,0,0,2.11-.49,5.89,5.89,0,0,0,1.11-1.07c.83-.92,1.58-1.81,2.25-2.69.38-.52.69-.9.91-1.16q.93-1.29,2.8-3.67l-1-1.56c-.75-.93-1.33-1.7-1.75-2.3l-1-1.51c-.4-.66-.66-1.08-.78-1.25-.56-.72-1.23-1.69-2-2.9a2.67,2.67,0,0,0-1.13-1,6.75,6.75,0,0,0-2.24-.41v-.26a1.7,1.7,0,0,0,0-.28,2.39,2.39,0,0,1-.07-.44Z" transform="translate(0 -2.38)"/><path d="M301.52,141.7v-1.26c.24-.08.62-.17,1.16-.3a7.86,7.86,0,0,0,1.69-.58,3.07,3.07,0,0,0,.32-1.52l0-2.07,0-4,0-1c.09-2.32.14-3.51.14-3.58l0-2.34.06-1-.09-2,0-.76a3.59,3.59,0,0,0-.12-.56,6.73,6.73,0,0,0-2.34-.42,5.94,5.94,0,0,1-.61-.06l0-1.54,5,.21,1.16,0c.69,0,1.8,0,3.32-.14l1.61-.1c0,.22,0,.41,0,.56s0,.46-.05.77a15.76,15.76,0,0,1-1.6.47,9.52,9.52,0,0,0-1.48.45,6.12,6.12,0,0,0-.11,1.31c0,.51,0,.92.05,1.24,0,2-.05,3.5-.05,4.57l0,4.64-.09,2.35.07,3.52,0,.67a1.19,1.19,0,0,0,.1.4,19.47,19.47,0,0,0,1.94.32c.11,0,.46.05,1.07.14a6.27,6.27,0,0,1,.07.88c0,.12,0,.32,0,.59l-.35,0-.65,0a3.07,3.07,0,0,1-.45-.06l-2.34-.24-3.1,0c-.62,0-1.53.06-2.71.18Z" transform="translate(0 -2.38)"/></g></svg>