<svg xmlns="http://www.w3.org/2000/svg" viewBox="0 0 509.71 155.57"><defs><style>.cls-1{fill:#fff;}.cls-2{font-size:36px;font-family:Garamond-Bold, Garamond;font-weight:700;letter-spacing:-0.05em;}.cls-3{letter-spacing:-0.06em;}.cls-4{font-size:14px;font-family:Garamond-Italic, Garamond;font-style:italic;letter-spacing:-0.01em;}</style></defs><title>LAIBERIA3</title><g id="Layer_1" data-name="Layer 1"><path class="cls-1" d="M377.25,389V254.66H887V389ZM593.26,282c-.22-.22-.47-.64-.64-.61-.79.16-1.56.45-2.51.74l.83.59-.86,1.72-2-1.5.68-.89.79,1c.36-.62.61-1,.8-1.37a5,5,0,0,0,.89-2c0-.64-.66-1.25-1-1.89-.24-.46-.31-1.22-.65-1.35a8.62,8.62,0,0,0-2.84-.59c-2.38-.08-4.76,0-7.14,0,.28.42.58.53.86.48,2.79-.51,3.65.47,3.49,3.41-.3,5.54,0,11.1-.11,16.65,0,2.27-.39,4.54-.44,6.82q-.24,11.86-.35,23.74c0,2.25.26,4.5.32,6.74s0,4.29,0,6.44v16.55l-5.51.52c.38.77.89,1.18,1.42,1.19,2.7.08,5.4.05,8.1.05,2.17,0,4.35-.06,6.52,0,4.24.12,8.47.42,12.7.43,3.59,0,7.18-.49,10.76-.39,4.77.13,8.34-2.57,10.78-5.75a23,23,0,0,0,4-11c.59-5,.86-10.35-1.33-15.18a18.41,18.41,0,0,0-4.24-5.62,15.3,15.3,0,0,0-4.93-2.69,51.86,51.86,0,0,0-5.56-1.54l.68-.24-2.34-.6c3.55-.92,7.17-1.1,9.87-2.77s4.21-4.74,6.43-7.43h-1.63c.7-1.07,1.82-2,1.94-3.11a46.63,46.63,0,0,0,.06-7.75c-.18-3,0-6.15-3.09-8.17l2-.94c-2-1.57-3.84-2.61-5.08-4.15a12.84,12.84,0,0,0-8.64-4.92c-5.15-.62-10.38-.59-15.57-.79-.53,0-1.07.42-1.6.39-2.93-.16-5.86-.39-8.85-.61l.81,2.3,1.91-.43,1.2,3.42.92-1.08-1.2-2.47,1.14.23,2.51,3.3-1,.91-.34-2.34-.92.91.57,1.09-2.38-.4-.32,1Zm98.48-6.27v82.63h-4.13v1.51h31.08v-1.76a27.89,27.89,0,0,0-3.08.74c-2,.71-3.26-.26-3.09-2.28.22-2.52.42-5,.47-7.55.14-6.44.2-12.88.25-19.33,0-4.56,0-9.13,0-13.76a21.45,21.45,0,0,0,2.39.42,6.34,6.34,0,0,1,5.93,6c.11,2.22-.4,4.47-.39,6.71,0,2.83.38,5.66.41,8.49,0,2.35-.2,4.7-.3,7.05a15.77,15.77,0,0,0-.09,3c.38,2.63.94,5.24,1.35,7.87.36,2.38,3.73,5.87,6.15,6,5.51.33,11,.17,15.46-3.71a5.66,5.66,0,0,0,.91-1.6l-.44-.42-3.3,2.09V340.14a86.69,86.69,0,0,0-.08-9.54c-.3-2.71-.7-5.74-2.14-7.92a14.08,14.08,0,0,0-9-6.11c-2.44-.48-5-.59-7.42-.87a4,4,0,0,1,2.19-1.28c2.62-.67,5.54-.77,7.81-2,5-2.79,7.42-7.62,7.87-13.14.32-4,.73-8.17-1.76-11.85-1.3-1.91-2.22-4.13-3.74-5.83a14.51,14.51,0,0,0-5.07-3.68,40.22,40.22,0,0,0-8-2.08c-1.14-.2-2.43.48-3.61.35-1.9-.2-3.76-1-5.66-1.07-3.49-.19-7,0-10.5-.07-2.83-.07-5.66-.41-8.49-.43a59.48,59.48,0,0,0-6.09.49c-.12,0-.2.34-.37.63Zm-33.62,53v-1.52l.89-.13c0-2.91,0-5.7,0-8.5,0-.48.08-1,.12-1.45a3.87,3.87,0,0,1,1.35.3,14.54,14.54,0,0,1,5.76,7.68c1.27,3.73,2.45,7.5,3.51,11.3a54.82,54.82,0,0,1,1,5.59l.74.07q.45-3.52.88-7.07c-.32-.55-.13-1-.13-1.54,0-4,0-7.92,0-11.88a6.62,6.62,0,0,0-.51-1.72c.15-.33.51-.76.51-1.18q0-12.29,0-24.56a3.25,3.25,0,0,0-.44-1.09c-.26.27-.72.52-.75.81-.26,2.88-.46,5.75-.68,8.63a1.79,1.79,0,0,0-1,1,71,71,0,0,1-3.2,6.7,30.85,30.85,0,0,1-4.06,4.88,2.35,2.35,0,0,1-1.88.65c-.4-.09-.86-1-.87-1.59-.08-3.5,0-7,0-10.5,0-.72.15-1.44.16-2.16.06-4.4.09-8.81.13-13.22,0-.18.05-.37,0-.55-.06-2.73-.2-5.46-.17-8.19a13.77,13.77,0,0,1,.68-3.14,1.34,1.34,0,0,1,.84.06,62.72,62.72,0,0,1,7.33,4.41,43.35,43.35,0,0,1,7.14,6.86,30.35,30.35,0,0,1,4.2,7.56,39.93,39.93,0,0,1,1.94,7.54c.46,2.39.69,4.84,1,7.26h.89q.4-7.36.8-14.72a20.18,20.18,0,0,1-.07-4c-.09-3.57-.35-7.14-.43-10.72,0-1.28.35-2.58.33-3.86a1.61,1.61,0,0,0-1.12-1.13c-1.49-.11-3,.06-4.49.05-6.06-.06-12.13-.18-18.19-.23-4.36,0-8.73,0-13.09,0-1.94,0-3.89.06-5.83,0a30.73,30.73,0,0,1-3.93-.46c-2-.35-2.84.24-2.52,2.08l4.63-.6v9.1c.09,1.63.21,2.9.22,4.18,0,2.89.09,5.79,0,8.68-.07,1.89-.62,3.77-.62,5.65,0,6.76.13,13.51.16,20.27,0,8.06,0,16.13,0,24.2,0,3,.06,6.05-.07,9.07,0,.39-1,1.05-1.5,1.05a18.67,18.67,0,0,1-3.4-.59v2.31c2-.22,3.86-.57,5.74-.6s3.58.4,5.38.4,3.78-.44,5.67-.41c3.53,0,7.07.37,10.6.43,4.84.07,9.68,0,14.52,0,.77,0,1.55,0,2.33-.07a22.65,22.65,0,0,1,4.76-.32c1.65.23,2.11-.26,2.09-1.76,0-1.72,0-3.45,0-5.18.07-10.14.15-20.28.16-30.42,0-.44-.61-.87-1.14-1.58-.3,2.72-.39,4.87-.8,7a53.55,53.55,0,0,1-2.36,9.71c-1.7,4.22-3.57,8.5-7,11.74a75.23,75.23,0,0,1-7.54,6.53c-1.47,1.06-3.55,1.23-5.26,2-2.74,1.23-2.77-.14-2.29-2.17a3.45,3.45,0,0,0,0-.72V329.53a5.43,5.43,0,0,0-.09-.69Zm-218-9.39c-.73.37-.91.43-.92.48,0,1.26.08,2.52-.07,3.76-.55,4.7-.95,9.43-1.85,14.07a28.25,28.25,0,0,1-3,7.63,34.69,34.69,0,0,1-4.29,5.79,19,19,0,0,1-4.08,4,75.33,75.33,0,0,1-7.09,3.34c-2.28,1.11-3.86.37-3.92-1.88-.12-4.33-.41-8.66-.43-13,0-3.2.36-6.41.41-9.62,0-1.73-.42-3.46-.43-5.2-.05-8.24,0-16.47,0-24.71,0-.36,0-.72,0-1.08.28-3.18.84-6.37.8-9.55-.08-5.31-.56-10.61-.76-15.92,0-.3.88-.85,1.38-.9a37.61,37.61,0,0,1,3.83,0c-.48-.9-.94-1.45-1.42-1.46q-4.4-.07-8.81.05c-1.6.05-3.19.37-4.79.34-2.6,0-5.19-.24-7.78-.46-1.16-.09-2.3-.47-3.46-.6a5.8,5.8,0,0,0-2.07.2c-.18,0-.2.69-.37,1.38,4.27-1.35,4,1.2,4,3.88-.1,5.08,0,10.17,0,15.25,0,2.3,0,4.59-.07,6.88-.09,1.81-.57,3.61-.58,5.42,0,2.43.38,4.86.39,7.3q.07,12.94,0,25.91c0,2.18-.46,4.35-.41,6.53.09,3.39.45,6.78.65,10.17a5.36,5.36,0,0,1-.24,1.43l-3.81-.49.68,1.76h48.47c.15-2.3.3-4.64.45-7l-.4,0ZM551,290.43l-.31,0v55.06a15.52,15.52,0,0,0-.43,2.19c0,2.72-.17,5.45,0,8.16.15,1.95-.7,2.18-2.27,2-1.15-.11-2.32,0-3.48,0,.28.95.85,1.66,1.41,1.65,2.29,0,4.58-.39,6.87-.38,2.65,0,5.3.37,7.95.41,1.71,0,3.42-.37,5.14-.42,2.47-.08,4.94,0,7.41,0H576l.78-1c-1.85-.17-3.82.21-4.74-.6s-.73-2.8-1-4.16a7.33,7.33,0,0,0,.34-1.45c0-2.56,0-5.11,0-7.66.07-8.67.17-17.34.23-26,0-4.64,0-9.29,0-13.93,0-1.81.18-3.62.17-5.44,0-5.29-.11-10.58-.16-15.88,0-1.32,0-2.64,0-4s-.43-2.93,2-2.5a13.44,13.44,0,0,0,3.48-.32l0-.87H545.25l0,.45H551Zm195.27,69.32c3.8-.24,7.38-.59,11-.64,3.24,0,6.5.25,9.74.45.55,0,1.08.5,1.63.53a39.14,39.14,0,0,0,4.72.09,22.53,22.53,0,0,0,3.91-.68c.2-.05.26-.67.42-1.12l-4.17-.34a31.6,31.6,0,0,1-.69-4.29c-.06-1.45.36-2.9.41-4.36.08-2.38,0-4.76,0-7.14V329.1c0-6,0-12.08,0-18.12,0-3.13.34-6.26.45-9.39.07-2.24,0-4.48,0-6.72,0-1-.06-1.95-.09-2.93-.11-2.85-.27-5.71-.3-8.56a34.12,34.12,0,0,1,.37-3.77c.1-1-.13-2.49.41-2.87s2,.09,3,.07a10.2,10.2,0,0,0,1.94-.37,14.13,14.13,0,0,0-4.95-.71c-3.74-.2-7.48-.59-11.23-.67-4.27-.09-8.55.05-12.83.13-1.07,0-2.15.23-3.22.34l0,.85h5.74c0,7.82,0,15.3,0,22.78,0,1.91-.12,3.82-.23,5.74-.13,2.17-.45,4.34-.44,6.51,0,2.58.38,5.15.42,7.73.07,4.9,0,9.81,0,14.71,0,3,0,6,0,9,0,3.95.35,7.9.12,11.82-.08,1.35.48,4.32-3,3.28C748.48,357.62,746.47,357,746.29,359.75Zm89.66.85-.12-1c-.31,0-.62-.06-.93-.06-2.26,0-5.08.83-4.92-3.08a5.44,5.44,0,0,0,.11-1.43c-.5-1.95-1.21-3.86-1.61-5.82-1-4.79-1.74-9.61-2.68-14.39-.73-3.75-1.63-7.47-2.37-11.21-.93-4.75-1.82-9.51-2.63-14.28-.65-3.78-1.12-7.58-1.73-11.36q-.63-3.85-1.44-7.66c-.94-4.39-2-8.76-3-13.47l-4.59-.38,0,.12h-8.43c-.33,2-.57,4.22-1,6.37-.88,3.93-1.89,7.82-2.84,11.73-.44,1.84-.81,3.69-1.29,5.51-.39,1.49-1,2.92-1.33,4.41-.49,2.15-.8,4.34-1.27,6.49-.74,3.43-1.6,6.83-2.33,10.25-.57,2.66-.9,5.37-1.53,8-.87,3.6-2,7.14-2.88,10.73-.42,1.69-.59,3.45-1,5.15-.48,2.12-1.12,4.2-1.58,6.32-.57,2.63-1.18,5.17-4,6.36-.29.12-.44.76-.5,1.19,0,.19.31.63.49.63,3,.06,5.93.08,8.9,0,.31,0,.9-.56.86-.75a1.69,1.69,0,0,0-.8-1.13c-1.95-.61-3.73-1.23-3.23-3.9.68-3.69,1.29-7.39,1.92-11.09s1.2-7.11,1.81-10.69h14.66c.2,1.26.3,2.41.58,3.51,1,4,2.14,7.9,3.06,11.88.77,3.3,1.33,6.66,1.91,10,.07.42-.32,1.31-.5,1.31-1.47,0-2.93-.15-4.4-.24-.44,0-1.23-.1-1.27,0a4.55,4.55,0,0,0-.06,1.4c1.68-.11,3-.31,4.3-.27,1.82.06,3.63.37,5.45.44,5.49.2,11,.33,16.48.5.27,0,.54.17.8.16C832.61,360.82,834.28,360.7,836,360.6Zm-384.11-1c-3.67-.44-5-1.79-4.51-4.51.52-3.14.92-6.31,1.48-9.44s1.2-6.09,1.9-9.12c.38-1.66.28-3.47,3.18-3.28,3.68.24,7.4-.37,11.1-.58a1,1,0,0,1,.78.42c.46,1.71.84,3.43,1.28,5.15.77,3.06,1.57,6.11,2.33,9.18.39,1.57.74,3.15,1.07,4.73.46,2.25.88,4.51,1.33,6.82l-6.72.49.08,1.61c2.24-.28,4.37-.67,6.52-.79,2.32-.14,4.65-.09,7,0,2.05.06,4.1.32,6.15.4s4.29.11,6.42,0c.44,0,1.25-.89,1.18-1.23-.49-2.66-1.14-5.29-1.78-7.93-1-3.94-2.07-7.86-2.9-11.84-.8-3.77-1.26-7.61-2-11.4-.77-4-1.68-8-2.54-12-.57-2.7-1.24-5.38-1.75-8.09s-.71-5.23-1.22-7.82c-1-4.86-2.11-9.69-3.1-14.56-.59-2.92-1-5.87-1.55-8.86-1.13,0-2.19.07-3.24,0-2.27-.19-4.54-.5-6.82-.68-1.83-.14-3.26.32-3.57,2.5-.39,2.73-.88,5.44-1.37,8.15-.55,3-1.15,6-1.75,9.05-.4,2.05-.73,4.12-1.28,6.12-.75,2.7-1.83,5.31-2.51,8-.79,3.2-1.35,6.47-1.94,9.73-.84,4.57-1.6,9.16-2.43,13.73-.46,2.6-.92,5.2-1.5,7.77-.88,4-1.69,8-2.88,11.84a36.57,36.57,0,0,1-3.14,6.21c-.16.31-.53.52-.8.78.4.27.79.76,1.19.77,2.76.07,5.51,0,8.32,0Zm404.72-7.29c-.08-.5-.38-1.86-.49-3.23-.35-4.11-1.25-7.68-5.61-9.63-4.92-2.21-11.39,1.35-11.43,6.73,0,2.83-.14,5.89.86,8.42a9.37,9.37,0,0,0,5,4.72c1.64.61,2.23,1.22,1.7,2.42a13.79,13.79,0,0,1-2.91,3.95c-1.26,1.27-2.82,2.22-4.16,3.42-.34.31-.32,1-.47,1.54a7.71,7.71,0,0,0,1.5.15,10.67,10.67,0,0,0,3-.51c2.52-1.07,5.34-1.88,7.36-3.59C855,363.28,856.46,358.46,856.56,352.32Z" transform="translate(-377.25 -254.66)"/><path d="M691.74,275.7h-4.53c.17-.29.25-.62.37-.63a59.48,59.48,0,0,1,6.09-.49c2.83,0,5.66.36,8.49.43,3.5.08,7-.12,10.5.07,1.9.1,3.76.87,5.66,1.07,1.18.13,2.47-.55,3.61-.35a40.22,40.22,0,0,1,8,2.08,14.51,14.51,0,0,1,5.07,3.68c1.52,1.7,2.44,3.92,3.74,5.83,2.49,3.68,2.08,7.86,1.76,11.85-.45,5.52-2.89,10.35-7.87,13.14-2.27,1.27-5.19,1.37-7.81,2a4,4,0,0,0-2.19,1.28c2.47.28,5,.39,7.42.87a14.08,14.08,0,0,1,9,6.11c1.44,2.18,1.84,5.21,2.14,7.92a86.69,86.69,0,0,1,.08,9.54v17.65l3.3-2.09.44.42a5.66,5.66,0,0,1-.91,1.6c-4.5,3.88-9.95,4-15.46,3.71-2.42-.15-5.79-3.64-6.15-6-.41-2.63-1-5.24-1.35-7.87a15.77,15.77,0,0,1,.09-3c.1-2.35.33-4.7.3-7.05,0-2.83-.39-5.66-.41-8.49,0-2.24.5-4.49.39-6.71a6.34,6.34,0,0,0-5.93-6,21.45,21.45,0,0,1-2.39-.42c0,4.63,0,9.2,0,13.76,0,6.45-.11,12.89-.25,19.33,0,2.51-.25,5-.47,7.55-.17,2,1.13,3,3.09,2.28a27.89,27.89,0,0,1,3.08-.74v1.76H687.61v-1.51h4.13Zm29.49,10.37.4-.11c-.39-1.86-.75-3.72-1.18-5.57a5.51,5.51,0,0,0-6.79-4.1,1,1,0,0,0-.62.67q0,9.84,0,19.69c0,3.33.15,6.66.19,10,0,2.79,0,5.59,0,8.42h1.58c.06-.41.13-.76.11-.64,1.34-.1,2.7.2,3.52-.34,2.77-1.8,3-4.88,3.13-7.8.16-3.39.06-6.8,0-10.2,0-.64-.39-1.29-.37-1.93.07-2,.3-4,.37-6A10.38,10.38,0,0,0,721.23,286.07Zm15.4,2.47-1.08,1.35.42.43,1.58-1.45-.45-.65,1.09.15-.09-1.85-5.23.72.16,1.08,2.56-.48-.89,1.38Zm-6.76,1.79-.27-.48-2.68,1.28c.4,1.13.6,1.72.81,2.3l1.95-.75,0,.59,2.16-.19,0-.36-4.7-1.06Z" transform="translate(-377.25 -254.66)"/><path d="M593.22,282l.32-1,2.38.4-.57-1.09.92-.91.34,2.34,1-.91-2.51-3.3-1.14-.23,1.2,2.47-.92,1.08-1.2-3.42-1.91.43-.81-2.3c3,.22,5.92.45,8.85.61.53,0,1.07-.41,1.6-.39,5.19.2,10.42.17,15.57.79a12.84,12.84,0,0,1,8.64,4.92c1.24,1.54,3.11,2.58,5.08,4.15l-2,.94c3.05,2,2.91,5.2,3.09,8.17a46.63,46.63,0,0,1-.06,7.75c-.12,1.08-1.24,2-1.94,3.11h1.63c-2.22,2.69-3.85,5.83-6.43,7.43s-6.32,1.85-9.87,2.77l2.34.6-.68.24a51.86,51.86,0,0,1,5.56,1.54,15.3,15.3,0,0,1,4.93,2.69,18.41,18.41,0,0,1,4.24,5.62c2.19,4.83,1.92,10.15,1.33,15.18a23,23,0,0,1-4,11c-2.44,3.18-6,5.88-10.78,5.75-3.58-.1-7.17.4-10.76.39-4.23,0-8.46-.31-12.7-.43-2.17-.06-4.35,0-6.52,0-2.7,0-5.4,0-8.1-.05-.53,0-1-.42-1.42-1.19l5.51-.52V340c0-2.15,0-4.29,0-6.44s-.34-4.49-.32-6.74q.11-11.87.35-23.74c.05-2.28.41-4.55.44-6.82.07-5.55-.19-11.11.11-16.65.16-2.94-.7-3.92-3.49-3.41-.28.05-.58-.06-.86-.48,2.38,0,4.76-.05,7.14,0a8.62,8.62,0,0,1,2.84.59c.34.13.41.89.65,1.35.33.64,1,1.25,1,1.89a5,5,0,0,1-.89,2c-.19.39-.44.75-.8,1.37l-.79-1-.68.89,2,1.5.86-1.72-.83-.59c.95-.29,1.72-.58,2.51-.74.17,0,.42.39.64.61l-2.08,1.24h2.17c.06.85.1,1.59.15,2.35l1-.42-1,1.78,1.57.1.15-.91.85,1.42,1-.3-1.27-4.76Zm10.54-2.27a5.85,5.85,0,0,1,.27,1.46c-.12,2.6-.37,5.18-.44,7.77-.08,3.1,0,6.21,0,9.31,0,2.11,0,4.22,0,6.33.09,3.88.23,7.76.35,11.76l-.37.05c-.31,12.26-.63,24.5-.93,36.46l.35,4.23c1.43,0,2.9.32,4.12-.08s3.27-1.36,3.48-2.38a60.67,60.67,0,0,0,.86-9.56c.11-2,0-4,0-6.06V323.88a12.89,12.89,0,0,0-.06-3.35c-.73-2.62-2.18-4.64-5.27-4.89,1-.23,2.59.05,2.85-.41a18,18,0,0,0,2.38-6,59.48,59.48,0,0,0,.1-8.45l.62.2,1.31-1.54.2,1.85,2.08.54-2.94.18-.67.77a5.45,5.45,0,0,0,1.55.52,6.17,6.17,0,0,0,1.67-.45l.75,1.44,3,.29-1.78-1.31,2.73-.93-.68-1.22v-5.72l-2.48,1.26-.07,1.22h-.37v-4.15c-.59,2.36-3,3.7-.64,5.65l-1.27,1.37-1.08-3.41-1.55,1.18c.14-2.23.19-4,.38-5.69.12-1.07.72-2.14.62-3.17-.21-2.38-.83-4.72-1.09-7.1-.51-4.58-2.77-6.43-7.65-6Zm-4.69,10.08-3.89,2.57-.32-.93h-1.81a10.58,10.58,0,0,0,1.33,2.18c.21.2.93-.13,1.4-.21l.37,1.76-.41-.2c-.37,1.46-.74,2.92-1.08,4.3.13.1-.09,0-.28-.19l-.89,1.3V298l-.66,0c-.06,1-.11,2.06-.17,3.27L590.58,300l-.2.38,1.35,1.49-1.52,1.23,1.51.07,1.13,2.22.83-2.09.85.79,2.55-3.85-1-.52,2.4-1.75c-.09-.19-.17-.36-.24-.53s-.1-.34-.15-.5l-1.64.68-.24-.49,2.07-1c-.15-.4-.33-.91-.31-.84C598.45,293,598.78,291.29,599.07,289.81Zm17.52,53.38.64.4,2.46-3L618,339.31l.44-1.66-.62.35c-.08-.33-.16-.66-.11-.44l-2.79,2.92c-.21-1.6-.29-2.18-.38-2.86l-2.13,2.23,2.24.5-.89,1.71,2.16-1.51,1.54,1.14Zm-29.46-64a6.41,6.41,0,0,1,.6-.88,10.91,10.91,0,0,1,1.17-.88l-1.88.27-2.24,3.38.3.56,1.86-1.22.22.29,2.09-1.42-.21-.48Zm26.42,12.08,6.07.29C617.22,289.44,615,289.44,613.55,291.3Z" transform="translate(-377.25 -254.66)"/><path d="M658.12,328.73l1,.11a5.43,5.43,0,0,1,.09.69V355a3.45,3.45,0,0,1,0,.72c-.48,2-.45,3.4,2.29,2.17,1.71-.77,3.79-.94,5.26-2a75.23,75.23,0,0,0,7.54-6.53c3.42-3.24,5.29-7.52,7-11.74a53.55,53.55,0,0,0,2.36-9.71c.41-2.09.5-4.24.8-7,.53.71,1.14,1.14,1.14,1.58,0,10.14-.09,20.28-.16,30.42,0,1.73-.05,3.46,0,5.18,0,1.5-.44,2-2.09,1.76a22.65,22.65,0,0,0-4.76.32c-.78.05-1.56.07-2.33.07-4.84,0-9.68.06-14.52,0-3.53-.06-7.07-.39-10.6-.43-1.89,0-3.78.4-5.67.41s-3.59-.43-5.38-.4-3.76.38-5.74.6v-2.31a18.67,18.67,0,0,0,3.4.59c.52,0,1.48-.66,1.5-1.05.13-3,.07-6,.07-9.07,0-8.07,0-16.14,0-24.2,0-6.76-.18-13.51-.16-20.27,0-1.88.55-3.76.62-5.65.11-2.89,0-5.79,0-8.68,0-1.28-.13-2.55-.22-4.18v-9.1l-4.63.6c-.32-1.84.53-2.43,2.52-2.08a30.73,30.73,0,0,0,3.93.46c1.94.08,3.89,0,5.83,0,4.36,0,8.73,0,13.09,0,6.06.05,12.13.17,18.19.23,1.5,0,3-.16,4.49-.05a1.61,1.61,0,0,1,1.12,1.13c0,1.28-.36,2.58-.33,3.86.08,3.58.34,7.15.43,10.72a20.18,20.18,0,0,0,.07,4q-.4,7.36-.8,14.72h-.89c-.33-2.42-.56-4.87-1-7.26a39.93,39.93,0,0,0-1.94-7.54,30.35,30.35,0,0,0-4.2-7.56,43.35,43.35,0,0,0-7.14-6.86,62.72,62.72,0,0,0-7.33-4.41,1.34,1.34,0,0,0-.84-.06,13.77,13.77,0,0,0-.68,3.14c0,2.73.11,5.46.17,8.19,0,.18,0,.37,0,.55,0,4.41-.07,8.82-.13,13.22,0,.72-.16,1.44-.16,2.16,0,3.5,0,7,0,10.5,0,.57.47,1.5.87,1.59a2.35,2.35,0,0,0,1.88-.65,30.85,30.85,0,0,0,4.06-4.88,71,71,0,0,0,3.2-6.7,1.79,1.79,0,0,1,1-1c.22-2.88.42-5.75.68-8.63,0-.29.49-.54.75-.81a3.25,3.25,0,0,1,.44,1.09q0,12.27,0,24.56c0,.42-.36.85-.51,1.18a6.62,6.62,0,0,1,.51,1.72c0,4,0,7.92,0,11.88,0,.5-.19,1,.13,1.54q-.44,3.54-.88,7.07l-.74-.07a54.82,54.82,0,0,0-1-5.59c-1.06-3.8-2.24-7.57-3.51-11.3a14.54,14.54,0,0,0-5.76-7.68,3.87,3.87,0,0,0-1.35-.3c0,.48-.12,1-.12,1.45,0,2.8,0,5.59,0,8.5l-.89.13Z" transform="translate(-377.25 -254.66)"/><path d="M440.11,319.34V353l.4,0c-.15,2.33-.3,4.67-.45,7H391.59l-.68-1.76,3.81.49a5.36,5.36,0,0,0,.24-1.43c-.2-3.39-.56-6.78-.65-10.17-.05-2.18.4-4.35.41-6.53q.07-13,0-25.91c0-2.44-.41-4.87-.39-7.3,0-1.81.49-3.61.58-5.42.12-2.29.07-4.58.07-6.88,0-5.08-.07-10.17,0-15.25.06-2.68.29-5.23-4-3.88.17-.69.19-1.33.37-1.38a5.8,5.8,0,0,1,2.07-.2c1.16.13,2.3.51,3.46.6,2.59.22,5.18.41,7.78.46,1.6,0,3.19-.29,4.79-.34q4.41-.12,8.81-.05c.48,0,.94.56,1.42,1.46a37.61,37.61,0,0,0-3.83,0c-.5.05-1.39.6-1.38.9.2,5.31.68,10.61.76,15.92,0,3.18-.52,6.37-.8,9.55,0,.36,0,.72,0,1.08,0,8.24,0,16.47,0,24.71,0,1.74.45,3.47.43,5.2,0,3.21-.43,6.42-.41,9.62,0,4.34.31,8.67.43,13,.06,2.25,1.64,3,3.92,1.88a75.33,75.33,0,0,0,7.09-3.34,19,19,0,0,0,4.08-4,34.69,34.69,0,0,0,4.29-5.79,28.25,28.25,0,0,0,3-7.63c.9-4.64,1.3-9.37,1.85-14.07.15-1.24,0-2.5.07-3.76C439.2,319.77,439.38,319.71,440.11,319.34Z" transform="translate(-377.25 -254.66)"/><path d="M551,290.43V275.69h-5.81l0-.45h31.87l0,.87a13.44,13.44,0,0,1-3.48.32c-2.43-.43-2,1.17-2,2.5s0,2.64,0,4c.05,5.3.14,10.59.16,15.88,0,1.82-.16,3.63-.17,5.44,0,4.64,0,9.29,0,13.93-.06,8.67-.16,17.34-.23,26,0,2.55,0,5.1,0,7.66a7.33,7.33,0,0,1-.34,1.45c.28,1.36.11,3.36,1,4.16s2.89.43,4.74.6l-.78,1h-2.69c-2.47,0-4.94-.06-7.41,0-1.72.05-3.43.44-5.14.42-2.65,0-5.3-.4-7.95-.41-2.29,0-4.58.36-6.87.38-.56,0-1.13-.7-1.41-1.65,1.16,0,2.33-.09,3.48,0,1.57.16,2.42-.07,2.27-2-.2-2.71-.06-5.44,0-8.16a15.52,15.52,0,0,1,.43-2.19V290.41Z" transform="translate(-377.25 -254.66)"/><path d="M746.29,359.75c.18-2.77,2.19-2.13,3.18-1.84,3.48,1,2.92-1.93,3-3.28.23-3.92-.07-7.87-.12-11.82,0-3,0-6,0-9,0-4.9,0-9.81,0-14.71,0-2.58-.41-5.15-.42-7.73,0-2.17.31-4.34.44-6.51.11-1.92.22-3.83.23-5.74,0-7.48,0-15,0-22.78h-5.74l0-.85c1.07-.11,2.15-.32,3.22-.34,4.28-.08,8.56-.22,12.83-.13,3.75.08,7.49.47,11.23.67a14.13,14.13,0,0,1,4.95.71,10.2,10.2,0,0,1-1.94.37c-1,0-2.34-.53-3-.07s-.31,1.87-.41,2.87a34.12,34.12,0,0,0-.37,3.77c0,2.85.19,5.71.3,8.56,0,1,.08,1.95.09,2.93,0,2.24.06,4.48,0,6.72-.11,3.13-.41,6.26-.45,9.39-.07,6,0,12.08,0,18.12v13.15c0,2.38.06,4.76,0,7.14-.05,1.46-.47,2.91-.41,4.36a31.6,31.6,0,0,0,.69,4.29l4.17.34c-.16.45-.22,1.07-.42,1.12a22.53,22.53,0,0,1-3.91.68,39.14,39.14,0,0,1-4.72-.09c-.55,0-1.08-.5-1.63-.53-3.24-.2-6.5-.48-9.74-.45C753.67,359.16,750.09,359.51,746.29,359.75Z" transform="translate(-377.25 -254.66)"/><path d="M836,360.6c-1.67.1-3.34.22-5,.3-.26,0-.53-.15-.8-.16-5.49-.17-11-.3-16.48-.5-1.82-.07-3.63-.38-5.45-.44-1.31,0-2.62.16-4.3.27a4.55,4.55,0,0,1,.06-1.4c0-.12.83-.05,1.27,0,1.47.09,2.93.25,4.4.24.18,0,.57-.89.5-1.31-.58-3.35-1.14-6.71-1.91-10-.92-4-2.06-7.91-3.06-11.88-.28-1.1-.38-2.25-.58-3.51H789.93q-.91,5.37-1.81,10.69c-.63,3.7-1.24,7.4-1.92,11.09-.5,2.67,1.28,3.29,3.23,3.9a1.69,1.69,0,0,1,.8,1.13c0,.19-.55.74-.86.75-3,0-5.93,0-8.9,0-.18,0-.52-.44-.49-.63.06-.43.21-1.07.5-1.19,2.86-1.19,3.47-3.73,4-6.36.46-2.12,1.1-4.2,1.58-6.32.38-1.7.55-3.46,1-5.15.91-3.59,2-7.13,2.88-10.73.63-2.64,1-5.35,1.53-8,.73-3.42,1.59-6.82,2.33-10.25.47-2.15.78-4.34,1.27-6.49.35-1.49.94-2.92,1.33-4.41.48-1.82.85-3.67,1.29-5.51.95-3.91,2-7.8,2.84-11.73.47-2.15.71-4.35,1-6.37H810l0-.12,4.59.38c1,4.71,2.07,9.08,3,13.47q.81,3.81,1.44,7.66c.61,3.78,1.08,7.58,1.73,11.36.81,4.77,1.7,9.53,2.63,14.28.74,3.74,1.64,7.46,2.37,11.21.94,4.78,1.72,9.6,2.68,14.39.4,2,1.11,3.87,1.61,5.82a5.44,5.44,0,0,1-.11,1.43c-.16,3.91,2.66,3,4.92,3.08.31,0,.62,0,.93.06Zm-40-29.42V331c.93,0,1.86-.05,2.78,0,1.78.11,3.55.32,5.33.37.18,0,.63-.82.56-1.17-.56-2.69-1.24-5.35-1.85-8-1-4.6-2.15-9.2-3.1-13.84-.42-2-.47-4.16-.77-6.23a11.82,11.82,0,0,0-.73-2.12h-.63q-3.6,15.19-7.22,30.41l.53.81Z" transform="translate(-377.25 -254.66)"/><path d="M451.84,359.61V361c-2.81,0-5.56,0-8.32,0-.4,0-.79-.5-1.19-.77.27-.26.64-.47.8-.78a36.57,36.57,0,0,0,3.14-6.21c1.19-3.88,2-7.88,2.88-11.84.58-2.57,1-5.17,1.5-7.77.83-4.57,1.59-9.16,2.43-13.73.59-3.26,1.15-6.53,1.94-9.73.68-2.72,1.76-5.33,2.51-8,.55-2,.88-4.07,1.28-6.12.6-3,1.2-6,1.75-9.05.49-2.71,1-5.42,1.37-8.15.31-2.18,1.74-2.64,3.57-2.5,2.28.18,4.55.49,6.82.68,1.05.08,2.11,0,3.24,0,.52,3,1,5.94,1.55,8.86,1,4.87,2.13,9.7,3.1,14.56.51,2.59.74,5.23,1.22,7.82s1.18,5.39,1.75,8.09c.86,4,1.77,8,2.54,12,.72,3.79,1.18,7.63,2,11.4.83,4,1.94,7.9,2.9,11.84.64,2.64,1.29,5.27,1.78,7.93.07.34-.74,1.21-1.18,1.23-2.13.11-4.28.08-6.42,0s-4.1-.34-6.15-.4c-2.32-.07-4.65-.12-7,0-2.15.12-4.28.51-6.52.79l-.08-1.61,6.72-.49c-.45-2.31-.87-4.57-1.33-6.82-.33-1.58-.68-3.16-1.07-4.73-.76-3.07-1.56-6.12-2.33-9.18-.44-1.72-.82-3.44-1.28-5.15a1,1,0,0,0-.78-.42c-3.7.21-7.42.82-11.1.58-2.9-.19-2.8,1.62-3.18,3.28-.7,3-1.35,6.07-1.9,9.12s-1,6.3-1.48,9.44C446.87,357.82,448.17,359.17,451.84,359.61Zm16.7-28.08.22-.46c-.38-.35-.78-1-1.13-1-2.77.19-2.28-1.89-2.58-3.49-.46-2.5-.93-5-1.53-7.48-.69-2.79-1.69-5.51-2.25-8.32-.61-3-.84-6.09-1.3-9.12-.06-.38-.48-.7-1.09-1.53-.79,3.6-1.42,6.55-2.09,9.49q-.63,2.7-1.38,5.36c-.5,1.79-1.23,3.53-1.56,5.35-.61,3.33-1,6.69-1.49,10-.1.72-.16,1.45-.24,2.19a14.07,14.07,0,0,1,2.16-.41c2.76,0,5.52.07,8.27-.05a32.25,32.25,0,0,0,4.21-.73l-.14-.39Z" transform="translate(-377.25 -254.66)"/><path class="cls-1" d="M721.23,286.07a10.38,10.38,0,0,1,.37,2.11c-.07,2-.3,4-.37,6,0,.64.37,1.29.37,1.93,0,3.4.14,6.81,0,10.2-.13,2.92-.36,6-3.13,7.8-.82.54-2.18.24-3.52.34,0-.12,0,.23-.11.64h-1.58c0-2.83,0-5.63,0-8.42,0-3.33-.17-6.66-.19-10q-.06-9.86,0-19.69a1,1,0,0,1,.62-.67,5.51,5.51,0,0,1,6.79,4.1c.43,1.85.79,3.71,1.18,5.57Z" transform="translate(-377.25 -254.66)"/><path class="cls-1" d="M736.63,288.54l-1.93.68.89-1.38-2.56.48-.16-1.08,5.23-.72.09,1.85-1.09-.15.45.65L736,290.32l-.42-.43Z" transform="translate(-377.25 -254.66)"/><path class="cls-1" d="M729.87,290.33l-2.68,1.33,4.7,1.06,0,.36-2.16.19,0-.59-1.95.75c-.21-.58-.41-1.17-.81-2.3l2.68-1.28Z" transform="translate(-377.25 -254.66)"/><path class="cls-1" d="M603.76,279.73l.32-3.15c4.88-.46,7.14,1.39,7.65,6,.26,2.38.88,4.72,1.09,7.1.1,1-.5,2.1-.62,3.17-.19,1.72-.24,3.46-.38,5.69l1.55-1.18,1.08,3.41,1.27-1.37c-2.37-1.95,0-3.29.64-5.65v4.15h.37l.07-1.22,2.48-1.26v5.72l.68,1.22-2.73.93,1.78,1.31-3-.29-.75-1.44a6.17,6.17,0,0,1-1.67.45,5.45,5.45,0,0,1-1.55-.52l.67-.77,2.94-.18-2.08-.54-.2-1.85L612.08,301l-.62-.2a59.48,59.48,0,0,1-.1,8.45,18,18,0,0,1-2.38,6c-.26.46-1.85.18-2.85.41,3.09.25,4.54,2.27,5.27,4.89a12.89,12.89,0,0,1,.06,3.35V339c0,2,.09,4,0,6.06a60.67,60.67,0,0,1-.86,9.56c-.21,1-2.15,1.95-3.48,2.38s-2.69.08-4.12.08l-.35-4.23c.3-12,.62-24.2.93-36.46l.37-.05c-.12-4-.26-7.88-.35-11.76-.05-2.11,0-4.22,0-6.33,0-3.1-.06-6.21,0-9.31.07-2.59.32-5.17.44-7.77A5.85,5.85,0,0,0,603.76,279.73Z" transform="translate(-377.25 -254.66)"/><path class="cls-1" d="M599.07,289.81c-.29,1.48-.62,3.2-1.06,5.43,0-.07.16.44.31.84l-2.07,1,.24.49,1.64-.68c0,.16.09.34.15.5s.15.34.24.53l-2.4,1.75,1,.52-2.55,3.85-.85-.79-.83,2.09-1.13-2.22-1.51-.07,1.52-1.23-1.35-1.49.2-.38,2.08,1.23c.06-1.21.11-2.24.17-3.27l.66,0v2.43l.89-1.3c.19.14.41.29.28.19.34-1.38.71-2.84,1.08-4.3l.41.2-.37-1.76c-.47.08-1.19.41-1.4.21a10.58,10.58,0,0,1-1.33-2.18h1.81l.32.93Z" transform="translate(-377.25 -254.66)"/><path class="cls-1" d="M616.59,343.19l.85-1.5-1.54-1.14-2.16,1.51.89-1.71-2.24-.5,2.13-2.23c.09.68.17,1.26.38,2.86l2.79-2.92c-.05-.22,0,.11.11.44l.62-.35-.44,1.66,1.71,1.24-2.46,3Z" transform="translate(-377.25 -254.66)"/><path class="cls-1" d="M593.22,282l2.52.47,1.27,4.76-1,.3-.85-1.42-.15.91-1.57-.1,1-1.78-1,.42c0-.76-.09-1.5-.15-2.35h-2.17l2.08-1.24Z" transform="translate(-377.25 -254.66)"/><path class="cls-1" d="M587.13,279.22l1.91-.38.21.48-2.09,1.42-.22-.29-1.86,1.22-.3-.56,2.24-3.38,1.88-.27a10.91,10.91,0,0,0-1.17.88A6.41,6.41,0,0,0,587.13,279.22Z" transform="translate(-377.25 -254.66)"/><path class="cls-1" d="M613.55,291.3c1.47-1.86,3.67-1.86,6.07.29Z" transform="translate(-377.25 -254.66)"/><path class="cls-1" d="M795.92,331.18h-5.09l-.53-.81q3.62-15.22,7.22-30.41h.63a11.82,11.82,0,0,1,.73,2.12c.3,2.07.35,4.19.77,6.23,1,4.64,2.05,9.24,3.1,13.84.61,2.68,1.29,5.34,1.85,8,.07.35-.38,1.18-.56,1.17-1.78-.05-3.55-.26-5.33-.37-.92-.06-1.85,0-2.78,0Z" transform="translate(-377.25 -254.66)"/><path class="cls-1" d="M468.54,331.53l-1.92-.54.14.39a32.25,32.25,0,0,1-4.21.73c-2.75.12-5.51,0-8.27.05a14.07,14.07,0,0,0-2.16.41c.08-.74.14-1.47.24-2.19.48-3.35.88-6.71,1.49-10,.33-1.82,1.06-3.56,1.56-5.35s1-3.56,1.38-5.36c.67-2.94,1.3-5.89,2.09-9.49.61.83,1,1.15,1.09,1.53.46,3,.69,6.11,1.3,9.12.56,2.81,1.56,5.53,2.25,8.32.6,2.47,1.07,5,1.53,7.48.3,1.6-.19,3.68,2.58,3.49.35,0,.75.64,1.13,1Z" transform="translate(-377.25 -254.66)"/><path d="M617.31,304.91c-.65-4.84-.23-9.79-.1-14.64A1.52,1.52,0,0,0,615,289a2.29,2.29,0,0,0-1.33,1.83,1.52,1.52,0,0,0,2.2,1.7c2.14-1.24.8.85.47,1.77a13.87,13.87,0,0,0-.69,3.55,21.57,21.57,0,0,0,.59,7.72,1.51,1.51,0,0,0,2.2.9,4.31,4.31,0,0,0,2-3.65,12.79,12.79,0,0,0-.68-3.12c-.3-1.22-.1-3.56-.69-4.52q.27-2.14-1.41,0a11.38,11.38,0,0,0-.22,1.3c-.13,1,.11,2.24-.3,3.16,0,0-2.12,2.42-2.19,2.43-.32,0,.17-3.58.17-3.59.29-1.89-2.6-2.7-2.9-.79-.34,2.25-1.56,8.83,2.7,8.14,1.75-.28,2.55-2.29,3.61-3.43.59-.63,1.43-1.09,1.72-1.94a12.59,12.59,0,0,0,.09-3.07c.14-1.73,1.13-3.94-.51-5.29a2.38,2.38,0,0,0-2.94-.15c-1.28,1-.87,2.8-.74,4.18s2,6.82.82,7.71l2.2.89a18.45,18.45,0,0,1-.37-7.9c.3-1.71,2.07-3.52,1.8-5.29-.44-2.87-4.31-2.74-6.2-1.64l2.2,1.69,0,0-2.25-1.29c-.13,4.85-.55,9.8.1,14.64.25,1.88,3.26,1.91,3,0Z" transform="translate(-377.25 -254.66)"/><path d="M613.42,300.17a1.5,1.5,0,0,0,0-3,1.5,1.5,0,0,0,0,3Z" transform="translate(-377.25 -254.66)"/><path d="M613.34,300.5a1.5,1.5,0,0,0,0-3,1.5,1.5,0,0,0,0,3Z" transform="translate(-377.25 -254.66)"/><path d="M613.09,302.17a1.5,1.5,0,0,0,0-3,1.5,1.5,0,0,0,0,3Z" transform="translate(-377.25 -254.66)"/><path d="M614.93,340.49a4.11,4.11,0,0,1,1.51-2.39l-2.35-.31c-.13-.31-.29.53-.3.55-.18.5-.31,1-.46,1.53l-.83,2.75,3,.4c0-1.7,2.06-3.35,3.09-4.6l-2.51-.66c.85,2,0,5-.37,7.06h2.89a21.9,21.9,0,0,1-.51-2.27c-.12-.77,0-1.75-.19-2.49q.25-.9-.81-1.05l.26,1.11.51,2.2c.43,1.88,3.33,1.08,2.89-.8s-1.19-7.26-4.51-5.06c-2.55,1.69-1.17,6.81-.53,9.16.37,1.33,2.66,1.52,2.89,0,.41-2.63,1.44-6.1.37-8.65-.39-.93-1.7-1.64-2.51-.67-1.64,2-3.87,4-4,6.72-.06,1.72,2.47,2,2.95.4.63-2.1,2.2-5,1.28-7.14-.42-1-1.7-.84-2.36-.3A6.58,6.58,0,0,0,612,339.7c-.44,1.87,2.45,2.68,2.89.79Z" transform="translate(-377.25 -254.66)"/><path d="M656.09,326.75V330a1.5,1.5,0,0,0,3,0v-3.25a1.5,1.5,0,0,0-3,0Z" transform="translate(-377.25 -254.66)"/><path d="M592.13,303.74a61.27,61.27,0,0,0,.26-11.33l-2.95.4q.82,6.06,1.89,12.08c.27,1.54,2.48,1.3,2.89,0a168.11,168.11,0,0,0,4.26-17.59c.38-1.88-2.49-2.69-2.89-.8a105.36,105.36,0,0,0-2.08,22.83,1.51,1.51,0,0,0,3,.4c1.84-6.2,6.08-14.16,3-20.53a1.51,1.51,0,0,0-2.74.36q-1.2,6.26-2.14,12.54h2.89c-1.2-4.35-1.35-8.71-1.58-13.18-.08-1.74.23-4-1.08-5.35a1.51,1.51,0,0,0-2.56,1.06c0,2.85.14,5.69.34,8.54.13,1.92,3.14,1.93,3,0-.2-2.85-.31-5.69-.34-8.54l-2.56,1.06c1.1,1.14.38,7.6.52,9.25a42.09,42.09,0,0,0,1.37,8c.36,1.33,2.66,1.53,2.89,0,.63-4.2,1.34-8.37,2.14-12.54l-2.74.36c2.39,5-1.88,13.31-3.34,18.21l3,.4a102.46,102.46,0,0,1,2-22l-2.89-.8a168.11,168.11,0,0,1-4.26,17.59h2.89q-1.07-6-1.88-12.08c-.23-1.66-3.1-1.28-3,.4a61.29,61.29,0,0,1-.26,11.33c-.18,1.92,2.82,1.91,3,0Z" transform="translate(-377.25 -254.66)"/><path d="M589.67,279.08a1.5,1.5,0,0,0,0-3,1.5,1.5,0,0,0,0,3Z" transform="translate(-377.25 -254.66)"/><path d="M590.25,278.67a1.5,1.5,0,0,0,0-3,1.5,1.5,0,0,0,0,3Z" transform="translate(-377.25 -254.66)"/><path d="M588.67,279a1.5,1.5,0,0,0,0-3,1.5,1.5,0,0,0,0,3Z" transform="translate(-377.25 -254.66)"/><path d="M588.67,278.75a1.5,1.5,0,0,0,0-3,1.5,1.5,0,0,0,0,3Z" transform="translate(-377.25 -254.66)"/><path d="M587.06,281.87l1.6-2.16-2.74-.35,1,3.7c.35,1.36,2.62,1.49,2.89,0l.56-3.07h-2.9a27.69,27.69,0,0,0,1.3,4.3c.57,1.44,3.08,1.44,2.95-.39a8,8,0,0,1,1.41-4.95l-1.3.75c-.92.08-1,3.11-1.07,3.84-.23,1.58,1.81,2.73,2.75,1.15l2.78-4.68-2.75-.36a17.51,17.51,0,0,1,1,6.21l2.8-.76c-.35-.58-.68-1.16-1-1.77s-.72-3.2-.6-1.37l2.56-1.06c-1.75-1.72-2.35-4.39-5.23-4.34-1.93,0-1.93,3,0,3,.92,0,2.4,2.75,3.11,3.46a1.52,1.52,0,0,0,2.56-1.06c-.15-2.28-2-4.82-4.5-3.27-3,1.87-.82,5.72.49,7.93a1.51,1.51,0,0,0,2.79-.76,20.14,20.14,0,0,0-1.07-7,1.52,1.52,0,0,0-2.74-.36l-2.78,4.69,2.74,1.16c.28-1.93,2.11-7.32-1.3-7.69-3-.32-3.78,5.26-3.64,7.25l3-.4a26,26,0,0,1-1.3-4.3,1.51,1.51,0,0,0-2.9,0l-.55,3.06h2.89l-1-3.7a1.52,1.52,0,0,0-2.74-.36l-1.61,2.15c-1.15,1.55,1.45,3,2.6,1.52Z" transform="translate(-377.25 -254.66)"/><rect x="207.05" y="21.01" width="8.63" height="1.5"/><path d="M731.83,287.28a3.2,3.2,0,0,0,2,1.68,5,5,0,0,0,1.5.14,4.11,4.11,0,0,1,1.25,0c1.7.91,3.22-1.68,1.51-2.59a3.93,3.93,0,0,0-2.29-.4c-.5,0-1.19.24-1.43-.31a1.51,1.51,0,0,0-2-.54,1.54,1.54,0,0,0-.54,2.06Z" transform="translate(-377.25 -254.66)"/><path d="M737.29,293.24c1-1.28.21-3.16-.11-4.57s-.85-3-2.58-2.89c-1.52.1-1.86,1.4-1.88,2.67a19.89,19.89,0,0,1-1.33,7.12l2.74-.36a63.44,63.44,0,0,1-3.9-8.15,1.53,1.53,0,0,0-2.75-.36c-.88,1.3-.33,3.07-.18,4.54a17.47,17.47,0,0,1-.13,6.12l2.74-.35c-1.34-1.89-1.59-5.07-2.06-7.31l-2.89.79a39.9,39.9,0,0,1,2,7.57c.32,1.9,3.21,1.1,2.9-.79a39.53,39.53,0,0,0-2-7.57,1.5,1.5,0,0,0-2.89.79c.53,2.54.83,5.88,2.36,8a1.53,1.53,0,0,0,2.75-.36,17.06,17.06,0,0,0,.4-5.09c-.06-.86-.16-1.71-.25-2.57-.05-.48-.42-1.89-.15-2.29l-2.74-.36a69.29,69.29,0,0,0,4.21,8.88,1.52,1.52,0,0,0,2.74-.36,20.83,20.83,0,0,0,1.23-4.6c.12-.89-.11-3.06.16-3.64l-.9.69.43-.12-1.16-.16a8.63,8.63,0,0,1,.66,3.19c-1.18,1.53,1.42,3,2.59,1.51Z" transform="translate(-377.25 -254.66)"/><path d="M466,330.59c.38.79.78,1.56,1.2,2.32a1.5,1.5,0,1,0,2.59-1.51c-.42-.77-.82-1.54-1.19-2.32a1.52,1.52,0,0,0-2.06-.54,1.54,1.54,0,0,0-.54,2Z" transform="translate(-377.25 -254.66)"/><path d="M626.9,286.91c1.63,2.84,1.14,6.2,1.18,9.34,0,1.93,3,1.93,3,0,0-3.73.34-7.49-1.59-10.86a1.5,1.5,0,0,0-2.59,1.52Z" transform="translate(-377.25 -254.66)"/><path d="M630.33,306.11a7.73,7.73,0,0,0,.56-5.68c-.54-1.85-3.43-1.07-2.89.79a4.58,4.58,0,0,1-.26,3.37c-.86,1.73,1.73,3.25,2.59,1.52Z" transform="translate(-377.25 -254.66)"/><path d="M615.69,319.17l1.92.68c.26.09.72.2.87.44,1,1.63,3.62.13,2.59-1.52s-3-1.92-4.59-2.49a1.5,1.5,0,0,0-1.84,1.05,1.52,1.52,0,0,0,1.05,1.84Z" transform="translate(-377.25 -254.66)"/><path d="M672.06,320.49a5.93,5.93,0,0,0,.1-1.57,1.5,1.5,0,1,0-3,0,4.19,4.19,0,0,1,0,.5c0,.05-.06.47,0,.27a1.54,1.54,0,0,0,1.05,1.84,1.52,1.52,0,0,0,1.85-1Z" transform="translate(-377.25 -254.66)"/><path d="M670.5,322.33a1.5,1.5,0,0,0,0-3,1.5,1.5,0,0,0,0,3Z" transform="translate(-377.25 -254.66)"/></g><g id="Layer_2" data-name="Layer 2"><text class="cls-2" transform="translate(166.31 142.17)">del si<tspan class="cls-3" x="69.44" y="0">g</tspan><tspan x="86.79" y="0">lo XXI</tspan></text><text class="cls-4" transform="translate(172.79 11.84)">eius enim vinculum est ratio et oratio</text></g></svg>