<svg xmlns="http://www.w3.org/2000/svg" viewBox="0 0 509.71 151.19"><defs><style>.cls-1{fill:#fff;}</style></defs><title>logofinal</title><g id="Layer_1" data-name="Layer 1"><path class="cls-1" d="M377.84,389V254.66h509.7V389ZM593.84,282c-.21-.22-.46-.64-.63-.61-.79.16-1.56.45-2.51.74l.83.59-.87,1.72-2-1.5.68-.89.78,1c.37-.62.62-1,.81-1.37.34-.66.9-1.34.88-2s-.65-1.25-1-1.89c-.24-.46-.31-1.22-.65-1.35a8.62,8.62,0,0,0-2.84-.59c-2.38-.08-4.76,0-7.14,0,.28.42.58.53.85.48,2.8-.51,3.66.47,3.5,3.41-.3,5.54,0,11.1-.11,16.65,0,2.27-.4,4.54-.44,6.82q-.24,11.86-.35,23.74c0,2.25.25,4.5.31,6.74s0,4.29,0,6.44v16.55l-5.5.52c.38.77.89,1.18,1.42,1.19,2.69.08,5.39.05,8.09.05,2.18,0,4.36-.06,6.53,0,4.23.12,8.47.42,12.7.43,3.58,0,7.18-.49,10.75-.39,4.78.13,8.35-2.57,10.79-5.75a23,23,0,0,0,4-11c.59-5,.86-10.35-1.33-15.18a18.73,18.73,0,0,0-4.24-5.62,15.35,15.35,0,0,0-4.94-2.69,51.69,51.69,0,0,0-5.55-1.54l.68-.24-2.34-.6c3.55-.92,7.17-1.1,9.87-2.77s4.2-4.74,6.43-7.43h-1.63c.7-1.07,1.82-2,1.94-3.11a46.63,46.63,0,0,0,.06-7.75c-.18-3,0-6.15-3.09-8.17l2-.94c-2-1.57-3.83-2.61-5.07-4.15a12.87,12.87,0,0,0-8.64-4.92c-5.15-.62-10.38-.59-15.58-.79-.52,0-1.07.42-1.59.39-2.93-.16-5.86-.39-8.85-.61l.81,2.3,1.91-.43,1.2,3.42.92-1.08-1.2-2.47,1.14.23,2.51,3.3-1,.91-.34-2.34-.92.91.57,1.09-2.38-.4-.32,1Zm98.49-6.27v82.63h-4.14v1.51h31.09v-1.76a28.65,28.65,0,0,0-3.09.74c-2,.71-3.25-.26-3.08-2.28.21-2.52.42-5,.47-7.55.13-6.44.2-12.88.25-19.33,0-4.56,0-9.13,0-13.76a21.05,21.05,0,0,0,2.39.42,6.34,6.34,0,0,1,5.93,6c.11,2.22-.41,4.47-.39,6.71,0,2.83.37,5.66.41,8.49,0,2.35-.2,4.7-.31,7.05a16.63,16.63,0,0,0-.08,3c.38,2.63.94,5.24,1.34,7.87.37,2.38,3.74,5.87,6.16,6,5.51.33,11,.17,15.46-3.71a5.66,5.66,0,0,0,.91-1.6l-.44-.42-3.3,2.09V340.14a86.69,86.69,0,0,0-.08-9.54c-.3-2.71-.7-5.74-2.14-7.92a14.1,14.1,0,0,0-9-6.11c-2.44-.48-4.95-.59-7.42-.87a4,4,0,0,1,2.19-1.28c2.61-.67,5.53-.77,7.81-2,5-2.79,7.42-7.62,7.87-13.14.32-4,.73-8.17-1.76-11.85-1.3-1.91-2.22-4.13-3.74-5.83a14.64,14.64,0,0,0-5.08-3.68,40.3,40.3,0,0,0-8-2.08c-1.14-.2-2.43.48-3.61.35-1.91-.2-3.76-1-5.66-1.07-3.49-.19-7,0-10.5-.07-2.83-.07-5.66-.41-8.49-.43a59.26,59.26,0,0,0-6.09.49c-.12,0-.2.34-.37.63Zm-33.62,53v-1.52l.88-.13c0-2.91,0-5.7,0-8.5,0-.48.07-1,.11-1.45a3.87,3.87,0,0,1,1.36.3,14.47,14.47,0,0,1,5.75,7.68q1.92,5.59,3.52,11.3a54.82,54.82,0,0,1,1,5.59l.74.07c.29-2.35.59-4.71.88-7.07-.33-.55-.14-1-.13-1.54,0-4,0-7.92,0-11.88a6.25,6.25,0,0,0-.5-1.72,3.38,3.38,0,0,0,.51-1.18q0-12.29,0-24.56a3.08,3.08,0,0,0-.45-1.09c-.25.27-.71.52-.74.81-.27,2.88-.46,5.75-.68,8.63a1.84,1.84,0,0,0-1,1,68.58,68.58,0,0,1-3.19,6.7,31.4,31.4,0,0,1-4.06,4.88,2.37,2.37,0,0,1-1.88.65c-.4-.09-.86-1-.87-1.59-.08-3.5,0-7,0-10.5,0-.72.15-1.44.16-2.16q.07-6.6.13-13.22c0-.18.05-.37,0-.55-.06-2.73-.2-5.46-.17-8.19a13.77,13.77,0,0,1,.68-3.14,1.31,1.31,0,0,1,.83.06,62.72,62.72,0,0,1,7.33,4.41,43,43,0,0,1,7.15,6.86,30.35,30.35,0,0,1,4.2,7.56,39.91,39.91,0,0,1,1.93,7.54c.47,2.39.69,4.84,1,7.26h.89q.41-7.36.79-14.72a21,21,0,0,1-.06-4c-.09-3.57-.35-7.14-.43-10.72,0-1.28.35-2.58.33-3.86a1.61,1.61,0,0,0-1.12-1.13c-1.49-.11-3,.06-4.49.05-6.07-.06-12.13-.18-18.19-.23-4.37,0-8.73,0-13.09,0-1.95,0-3.89.06-5.83,0A30.73,30.73,0,0,1,638,275c-2-.35-2.85.24-2.52,2.08l4.63-.6v9.1c.09,1.63.21,2.9.22,4.18,0,2.89.09,5.79,0,8.68-.07,1.89-.62,3.77-.62,5.65,0,6.76.13,13.51.16,20.27,0,8.06,0,16.13,0,24.2,0,3,.06,6.05-.07,9.07,0,.39-1,1.05-1.51,1.05a18.72,18.72,0,0,1-3.39-.59v2.31c2-.22,3.86-.57,5.74-.6s3.58.4,5.37.4,3.79-.44,5.68-.41c3.53,0,7.06.37,10.6.43,4.84.07,9.68,0,14.52,0,.77,0,1.55,0,2.33-.07a22.65,22.65,0,0,1,4.76-.32c1.64.23,2.11-.26,2.09-1.76,0-1.72,0-3.45,0-5.18.07-10.14.15-20.28.16-30.42,0-.44-.61-.87-1.14-1.58-.3,2.72-.39,4.87-.8,7a54.39,54.39,0,0,1-2.36,9.71c-1.7,4.22-3.57,8.5-7,11.74a75.23,75.23,0,0,1-7.54,6.53c-1.47,1.06-3.55,1.23-5.27,2-2.73,1.23-2.76-.14-2.28-2.17a3.45,3.45,0,0,0,0-.72V329.53a5.43,5.43,0,0,0-.09-.69Zm-218-9.39c-.73.37-.92.43-.92.48,0,1.26.07,2.52-.07,3.76-.55,4.7-.95,9.43-1.86,14.07a27.9,27.9,0,0,1-3,7.63,35.26,35.26,0,0,1-4.29,5.79,19,19,0,0,1-4.08,4,76.52,76.52,0,0,1-7.09,3.34c-2.29,1.11-3.86.37-3.92-1.88-.12-4.33-.41-8.66-.44-13,0-3.2.37-6.41.42-9.62,0-1.73-.42-3.46-.43-5.2-.05-8.24,0-16.47,0-24.71a9.74,9.74,0,0,1,0-1.08,93.13,93.13,0,0,0,.79-9.55c-.07-5.31-.55-10.61-.75-15.92,0-.3.87-.85,1.38-.9a37.58,37.58,0,0,1,3.83,0c-.48-.9-.94-1.45-1.42-1.46q-4.39-.07-8.81.05c-1.6.05-3.2.37-4.79.34-2.6,0-5.2-.24-7.79-.46-1.15-.09-2.29-.47-3.45-.6a5.8,5.8,0,0,0-2.07.2c-.18,0-.2.69-.37,1.38,4.27-1.35,4,1.2,4,3.88-.11,5.08,0,10.17,0,15.25,0,2.3.05,4.59-.07,6.88-.09,1.81-.57,3.61-.58,5.42,0,2.43.37,4.86.39,7.3q.07,12.94,0,25.91c0,2.18-.47,4.35-.41,6.53.09,3.39.45,6.78.65,10.17a4.93,4.93,0,0,1-.25,1.43l-3.81-.49.69,1.76h48.47c.15-2.3.3-4.64.45-7l-.4,0Zm110.9-28.91-.3,0v55.06a17.86,17.86,0,0,0-.44,2.19c0,2.72-.16,5.45,0,8.16.14,1.95-.71,2.18-2.28,2-1.14-.11-2.31,0-3.47,0,.27.95.84,1.66,1.41,1.65,2.29,0,4.58-.39,6.87-.38,2.65,0,5.3.37,8,.41,1.71,0,3.42-.37,5.13-.42,2.47-.08,5,0,7.42,0h2.69l.78-1c-1.85-.17-3.83.21-4.74-.6s-.73-2.8-1-4.16a6.63,6.63,0,0,0,.33-1.45c0-2.56,0-5.11,0-7.66.07-8.67.18-17.34.23-26,0-4.64,0-9.29,0-13.93,0-1.81.18-3.62.17-5.44,0-5.29-.11-10.58-.16-15.88,0-1.32,0-2.64,0-4s-.44-2.93,2-2.5a13.44,13.44,0,0,0,3.48-.32l0-.87H545.84l0,.45h5.8Zm195.28,69.32c3.8-.24,7.38-.59,11-.64,3.24,0,6.49.25,9.74.45.55,0,1.07.5,1.62.53a39.35,39.35,0,0,0,4.73.09,22.87,22.87,0,0,0,3.91-.68c.2-.05.26-.67.42-1.12l-4.18-.34a30.18,30.18,0,0,1-.68-4.29c-.06-1.45.36-2.9.41-4.36.08-2.38,0-4.76,0-7.14V329.1c0-6-.05-12.08,0-18.12,0-3.13.34-6.26.45-9.39.07-2.24,0-4.48,0-6.72,0-1-.06-1.95-.1-2.93-.1-2.85-.26-5.71-.29-8.56a34.12,34.12,0,0,1,.37-3.77c.1-1-.13-2.49.41-2.87s2,.09,3,.07a10.2,10.2,0,0,0,1.94-.37,14.13,14.13,0,0,0-4.95-.71c-3.74-.2-7.48-.59-11.23-.67-4.27-.09-8.55.05-12.83.13-1.08,0-2.15.23-3.22.34l0,.85h5.74c0,7.82,0,15.3,0,22.78,0,1.91-.12,3.82-.24,5.74-.13,2.17-.44,4.34-.43,6.51,0,2.58.38,5.15.42,7.73.07,4.9,0,9.81,0,14.71,0,3,0,6,0,9,0,3.95.35,7.9.12,11.82-.08,1.35.48,4.32-3,3.28C749.07,357.62,747.06,357,746.88,359.75Zm89.65.85-.11-1c-.31,0-.62-.06-.93-.06-2.26,0-5.08.83-4.92-3.08a5.44,5.44,0,0,0,.11-1.43c-.5-1.95-1.22-3.86-1.61-5.82-1-4.79-1.74-9.61-2.68-14.39-.73-3.75-1.64-7.47-2.37-11.21-.93-4.75-1.82-9.51-2.63-14.28-.65-3.78-1.12-7.58-1.73-11.36q-.63-3.85-1.44-7.66c-.94-4.39-2-8.76-3-13.47l-4.6-.38v.12h-8.44c-.32,2-.56,4.22-1,6.37-.87,3.93-1.89,7.82-2.83,11.73-.44,1.84-.81,3.69-1.29,5.51-.39,1.49-1,2.92-1.33,4.41-.49,2.15-.8,4.34-1.27,6.49-.75,3.43-1.61,6.83-2.34,10.25-.56,2.66-.89,5.37-1.53,8-.86,3.6-2,7.14-2.87,10.73-.42,1.69-.59,3.45-1,5.15-.48,2.12-1.13,4.2-1.58,6.32-.57,2.63-1.19,5.17-4,6.36-.29.12-.44.76-.5,1.19,0,.19.31.63.49.63,3,.06,5.93.08,8.9,0,.31,0,.9-.56.86-.75a1.69,1.69,0,0,0-.8-1.13c-1.95-.61-3.73-1.23-3.23-3.9.68-3.69,1.28-7.39,1.92-11.09s1.2-7.11,1.81-10.69h14.66c.2,1.26.3,2.41.58,3.51,1,4,2.14,7.9,3.06,11.88.77,3.3,1.33,6.66,1.91,10,.07.42-.32,1.31-.5,1.31-1.47,0-2.94-.15-4.41-.24-.44,0-1.22-.1-1.26,0a4.55,4.55,0,0,0-.06,1.4c1.68-.11,3-.31,4.3-.27,1.82.06,3.63.37,5.45.44,5.49.2,11,.33,16.48.5.27,0,.54.17.8.16C833.2,360.82,834.87,360.7,836.53,360.6Zm-384.1-1c-3.67-.44-5-1.79-4.51-4.51.52-3.14.91-6.31,1.48-9.44s1.2-6.09,1.9-9.12c.38-1.66.28-3.47,3.18-3.28,3.67.24,7.4-.37,11.1-.58a1,1,0,0,1,.78.42c.46,1.71.84,3.43,1.27,5.15.77,3.06,1.57,6.11,2.33,9.18.39,1.57.75,3.15,1.08,4.73.46,2.25.88,4.51,1.33,6.82l-6.72.49.08,1.61c2.24-.28,4.37-.67,6.52-.79,2.31-.14,4.65-.09,7,0,2,.06,4.1.32,6.15.4s4.29.11,6.42,0c.44,0,1.24-.89,1.18-1.23-.5-2.66-1.14-5.29-1.78-7.93-1-3.94-2.07-7.86-2.91-11.84-.79-3.77-1.25-7.61-2-11.4-.77-4-1.68-8-2.54-12-.58-2.7-1.25-5.38-1.75-8.09s-.71-5.23-1.23-7.82c-1-4.86-2.1-9.69-3.09-14.56-.59-2.92-1-5.87-1.55-8.86-1.13,0-2.19.07-3.24,0-2.28-.19-4.54-.5-6.82-.68-1.83-.14-3.26.32-3.58,2.5-.39,2.73-.87,5.44-1.37,8.15-.55,3-1.14,6-1.74,9.05-.4,2.05-.73,4.12-1.29,6.12-.75,2.7-1.83,5.31-2.5,8-.8,3.2-1.35,6.47-1.94,9.73-.84,4.57-1.6,9.16-2.43,13.73-.47,2.6-.92,5.2-1.5,7.77-.88,4-1.69,8-2.88,11.84a38.1,38.1,0,0,1-3.14,6.21,4,4,0,0,1-.8.78c.39.27.79.76,1.19.77,2.75.07,5.51,0,8.32,0Zm404.72-7.29c-.08-.5-.38-1.86-.49-3.23-.35-4.11-1.25-7.68-5.61-9.63-4.92-2.21-11.4,1.35-11.43,6.73,0,2.83-.14,5.89.86,8.42a9.37,9.37,0,0,0,5,4.72c1.64.61,2.23,1.22,1.69,2.42a14,14,0,0,1-2.9,3.95c-1.26,1.27-2.82,2.22-4.16,3.42-.34.31-.32,1-.47,1.54a7.71,7.71,0,0,0,1.5.15,10.8,10.8,0,0,0,3-.51c2.52-1.07,5.34-1.88,7.35-3.59C855.54,363.28,857.05,358.46,857.15,352.32Z" transform="translate(-377.84 -254.66)"/><path d="M692.33,275.7H687.8c.17-.29.25-.62.37-.63a59.26,59.26,0,0,1,6.09-.49c2.83,0,5.66.36,8.49.43,3.5.08,7-.12,10.5.07,1.9.1,3.75.87,5.66,1.07,1.18.13,2.47-.55,3.61-.35a40.3,40.3,0,0,1,8,2.08,14.64,14.64,0,0,1,5.08,3.68c1.52,1.7,2.44,3.92,3.74,5.83,2.49,3.68,2.08,7.86,1.76,11.85-.45,5.52-2.89,10.35-7.87,13.14-2.28,1.27-5.2,1.37-7.81,2a4,4,0,0,0-2.19,1.28c2.47.28,5,.39,7.42.87a14.1,14.1,0,0,1,9,6.11c1.44,2.18,1.84,5.21,2.14,7.92a86.69,86.69,0,0,1,.08,9.54v17.65l3.3-2.09.44.42a5.66,5.66,0,0,1-.91,1.6c-4.5,3.88-10,4-15.46,3.71-2.42-.15-5.79-3.64-6.16-6-.4-2.63-1-5.24-1.34-7.87a16.63,16.63,0,0,1,.08-3c.11-2.35.34-4.7.31-7.05,0-2.83-.4-5.66-.41-8.49,0-2.24.5-4.49.39-6.71a6.34,6.34,0,0,0-5.93-6,21.05,21.05,0,0,1-2.39-.42c0,4.63,0,9.2,0,13.76-.05,6.45-.12,12.89-.25,19.33-.05,2.51-.26,5-.47,7.55-.17,2,1.13,3,3.08,2.28a28.65,28.65,0,0,1,3.09-.74v1.76H688.19v-1.51h4.14Zm29.48,10.37.41-.11c-.39-1.86-.76-3.72-1.18-5.57a5.51,5.51,0,0,0-6.79-4.1,1,1,0,0,0-.62.67q0,9.84,0,19.69c0,3.33.15,6.66.19,10,0,2.79,0,5.59,0,8.42h1.57c.07-.41.14-.76.11-.64,1.35-.1,2.71.2,3.53-.34,2.76-1.8,3-4.88,3.13-7.8.16-3.39.06-6.8,0-10.2,0-.64-.39-1.29-.37-1.93.07-2,.3-4,.36-6A9.17,9.17,0,0,0,721.81,286.07Zm15.41,2.47-1.08,1.35.42.43,1.58-1.45-.45-.65,1.09.15-.09-1.85-5.23.72.16,1.08,2.56-.48-.9,1.38Zm-6.77,1.79-.26-.48-2.69,1.28c.4,1.13.61,1.72.81,2.3l2-.75,0,.59,2.17-.19,0-.36-4.7-1.06Z" transform="translate(-377.84 -254.66)"/><path d="M593.81,282l.32-1,2.38.4-.57-1.09.92-.91.34,2.34,1-.91-2.51-3.3-1.14-.23,1.2,2.47-.92,1.08-1.2-3.42-1.91.43-.81-2.3c3,.22,5.92.45,8.85.61.52,0,1.07-.41,1.59-.39,5.2.2,10.43.17,15.58.79a12.87,12.87,0,0,1,8.64,4.92c1.24,1.54,3.11,2.58,5.07,4.15l-2,.94c3.05,2,2.91,5.2,3.09,8.17a46.63,46.63,0,0,1-.06,7.75c-.12,1.08-1.24,2-1.94,3.11h1.63c-2.23,2.69-3.85,5.83-6.43,7.43s-6.32,1.85-9.87,2.77l2.34.6-.68.24a51.69,51.69,0,0,1,5.55,1.54,15.35,15.35,0,0,1,4.94,2.69,18.73,18.73,0,0,1,4.24,5.62c2.19,4.83,1.92,10.15,1.33,15.18a23,23,0,0,1-4,11c-2.44,3.18-6,5.88-10.79,5.75-3.57-.1-7.17.4-10.75.39-4.23,0-8.47-.31-12.7-.43-2.17-.06-4.35,0-6.53,0-2.7,0-5.4,0-8.09-.05-.53,0-1-.42-1.42-1.19l5.5-.52V340c0-2.15,0-4.29,0-6.44s-.33-4.49-.31-6.74q.09-11.87.35-23.74c0-2.28.41-4.55.44-6.82.06-5.55-.19-11.11.11-16.65.16-2.94-.7-3.92-3.5-3.41-.27.05-.57-.06-.85-.48,2.38,0,4.76-.05,7.14,0a8.62,8.62,0,0,1,2.84.59c.34.13.41.89.65,1.35.33.64,1,1.25,1,1.89s-.54,1.34-.88,2c-.19.39-.44.75-.81,1.37l-.78-1-.68.89,2,1.5.87-1.72-.83-.59c.95-.29,1.72-.58,2.51-.74.17,0,.42.39.63.61l-2.07,1.24h2.17c0,.85.1,1.59.15,2.35l1-.42-1,1.78,1.57.1.15-.91.85,1.42,1-.3-1.27-4.76Zm10.54-2.27a6.35,6.35,0,0,1,.27,1.46c-.12,2.6-.37,5.18-.44,7.77-.08,3.1,0,6.21,0,9.31,0,2.11,0,4.22,0,6.33.09,3.88.23,7.76.36,11.76l-.37.05c-.31,12.26-.63,24.5-.93,36.46l.34,4.23c1.44,0,2.9.32,4.13-.08s3.26-1.36,3.48-2.38a60.67,60.67,0,0,0,.86-9.56c.11-2,0-4,0-6.06V323.88a12.89,12.89,0,0,0-.06-3.35c-.73-2.62-2.18-4.64-5.28-4.89,1-.23,2.6.05,2.85-.41a18.06,18.06,0,0,0,2.39-6,59.48,59.48,0,0,0,.1-8.45l.62.2,1.31-1.54.2,1.85,2.08.54-2.94.18-.67.77a5.35,5.35,0,0,0,1.55.52,6.17,6.17,0,0,0,1.67-.45l.75,1.44,3,.29-1.78-1.31,2.72-.93-.68-1.22v-5.72l-2.47,1.26-.07,1.22H617v-4.15c-.6,2.36-3,3.7-.64,5.65L615,300.74,614,297.33l-1.55,1.18c.14-2.23.19-4,.38-5.69.12-1.07.72-2.14.62-3.17-.22-2.38-.83-4.72-1.1-7.1-.5-4.58-2.76-6.43-7.64-6Zm-4.69,10.08-3.89,2.57-.32-.93h-1.81a10.16,10.16,0,0,0,1.33,2.18c.2.2.93-.13,1.4-.21l.37,1.76-.41-.2-1.09,4.3-.27-.19-.9,1.3V298l-.66,0c0,1-.1,2.06-.16,3.27L591.17,300l-.2.38,1.35,1.49-1.53,1.23,1.51.07,1.14,2.22c.41-1.05.63-1.59.83-2.09l.84.79,2.55-3.85-.95-.52,2.4-1.75c-.09-.19-.18-.36-.24-.53s-.1-.34-.15-.5l-1.64.68-.24-.49,2.06-1c-.14-.4-.32-.91-.3-.84C599,293,599.37,291.29,599.66,289.81Zm17.52,53.38.64.4,2.46-3-1.71-1.24.44-1.66-.62.35c-.08-.33-.16-.66-.11-.44l-2.79,2.92c-.21-1.6-.29-2.18-.38-2.86L613,339.85l2.24.5-.9,1.71,2.17-1.51,1.54,1.14Zm-29.46-64a6.41,6.41,0,0,1,.6-.88,11.54,11.54,0,0,1,1.16-.88l-1.88.27-2.23,3.38.3.56,1.86-1.22.22.29,2.09-1.42-.21-.48Zm26.42,12.08,6.07.29C617.81,289.44,615.61,289.44,614.14,291.3Z" transform="translate(-377.84 -254.66)"/><path d="M658.71,328.73l1,.11a5.43,5.43,0,0,1,.09.69V355a3.45,3.45,0,0,1,0,.72c-.48,2-.45,3.4,2.28,2.17,1.72-.77,3.8-.94,5.27-2a75.23,75.23,0,0,0,7.54-6.53c3.42-3.24,5.29-7.52,7-11.74a54.39,54.39,0,0,0,2.36-9.71c.41-2.09.5-4.24.8-7,.53.71,1.14,1.14,1.14,1.58,0,10.14-.09,20.28-.16,30.42,0,1.73-.06,3.46,0,5.18,0,1.5-.45,2-2.09,1.76a22.65,22.65,0,0,0-4.76.32c-.78.05-1.56.07-2.33.07-4.84,0-9.68.06-14.52,0-3.54-.06-7.07-.39-10.6-.43-1.89,0-3.78.4-5.68.41s-3.58-.43-5.37-.4-3.76.38-5.74.6v-2.31a18.72,18.72,0,0,0,3.39.59c.53,0,1.49-.66,1.51-1.05.13-3,.07-6,.07-9.07,0-8.07,0-16.14,0-24.2,0-6.76-.18-13.51-.16-20.27,0-1.88.55-3.76.62-5.65.11-2.89,0-5.79,0-8.68,0-1.28-.13-2.55-.22-4.18v-9.1l-4.63.6c-.33-1.84.53-2.43,2.52-2.08a30.73,30.73,0,0,0,3.93.46c1.94.08,3.88,0,5.83,0,4.36,0,8.72,0,13.09,0,6.06.05,12.12.17,18.19.23,1.5,0,3-.16,4.49-.05a1.61,1.61,0,0,1,1.12,1.13c0,1.28-.36,2.58-.33,3.86.08,3.58.34,7.15.43,10.72a21,21,0,0,0,.06,4q-.39,7.36-.79,14.72h-.89c-.34-2.42-.56-4.87-1-7.26a39.91,39.91,0,0,0-1.93-7.54,30.35,30.35,0,0,0-4.2-7.56,43,43,0,0,0-7.15-6.86,62.72,62.72,0,0,0-7.33-4.41,1.31,1.31,0,0,0-.83-.06,13.77,13.77,0,0,0-.68,3.14c0,2.73.11,5.46.17,8.19,0,.18,0,.37,0,.55q-.06,6.62-.13,13.22c0,.72-.16,1.44-.16,2.16,0,3.5-.05,7,0,10.5,0,.57.47,1.5.87,1.59a2.37,2.37,0,0,0,1.88-.65,31.4,31.4,0,0,0,4.06-4.88,68.58,68.58,0,0,0,3.19-6.7,1.84,1.84,0,0,1,1-1c.22-2.88.41-5.75.68-8.63,0-.29.49-.54.74-.81a3.08,3.08,0,0,1,.45,1.09q0,12.27,0,24.56a3.38,3.38,0,0,1-.51,1.18,6.25,6.25,0,0,1,.5,1.72c.05,4,0,7.92,0,11.88,0,.5-.2,1,.13,1.54-.29,2.36-.59,4.72-.88,7.07l-.74-.07a54.82,54.82,0,0,0-1-5.59q-1.61-5.7-3.52-11.3a14.47,14.47,0,0,0-5.75-7.68,3.87,3.87,0,0,0-1.36-.3c0,.48-.11,1-.11,1.45,0,2.8,0,5.59,0,8.5l-.88.13Z" transform="translate(-377.84 -254.66)"/><path d="M440.7,319.34V353l.4,0c-.15,2.33-.3,4.67-.45,7H392.18l-.69-1.76,3.81.49a4.93,4.93,0,0,0,.25-1.43c-.2-3.39-.56-6.78-.65-10.17-.06-2.18.39-4.35.41-6.53q.07-13,0-25.91c0-2.44-.41-4.87-.39-7.3,0-1.81.49-3.61.58-5.42.12-2.29.06-4.58.07-6.88,0-5.08-.08-10.17,0-15.25.06-2.68.29-5.23-4-3.88.17-.69.19-1.33.37-1.38a5.8,5.8,0,0,1,2.07-.2c1.16.13,2.3.51,3.45.6,2.59.22,5.19.41,7.79.46,1.59,0,3.19-.29,4.79-.34q4.41-.12,8.81-.05c.48,0,.94.56,1.42,1.46a37.58,37.58,0,0,0-3.83,0c-.51.05-1.4.6-1.38.9.2,5.31.68,10.61.75,15.92a93.13,93.13,0,0,1-.79,9.55,9.74,9.74,0,0,0,0,1.08c0,8.24,0,16.47,0,24.71,0,1.74.45,3.47.43,5.2-.05,3.21-.43,6.42-.42,9.62,0,4.34.32,8.67.44,13,.06,2.25,1.63,3,3.92,1.88a76.52,76.52,0,0,0,7.09-3.34,19,19,0,0,0,4.08-4,35.26,35.26,0,0,0,4.29-5.79,27.9,27.9,0,0,0,3-7.63c.91-4.64,1.31-9.37,1.86-14.07.14-1.24,0-2.5.07-3.76C439.78,319.77,440,319.71,440.7,319.34Z" transform="translate(-377.84 -254.66)"/><path d="M551.6,290.43V275.69h-5.8l0-.45h31.87l0,.87a13.44,13.44,0,0,1-3.48.32c-2.44-.43-2,1.17-2,2.5s0,2.64,0,4c0,5.3.13,10.59.16,15.88,0,1.82-.16,3.63-.17,5.44,0,4.64,0,9.29,0,13.93-.05,8.67-.16,17.34-.23,26,0,2.55,0,5.1,0,7.66a6.63,6.63,0,0,1-.33,1.45c.28,1.36.11,3.36,1,4.16s2.89.43,4.74.6l-.78,1h-2.69c-2.47,0-4.95-.06-7.42,0-1.71.05-3.42.44-5.13.42-2.65,0-5.3-.4-8-.41-2.29,0-4.58.36-6.87.38-.57,0-1.14-.7-1.41-1.65,1.16,0,2.33-.09,3.47,0,1.57.16,2.42-.07,2.28-2-.2-2.71-.07-5.44,0-8.16a17.86,17.86,0,0,1,.44-2.19V290.41Z" transform="translate(-377.84 -254.66)"/><path d="M746.88,359.75c.18-2.77,2.19-2.13,3.18-1.84,3.48,1,2.92-1.93,3-3.28.23-3.92-.07-7.87-.12-11.82,0-3,0-6,0-9,0-4.9.05-9.81,0-14.71,0-2.58-.41-5.15-.42-7.73,0-2.17.3-4.34.43-6.51.12-1.92.23-3.83.24-5.74,0-7.48,0-15,0-22.78h-5.74l0-.85c1.07-.11,2.14-.32,3.22-.34,4.28-.08,8.56-.22,12.83-.13,3.75.08,7.49.47,11.23.67a14.13,14.13,0,0,1,4.95.71,10.2,10.2,0,0,1-1.94.37c-1,0-2.34-.53-3-.07s-.31,1.87-.41,2.87a34.12,34.12,0,0,0-.37,3.77c0,2.85.19,5.71.29,8.56,0,1,.09,1.95.1,2.93,0,2.24.06,4.48,0,6.72-.11,3.13-.41,6.26-.45,9.39-.07,6,0,12.08,0,18.12v13.15c0,2.38.06,4.76,0,7.14-.05,1.46-.47,2.91-.41,4.36a30.18,30.18,0,0,0,.68,4.29l4.18.34c-.16.45-.22,1.07-.42,1.12a22.87,22.87,0,0,1-3.91.68,39.35,39.35,0,0,1-4.73-.09c-.55,0-1.07-.5-1.62-.53-3.25-.2-6.5-.48-9.74-.45C754.26,359.16,750.68,359.51,746.88,359.75Z" transform="translate(-377.84 -254.66)"/><path d="M836.53,360.6c-1.66.1-3.33.22-5,.3-.26,0-.53-.15-.8-.16-5.5-.17-11-.3-16.48-.5-1.82-.07-3.63-.38-5.45-.44-1.31,0-2.62.16-4.3.27a4.55,4.55,0,0,1,.06-1.4c0-.12.82-.05,1.26,0,1.47.09,2.94.25,4.41.24.18,0,.57-.89.5-1.31-.58-3.35-1.14-6.71-1.91-10-.92-4-2.06-7.91-3.06-11.88-.28-1.1-.38-2.25-.58-3.51H790.52q-.91,5.37-1.81,10.69c-.64,3.7-1.24,7.4-1.92,11.09-.5,2.67,1.28,3.29,3.23,3.9a1.69,1.69,0,0,1,.8,1.13c0,.19-.55.74-.86.75-3,0-5.94,0-8.9,0-.18,0-.52-.44-.49-.63.06-.43.21-1.07.5-1.19,2.85-1.19,3.47-3.73,4-6.36.45-2.12,1.1-4.2,1.58-6.32.38-1.7.55-3.46,1-5.15.91-3.59,2-7.13,2.87-10.73.64-2.64,1-5.35,1.53-8,.73-3.42,1.59-6.82,2.34-10.25.47-2.15.78-4.34,1.27-6.49.34-1.49.94-2.92,1.33-4.41.48-1.82.85-3.67,1.29-5.51.94-3.91,2-7.8,2.83-11.73.48-2.15.72-4.35,1-6.37h8.44v-.12l4.6.38c1,4.71,2.07,9.08,3,13.47q.81,3.81,1.44,7.66c.61,3.78,1.08,7.58,1.73,11.36.81,4.77,1.7,9.53,2.63,14.28.73,3.74,1.64,7.46,2.37,11.21.94,4.78,1.72,9.6,2.68,14.39.39,2,1.11,3.87,1.61,5.82a5.44,5.44,0,0,1-.11,1.43c-.16,3.91,2.66,3,4.92,3.08.31,0,.62,0,.93.06Zm-40-29.42V331c.92,0,1.85-.05,2.78,0,1.78.11,3.55.32,5.32.37.19,0,.64-.82.57-1.17-.56-2.69-1.24-5.35-1.85-8-1.05-4.6-2.15-9.2-3.1-13.84-.42-2-.47-4.16-.77-6.23a11.82,11.82,0,0,0-.73-2.12h-.63q-3.61,15.19-7.22,30.41l.53.81Z" transform="translate(-377.84 -254.66)"/><path d="M452.43,359.61V361c-2.81,0-5.57,0-8.32,0-.4,0-.8-.5-1.19-.77a4,4,0,0,0,.8-.78,38.1,38.1,0,0,0,3.14-6.21c1.19-3.88,2-7.88,2.88-11.84.58-2.57,1-5.17,1.5-7.77.83-4.57,1.59-9.16,2.43-13.73.59-3.26,1.14-6.53,1.94-9.73.67-2.72,1.75-5.33,2.5-8,.56-2,.89-4.07,1.29-6.12.6-3,1.19-6,1.74-9.05.5-2.71,1-5.42,1.37-8.15.32-2.18,1.75-2.64,3.58-2.5,2.28.18,4.54.49,6.82.68,1,.08,2.11,0,3.24,0,.52,3,1,5.94,1.55,8.86,1,4.87,2.12,9.7,3.09,14.56.52,2.59.75,5.23,1.23,7.82s1.17,5.39,1.75,8.09c.86,4,1.77,8,2.54,12,.72,3.79,1.18,7.63,2,11.4.84,4,2,7.9,2.91,11.84.64,2.64,1.28,5.27,1.78,7.93.06.34-.74,1.21-1.18,1.23-2.13.11-4.28.08-6.42,0s-4.1-.34-6.15-.4c-2.32-.07-4.66-.12-7,0-2.15.12-4.28.51-6.52.79l-.08-1.61,6.72-.49c-.45-2.31-.87-4.57-1.33-6.82-.33-1.58-.69-3.16-1.08-4.73-.76-3.07-1.56-6.12-2.33-9.18-.43-1.72-.81-3.44-1.27-5.15a1,1,0,0,0-.78-.42c-3.7.21-7.43.82-11.1.58-2.9-.19-2.8,1.62-3.18,3.28-.7,3-1.35,6.07-1.9,9.12s-1,6.3-1.48,9.44C447.46,357.82,448.76,359.17,452.43,359.61Zm16.7-28.08.22-.46c-.38-.35-.78-1-1.13-1-2.77.19-2.29-1.89-2.58-3.49-.47-2.5-.93-5-1.53-7.48-.69-2.79-1.69-5.51-2.26-8.32-.6-3-.84-6.09-1.29-9.12-.06-.38-.48-.7-1.1-1.53-.78,3.6-1.41,6.55-2.09,9.49-.41,1.8-.88,3.59-1.37,5.36s-1.23,3.53-1.56,5.35c-.62,3.33-1,6.69-1.49,10-.1.72-.16,1.45-.24,2.19a14.07,14.07,0,0,1,2.16-.41c2.76,0,5.52.07,8.27-.05a32.25,32.25,0,0,0,4.21-.73l-.14-.39Z" transform="translate(-377.84 -254.66)"/><path class="cls-1" d="M721.81,286.07a9.17,9.17,0,0,1,.37,2.11c-.06,2-.29,4-.36,6,0,.64.36,1.29.37,1.93,0,3.4.14,6.81,0,10.2-.14,2.92-.37,6-3.13,7.8-.82.54-2.18.24-3.53.34,0-.12,0,.23-.11.64h-1.57c0-2.83,0-5.63,0-8.42,0-3.33-.17-6.66-.19-10q-.06-9.86,0-19.69a1,1,0,0,1,.62-.67,5.51,5.51,0,0,1,6.79,4.1c.42,1.85.79,3.71,1.18,5.57Z" transform="translate(-377.84 -254.66)"/><path class="cls-1" d="M737.22,288.54l-1.94.68.9-1.38-2.56.48-.16-1.08,5.23-.72.09,1.85-1.09-.15.45.65-1.58,1.45-.42-.43Z" transform="translate(-377.84 -254.66)"/><path class="cls-1" d="M730.45,290.33l-2.67,1.33,4.7,1.06,0,.36-2.17.19,0-.59-2,.75c-.2-.58-.41-1.17-.81-2.3l2.69-1.28Z" transform="translate(-377.84 -254.66)"/><path class="cls-1" d="M604.35,279.73l.32-3.15c4.88-.46,7.14,1.39,7.64,6,.27,2.38.88,4.72,1.1,7.1.1,1-.5,2.1-.62,3.17-.19,1.72-.24,3.46-.38,5.69l1.55-1.18,1.08,3.41,1.27-1.37c-2.37-1.95,0-3.29.64-5.65v4.15h.37l.07-1.22,2.47-1.26v5.72l.68,1.22-2.72.93,1.78,1.31-3-.29-.75-1.44a6.17,6.17,0,0,1-1.67.45,5.35,5.35,0,0,1-1.55-.52l.67-.77,2.94-.18-2.08-.54-.2-1.85L612.67,301l-.62-.2a59.48,59.48,0,0,1-.1,8.45,18.06,18.06,0,0,1-2.39,6c-.25.46-1.84.18-2.85.41,3.1.25,4.55,2.27,5.28,4.89a12.89,12.89,0,0,1,.06,3.35V339c0,2,.09,4,0,6.06a60.67,60.67,0,0,1-.86,9.56c-.22,1-2.15,1.95-3.48,2.38s-2.69.08-4.13.08l-.34-4.23c.3-12,.62-24.2.93-36.46l.37-.05c-.13-4-.27-7.88-.36-11.76,0-2.11,0-4.22,0-6.33,0-3.1-.06-6.21,0-9.31.07-2.59.32-5.17.44-7.77A6.35,6.35,0,0,0,604.35,279.73Z" transform="translate(-377.84 -254.66)"/><path class="cls-1" d="M599.66,289.81c-.29,1.48-.63,3.2-1.06,5.43,0-.07.16.44.3.84l-2.06,1,.24.49,1.64-.68c0,.16.09.34.15.5s.15.34.24.53l-2.4,1.75.95.52-2.55,3.85-.84-.79c-.2.5-.42,1-.83,2.09l-1.14-2.22-1.51-.07,1.53-1.23L591,300.36l.2-.38,2.08,1.23c.06-1.21.11-2.24.16-3.27l.66,0v2.43l.9-1.3.27.19,1.09-4.3.41.2-.37-1.76c-.47.08-1.2.41-1.4.21a10.16,10.16,0,0,1-1.33-2.18h1.81l.32.93Z" transform="translate(-377.84 -254.66)"/><path class="cls-1" d="M617.18,343.19l.85-1.5-1.54-1.14-2.17,1.51.9-1.71-2.24-.5,2.13-2.23c.09.68.17,1.26.38,2.86l2.79-2.92c0-.22,0,.11.11.44l.62-.35-.44,1.66,1.71,1.24-2.46,3Z" transform="translate(-377.84 -254.66)"/><path class="cls-1" d="M593.81,282l2.52.47,1.27,4.76-1,.3-.85-1.42-.15.91-1.57-.1,1-1.78-1,.42c-.05-.76-.1-1.5-.15-2.35h-2.17l2.07-1.24Z" transform="translate(-377.84 -254.66)"/><path class="cls-1" d="M587.72,279.22l1.91-.38.21.48-2.09,1.42-.22-.29-1.86,1.22-.3-.56,2.23-3.38,1.88-.27a11.54,11.54,0,0,0-1.16.88A6.41,6.41,0,0,0,587.72,279.22Z" transform="translate(-377.84 -254.66)"/><path class="cls-1" d="M614.14,291.3c1.47-1.86,3.67-1.86,6.07.29Z" transform="translate(-377.84 -254.66)"/><path class="cls-1" d="M796.51,331.18h-5.09l-.53-.81q3.61-15.22,7.22-30.41h.63a11.82,11.82,0,0,1,.73,2.12c.3,2.07.35,4.19.77,6.23,1,4.64,2,9.24,3.1,13.84.61,2.68,1.29,5.34,1.85,8,.07.35-.38,1.18-.57,1.17-1.77-.05-3.54-.26-5.32-.37-.93-.06-1.86,0-2.78,0Z" transform="translate(-377.84 -254.66)"/><path class="cls-1" d="M469.13,331.53l-1.92-.54.14.39a32.25,32.25,0,0,1-4.21.73c-2.75.12-5.51,0-8.27.05a14.07,14.07,0,0,0-2.16.41c.08-.74.14-1.47.24-2.19.48-3.35.87-6.71,1.49-10,.33-1.82,1.06-3.56,1.56-5.35s1-3.56,1.37-5.36c.68-2.94,1.31-5.89,2.09-9.49.62.83,1,1.15,1.1,1.53.45,3,.69,6.11,1.29,9.12.57,2.81,1.57,5.53,2.26,8.32.6,2.47,1.06,5,1.53,7.48.29,1.6-.19,3.68,2.58,3.49.35,0,.75.64,1.13,1Z" transform="translate(-377.84 -254.66)"/><path d="M617.9,304.91c-.65-4.84-.24-9.79-.11-14.64a1.51,1.51,0,0,0-2.25-1.3,2.32,2.32,0,0,0-1.34,1.83,1.53,1.53,0,0,0,2.21,1.7c2.14-1.24.79.85.47,1.77a13.88,13.88,0,0,0-.7,3.55,21.57,21.57,0,0,0,.6,7.72,1.51,1.51,0,0,0,2.2.9,4.31,4.31,0,0,0,2-3.65,12.79,12.79,0,0,0-.68-3.12c-.31-1.22-.1-3.56-.69-4.52q.27-2.14-1.41,0a11.38,11.38,0,0,0-.22,1.3c-.13,1,.11,2.24-.3,3.16,0,0-2.13,2.42-2.19,2.43-.32,0,.16-3.58.16-3.59.3-1.89-2.59-2.7-2.89-.79-.35,2.25-1.56,8.83,2.69,8.14,1.76-.28,2.55-2.29,3.62-3.43.59-.63,1.43-1.09,1.72-1.94a12.59,12.59,0,0,0,.09-3.07c.13-1.73,1.13-3.94-.51-5.29a2.38,2.38,0,0,0-2.94-.15c-1.28,1-.88,2.8-.74,4.18s2,6.82.82,7.71l2.2.89a18.45,18.45,0,0,1-.37-7.9c.3-1.71,2.07-3.52,1.8-5.29-.45-2.87-4.31-2.74-6.21-1.64l2.21,1.69-.05,0-2.26-1.29c-.13,4.85-.54,9.8.11,14.64.25,1.88,3.26,1.91,3,0Z" transform="translate(-377.84 -254.66)"/><path d="M614,300.17a1.5,1.5,0,0,0,0-3,1.5,1.5,0,0,0,0,3Z" transform="translate(-377.84 -254.66)"/><path d="M613.92,300.5a1.5,1.5,0,0,0,0-3,1.5,1.5,0,0,0,0,3Z" transform="translate(-377.84 -254.66)"/><path d="M613.67,302.17a1.5,1.5,0,0,0,0-3,1.5,1.5,0,0,0,0,3Z" transform="translate(-377.84 -254.66)"/><path d="M615.52,340.49A4.11,4.11,0,0,1,617,338.1l-2.35-.31c-.14-.31-.29.53-.3.55-.18.5-.31,1-.46,1.53l-.83,2.75,2.95.4c.05-1.7,2.05-3.35,3.08-4.6l-2.5-.66c.84,2,0,5-.37,7.06h2.89a21.9,21.9,0,0,1-.51-2.27c-.12-.77,0-1.75-.19-2.49q.25-.9-.81-1.05l.26,1.11.51,2.2c.43,1.88,3.32,1.08,2.89-.8s-1.19-7.26-4.51-5.06c-2.55,1.69-1.17,6.81-.53,9.16.36,1.33,2.66,1.52,2.89,0,.41-2.63,1.44-6.1.37-8.65-.39-.93-1.7-1.64-2.51-.67-1.64,2-3.87,4-4,6.72a1.5,1.5,0,0,0,2.94.4c.64-2.1,2.21-5,1.29-7.14-.42-1-1.7-.84-2.36-.3a6.64,6.64,0,0,0-2.29,3.72c-.43,1.87,2.46,2.68,2.9.79Z" transform="translate(-377.84 -254.66)"/><path d="M656.67,326.75V330a1.5,1.5,0,0,0,3,0v-3.25a1.5,1.5,0,0,0-3,0Z" transform="translate(-377.84 -254.66)"/><path d="M592.72,303.74a61.27,61.27,0,0,0,.26-11.33l-3,.4q.83,6.06,1.89,12.08c.27,1.54,2.48,1.3,2.89,0a168.11,168.11,0,0,0,4.26-17.59c.38-1.88-2.49-2.69-2.89-.8a104.73,104.73,0,0,0-2.08,22.83,1.5,1.5,0,0,0,2.94.4c1.85-6.2,6.08-14.16,3-20.53a1.52,1.52,0,0,0-2.75.36q-1.19,6.26-2.14,12.54h2.9c-1.2-4.35-1.35-8.71-1.58-13.18-.09-1.74.22-4-1.08-5.35a1.52,1.52,0,0,0-2.57,1.06c0,2.85.15,5.69.35,8.54.13,1.92,3.13,1.93,3,0-.2-2.85-.31-5.69-.35-8.54l-2.56,1.06c1.11,1.14.39,7.6.52,9.25a42.9,42.9,0,0,0,1.37,8c.37,1.33,2.67,1.53,2.9,0,.63-4.2,1.34-8.37,2.14-12.54l-2.74.36c2.39,5-1.88,13.31-3.34,18.21l3,.4a101.21,101.21,0,0,1,2-22l-2.89-.8a168.11,168.11,0,0,1-4.26,17.59h2.89q-1.06-6-1.89-12.08c-.22-1.66-3.09-1.28-2.94.4a61.29,61.29,0,0,1-.26,11.33c-.18,1.92,2.82,1.91,3,0Z" transform="translate(-377.84 -254.66)"/><path d="M590.26,279.08a1.5,1.5,0,0,0,0-3,1.5,1.5,0,0,0,0,3Z" transform="translate(-377.84 -254.66)"/><path d="M590.84,278.67a1.5,1.5,0,0,0,0-3,1.5,1.5,0,0,0,0,3Z" transform="translate(-377.84 -254.66)"/><path d="M589.26,279a1.5,1.5,0,0,0,0-3,1.5,1.5,0,0,0,0,3Z" transform="translate(-377.84 -254.66)"/><path d="M589.26,278.75a1.5,1.5,0,0,0,0-3,1.5,1.5,0,0,0,0,3Z" transform="translate(-377.84 -254.66)"/><path d="M587.64,281.87l1.61-2.16-2.74-.35,1,3.7c.35,1.36,2.62,1.49,2.89,0l.55-3.07H588a26.65,26.65,0,0,0,1.3,4.3c.57,1.44,3.08,1.44,2.95-.39a7.9,7.9,0,0,1,1.41-4.95l-1.3.75c-.93.08-1,3.11-1.07,3.84-.23,1.58,1.81,2.73,2.74,1.15l2.78-4.68-2.74-.36a17.51,17.51,0,0,1,1,6.21l2.79-.76c-.34-.58-.68-1.16-1-1.77s-.72-3.2-.6-1.37l2.56-1.06c-1.75-1.72-2.35-4.39-5.23-4.34-1.93,0-1.94,3,0,3,.92,0,2.39,2.75,3.11,3.46a1.52,1.52,0,0,0,2.56-1.06c-.15-2.28-2-4.82-4.5-3.27-3,1.87-.82,5.72.48,7.93a1.51,1.51,0,0,0,2.8-.76,20.15,20.15,0,0,0-1.08-7,1.52,1.52,0,0,0-2.74-.36l-2.78,4.69,2.75,1.16c.28-1.93,2.1-7.32-1.3-7.69-3-.32-3.78,5.26-3.64,7.25l2.94-.4a28,28,0,0,1-1.3-4.3,1.51,1.51,0,0,0-2.89,0l-.55,3.06h2.89l-1-3.7a1.52,1.52,0,0,0-2.74-.36l-1.61,2.15c-1.15,1.55,1.45,3,2.59,1.52Z" transform="translate(-377.84 -254.66)"/><rect x="207.05" y="21.01" width="8.63" height="1.5"/><path d="M732.42,287.28a3.18,3.18,0,0,0,2.05,1.68,5,5,0,0,0,1.49.14,4.18,4.18,0,0,1,1.26,0c1.7.91,3.22-1.68,1.51-2.59a4,4,0,0,0-2.29-.4c-.51,0-1.19.24-1.43-.31a1.52,1.52,0,0,0-2-.54,1.54,1.54,0,0,0-.54,2.06Z" transform="translate(-377.84 -254.66)"/><path d="M737.87,293.24c1-1.28.22-3.16-.1-4.57s-.85-3-2.58-2.89c-1.52.1-1.86,1.4-1.88,2.67a19.9,19.9,0,0,1-1.34,7.12l2.75-.36a64.86,64.86,0,0,1-3.91-8.15,1.52,1.52,0,0,0-2.74-.36c-.88,1.3-.33,3.07-.18,4.54a17.71,17.71,0,0,1-.13,6.12l2.74-.35c-1.35-1.89-1.59-5.07-2.06-7.31l-2.89.79a40.66,40.66,0,0,1,2,7.57c.32,1.9,3.21,1.1,2.9-.79a39.53,39.53,0,0,0-2-7.57,1.5,1.5,0,0,0-2.89.79c.53,2.54.83,5.88,2.36,8a1.52,1.52,0,0,0,2.74-.36,16.74,16.74,0,0,0,.41-5.09c-.06-.86-.16-1.71-.25-2.57,0-.48-.42-1.89-.15-2.29l-2.74-.36a69.29,69.29,0,0,0,4.21,8.88,1.52,1.52,0,0,0,2.74-.36,20.28,20.28,0,0,0,1.22-4.6c.13-.89-.1-3.06.17-3.64l-.9.69.43-.12-1.16-.16a8.62,8.62,0,0,1,.65,3.19c-1.18,1.53,1.43,3,2.59,1.51Z" transform="translate(-377.84 -254.66)"/><path d="M466.54,330.59c.38.79.78,1.56,1.2,2.32a1.5,1.5,0,1,0,2.59-1.51c-.42-.77-.82-1.54-1.2-2.32a1.51,1.51,0,0,0-2.05-.54,1.53,1.53,0,0,0-.54,2Z" transform="translate(-377.84 -254.66)"/><path d="M627.49,286.91c1.63,2.84,1.14,6.2,1.18,9.34a1.5,1.5,0,0,0,3,0c0-3.73.34-7.49-1.59-10.86a1.5,1.5,0,0,0-2.59,1.52Z" transform="translate(-377.84 -254.66)"/><path d="M630.92,306.11a7.73,7.73,0,0,0,.56-5.68c-.54-1.85-3.44-1.07-2.9.79a4.52,4.52,0,0,1-.25,3.37c-.86,1.73,1.73,3.25,2.59,1.52Z" transform="translate(-377.84 -254.66)"/><path d="M616.27,319.17l1.92.68c.27.09.73.2.88.44,1,1.63,3.61.13,2.59-1.52s-3-1.92-4.59-2.49a1.5,1.5,0,0,0-1.84,1.05,1.53,1.53,0,0,0,1,1.84Z" transform="translate(-377.84 -254.66)"/><path d="M672.65,320.49a5.93,5.93,0,0,0,.1-1.57,1.53,1.53,0,0,0-1.5-1.5,1.51,1.51,0,0,0-1.5,1.5,2.79,2.79,0,0,1,0,.5c0,.05,0,.47,0,.27a1.5,1.5,0,0,0,2.9.8Z" transform="translate(-377.84 -254.66)"/><path d="M671.09,322.33a1.5,1.5,0,0,0,0-3,1.5,1.5,0,0,0,0,3Z" transform="translate(-377.84 -254.66)"/></g><g id="Layer_2" data-name="Layer 2"><path d="M547,383.25a6.7,6.7,0,0,1,1.67-.87,11,11,0,0,1,2.25-.4h1a6,6,0,0,1,3.67,1.32l0-.42,0-1.18.07-1.88a9.2,9.2,0,0,0-.46-3.76,1,1,0,0,0-.92-.51,2.93,2.93,0,0,1-1.06-.23v-.85a3.27,3.27,0,0,1,.86-.11,13.5,13.5,0,0,0,2.06-.36l.59-.12,1.74-.41a4.42,4.42,0,0,1,.65-.12l.28,0a2.35,2.35,0,0,1,.11.55l0,.26v.32c0,.33,0,1.2.06,2.62v2.34l0,1.82,0,1.08c0,.47,0,1.2,0,2.21a3,3,0,0,0,0,.44v.65a3.75,3.75,0,0,0,0,.42c0,.18,0,.43.05.76v1l0,.37c0,.33,0,.8,0,1.4s0,1.16,0,1.65c0,.2,0,.38,0,.55v1.32c0,.42,0,.92,0,1.51a4.26,4.26,0,0,0,1.54.28,3.4,3.4,0,0,1,.69.09,1.31,1.31,0,0,1,.09.38,1.57,1.57,0,0,1-.13.48,11.58,11.58,0,0,1-1.51.26,10.5,10.5,0,0,0-3.43.85,1.82,1.82,0,0,1-.68.28,2.39,2.39,0,0,1-.44,0c0-.21,0-.35,0-.4a11.86,11.86,0,0,0-.06-1.55l-.65.38a9,9,0,0,1-2.14,1,8.26,8.26,0,0,1-2.22.28,6.51,6.51,0,0,1-3.53-.85,6.69,6.69,0,0,1-2.7-3,9.38,9.38,0,0,1-.75-3.78A7.43,7.43,0,0,1,547,383.25Zm5.42,11.61a5.18,5.18,0,0,0,.63,0,3.62,3.62,0,0,0,1.24-.24,7.39,7.39,0,0,0,1.4-.71c0-.39,0-.63,0-.72,0-3.71-.06-6-.16-6.71a3.67,3.67,0,0,0-1.16-2.36,3.41,3.41,0,0,0-2.31-.83,4,4,0,0,0-1.46.28,2.89,2.89,0,0,0-1.14.81,5.42,5.42,0,0,0-1,1.76,7.93,7.93,0,0,0-.46,2.56,6.92,6.92,0,0,0,1.21,4.38A4.59,4.59,0,0,0,552.44,394.86Z" transform="translate(-377.84 -254.66)"/><path d="M562.26,387.4a8.21,8.21,0,0,1,.81-2,9.18,9.18,0,0,1,2.1-2.25,6.76,6.76,0,0,1,2-1.07,6.88,6.88,0,0,1,1.88-.34,11.32,11.32,0,0,1,2.67.26,5.22,5.22,0,0,1,1.7.72,8.32,8.32,0,0,1,1.59,1.39,6.09,6.09,0,0,1,1,1.65,6.71,6.71,0,0,1,.41,2.3l-1.95,0c-.54,0-1.72-.05-3.55-.15-.68-.06-1.15-.09-1.4-.09l-1.9,0H566.1a2.45,2.45,0,0,0,0,.43,9.24,9.24,0,0,0,.23,2A6.15,6.15,0,0,0,567,392a5.08,5.08,0,0,0,1.13,1.35,4.66,4.66,0,0,0,1.4.81l1,.33a11.57,11.57,0,0,0,1.81-.09,7,7,0,0,0,1.48-.45,8.16,8.16,0,0,0,1.56-.92c.42.31.77.58,1,.83a10.19,10.19,0,0,1-3.21,2.47,9.92,9.92,0,0,1-6,.52,7.14,7.14,0,0,1-2.13-1,6.6,6.6,0,0,1-1.63-1.62,7.37,7.37,0,0,1-1-2,7.08,7.08,0,0,1-.44-2.15A14.47,14.47,0,0,1,562.26,387.4Zm10.22-.74a5.07,5.07,0,0,0-.39-1.89,3.06,3.06,0,0,0-1.14-1.41,2.91,2.91,0,0,0-1.57-.5,2.8,2.8,0,0,0-2.12,1,4.47,4.47,0,0,0-1.08,2.81l4,0c.26,0,.62,0,1.09-.05l.72-.05Z" transform="translate(-377.84 -254.66)"/><path d="M576.24,395.94a2.24,2.24,0,0,1,1-.34c.81-.09,1.27-.21,1.39-.37a3.25,3.25,0,0,0,.36-1.86v-4.95l0-1.18V383.7l0-4.06v-.7a7.37,7.37,0,0,0-.23-2.13,2.64,2.64,0,0,0-1.33-.37,3.38,3.38,0,0,1-.8-.09c0-.29-.05-.5-.05-.65a1.89,1.89,0,0,1,0-.31,12.35,12.35,0,0,0,2.88-.71,9.22,9.22,0,0,0,2.28-1.14l.49,0,.45,0q.11,6.07.11,8.33a10.38,10.38,0,0,1,0,1.07v.1l0,.34v7.78l0,2.56v.43a1.74,1.74,0,0,0,.25,1.07,1.42,1.42,0,0,0,.89.28l1.45.17a2.6,2.6,0,0,1,.08.6c0,.12,0,.28,0,.49l-1.39-.06c-.77-.05-1.75-.08-2.92-.08l-.65,0c-.67,0-1.63.06-2.9.16h-1.28Z" transform="translate(-377.84 -254.66)"/><path d="M593.06,391.81a4.59,4.59,0,0,1,.77-.11l.37,0,.16.17a18,18,0,0,0,1.25,2,7.61,7.61,0,0,0,1.21,1.16,5.75,5.75,0,0,0,1.27.58,3.53,3.53,0,0,0,1.23.21,2.73,2.73,0,0,0,1.9-.72,2.07,2.07,0,0,0,.79-1.53,1.53,1.53,0,0,0-.3-1,3,3,0,0,0-1.2-.78,18.73,18.73,0,0,0-2.2-.64c-1.18-.29-1.89-.48-2.14-.58a4.75,4.75,0,0,1-1.47-.88,3.88,3.88,0,0,1-1-1.26,4.22,4.22,0,0,1-.46-1.72,5.3,5.3,0,0,1,.39-2.19,4.74,4.74,0,0,1,1.09-1.51,4.8,4.8,0,0,1,1.54-.89,5.93,5.93,0,0,1,2.2-.41,17,17,0,0,1,2.94.23,7.58,7.58,0,0,1,2.14.69q.1.4.3,1.86c.13,1,.19,1.55.19,1.72a.68.68,0,0,1,0,.27,2.75,2.75,0,0,1-.75.14,3.87,3.87,0,0,1-.51,0c-.11-.16-.25-.41-.43-.73a6.45,6.45,0,0,0-1.73-2.21,3.38,3.38,0,0,0-2.05-.64,3,3,0,0,0-2,.7,1.72,1.72,0,0,0-.6,1.39,1.7,1.7,0,0,0,.62,1.18,4.24,4.24,0,0,0,2.14.93,17.61,17.61,0,0,1,3.4,1,5.09,5.09,0,0,1,2.23,1.74,4.19,4.19,0,0,1,.64,2.32,4.37,4.37,0,0,1-1.53,3.4,6.6,6.6,0,0,1-4.5,1.36c-.25,0-.93-.06-2-.17a12.91,12.91,0,0,1-1.74-.36c-.16,0-.59-.21-1.28-.5a.68.68,0,0,1-.27-.26,7.29,7.29,0,0,1-.24-1.47C593.17,392.94,593.07,392.09,593.06,391.81Z" transform="translate(-377.84 -254.66)"/><path d="M605.51,396.73l0-1.14,2-.27a1,1,0,0,0,.6-.36,2.14,2.14,0,0,0,.17-1.06v-.2c0-.14,0-.39,0-.76s0-.69,0-1,0-.65,0-1.28l0-.88,0-.82,0-2.87a6.21,6.21,0,0,0-.1-1.12,1.53,1.53,0,0,0-.71-.46,7.12,7.12,0,0,0-1.79-.28v-1a8.55,8.55,0,0,0,3.18-.75,7.17,7.17,0,0,0,2-1.5h1.18c.05,1.46.07,3.34.07,5.66l-.12,7.18a10.8,10.8,0,0,0,.07,1.33,10.7,10.7,0,0,0,1.77.39,3.47,3.47,0,0,1,.76.17l0,1-.71,0c-.17,0-.44,0-.8,0-1.2-.06-2.79-.09-4.79-.09-.58,0-1.13,0-1.67.07S605.7,396.73,605.51,396.73Zm2.46-21a2.09,2.09,0,0,1,.61-1.56,2.17,2.17,0,0,1,1.58-.6,2.44,2.44,0,0,1,1.73.64,2,2,0,0,1,.68,1.45,2.86,2.86,0,0,1-.27,1.19,2.15,2.15,0,0,1-.86,1,2.3,2.3,0,0,1-1.21.36,2.14,2.14,0,0,1-1.55-.72A2.33,2.33,0,0,1,608,375.76Z" transform="translate(-377.84 -254.66)"/><path d="M618.64,399.08a7,7,0,0,1-3.17-1.39,2.49,2.49,0,0,1-.79-1.79,1.63,1.63,0,0,1,.42-1.21,32.71,32.71,0,0,1,3.85-2.37,7.58,7.58,0,0,1-2.39-2,4.48,4.48,0,0,1-.84-2.49,6.75,6.75,0,0,1,.46-2.36,6.38,6.38,0,0,1,2.69-2.68,9.65,9.65,0,0,1,4.42-.89,11.41,11.41,0,0,1,1.89.14,10.64,10.64,0,0,1,1.23.39l.66.25a11.22,11.22,0,0,1,1.57,1.16,19.75,19.75,0,0,0,2.44-.62,4,4,0,0,1,1.13-.19.66.66,0,0,1,.56.3,2.88,2.88,0,0,1,.21,1.4,2.57,2.57,0,0,1-.26,1.35.71.71,0,0,1-.55.37,2.51,2.51,0,0,1-.61-.24,5.67,5.67,0,0,0-1.92-.58,7,7,0,0,1,.42,2.3,4.46,4.46,0,0,1-.75,2.45,5.32,5.32,0,0,1-2,1.86,7.7,7.7,0,0,1-3.62,1,14.43,14.43,0,0,1-1.59-.05,16.73,16.73,0,0,1-1.72-.31,11,11,0,0,0-2.09,1.4.89.89,0,0,0-.3.67.82.82,0,0,0,.31.63,1.91,1.91,0,0,0,1,.39,2.9,2.9,0,0,1,.38.07c.62.05,1.45.07,2.48.07l1.25-.05.51,0q4.2,0,5.89,1.34a4.06,4.06,0,0,1,1.67,3.27,4,4,0,0,1-.59,2,4.62,4.62,0,0,1-1.59,1.61,10.67,10.67,0,0,1-2.89,1.12,15.94,15.94,0,0,1-4,.49,17.37,17.37,0,0,1-4.2-.46,6.18,6.18,0,0,1-2.91-1.49,2.27,2.27,0,0,1-.8-1.65,2.11,2.11,0,0,1,.67-1.54A10.83,10.83,0,0,1,618.64,399.08Zm5.39,5.58a8.1,8.1,0,0,0,4.05-1.41,1.94,1.94,0,0,0,.91-1.42,1.61,1.61,0,0,0-.19-.76,2.16,2.16,0,0,0-.7-.73,3,3,0,0,0-1.13-.5,12.54,12.54,0,0,0-2.37-.18l-2.17,0a7.1,7.1,0,0,0-3.82.7,2.19,2.19,0,0,0-1,1.86,1.89,1.89,0,0,0,.55,1.23,3.73,3.73,0,0,0,1.83.95,10.12,10.12,0,0,0,2.76.36C623.05,404.73,623.47,404.7,624,404.66ZM623,392a2.52,2.52,0,0,0,2-1,4.87,4.87,0,0,0,.84-3.14q0-2.82-.75-3.78a2.49,2.49,0,0,0-2.1-1q-.18,0-.93.09a2.48,2.48,0,0,0-1.54,1.2,4.92,4.92,0,0,0-.69,2.77c0,.32,0,.95.12,1.88a2.89,2.89,0,0,0,.26,1,3.8,3.8,0,0,0,.65,1.06,2.57,2.57,0,0,0,.94.62A3.16,3.16,0,0,0,623,392Z" transform="translate(-377.84 -254.66)"/><path d="M631.31,395.94a2.24,2.24,0,0,1,1-.34c.81-.09,1.28-.21,1.39-.37a3.25,3.25,0,0,0,.36-1.86v-4.95l0-1.18V383.7l0-4.06v-.7a7.37,7.37,0,0,0-.23-2.13,2.64,2.64,0,0,0-1.33-.37,3.38,3.38,0,0,1-.8-.09c0-.29,0-.5,0-.65a1.89,1.89,0,0,1,0-.31,12.35,12.35,0,0,0,2.88-.71,9.22,9.22,0,0,0,2.28-1.14l.49,0,.45,0q.1,6.07.11,8.33a10.38,10.38,0,0,1,0,1.07v.1l0,.34v7.78l0,2.56v.43a1.74,1.74,0,0,0,.25,1.07,1.42,1.42,0,0,0,.89.28l1.45.17a2.72,2.72,0,0,1,.09.6c0,.12,0,.28,0,.49l-1.39-.06c-.77-.05-1.74-.08-2.92-.08l-.65,0c-.66,0-1.63.06-2.9.16h-1.28Z" transform="translate(-377.84 -254.66)"/><path d="M654.28,383.91a7.11,7.11,0,0,1,1.68,2.51,7.3,7.3,0,0,1,.56,2.66,8.4,8.4,0,0,1-.73,3.8,7.32,7.32,0,0,1-2.93,3.22,8.69,8.69,0,0,1-4.3,1,8.39,8.39,0,0,1-4.65-1.23,7.61,7.61,0,0,1-2.73-2.79,8.29,8.29,0,0,1-.82-3.89,7.53,7.53,0,0,1,.39-2.36,7,7,0,0,1,1.06-2.07,7.66,7.66,0,0,1,1.49-1.47,8.07,8.07,0,0,1,2.37-1.21,10,10,0,0,1,2.87-.36A7.54,7.54,0,0,1,654.28,383.91ZM644.67,390c.1,1.45.18,2.29.23,2.51a6.3,6.3,0,0,0,.72,2,2.84,2.84,0,0,0,1.11,1,3.79,3.79,0,0,0,1.84.42,3,3,0,0,0,2.16-.82,4.82,4.82,0,0,0,1.27-2.56,20.21,20.21,0,0,0,.25-3.75c0-2.14-.36-3.65-1.06-4.53a3.36,3.36,0,0,0-2.78-1.33,3.31,3.31,0,0,0-2.24.76,4.11,4.11,0,0,0-1.24,2.23A23.35,23.35,0,0,0,644.67,390Z" transform="translate(-377.84 -254.66)"/><path d="M664,374h1.7l.95.07h.44l.63.08a18.47,18.47,0,0,0,2.83.16,31.3,31.3,0,0,0,4.33-.28l.61,0c0,.39,0,.78,0,1.16a2.48,2.48,0,0,1-.37.16l-1.74.3c-.14,0-.34.1-.58.19a1.42,1.42,0,0,0,.07.46,34.24,34.24,0,0,0,2.41,3.66l1.71,2.43.2.28,1-1.23,2.18-3.17a9.91,9.91,0,0,0,1-1.76.82.82,0,0,0,.07-.33l0-.28a3,3,0,0,0-.57-.25l-.66,0a12.72,12.72,0,0,1-1.64-.14,4.93,4.93,0,0,1-.05-.53q0-.09,0-.42c0-.09,0-.22,0-.41a1,1,0,0,0,.35-.09q1.59.11,6.54.11c.42,0,.8,0,1.13-.05l.59-.06a3.38,3.38,0,0,1,.53.06,2.51,2.51,0,0,1,.09.63c0,.12,0,.3,0,.56l-2.71.58a2.44,2.44,0,0,0-.73.49,30.45,30.45,0,0,0-2.18,2.64l-2.55,3.3-.73,1-.52.64.26.38c.65.92,1.31,1.85,2,2.78l3.49,5.16a11.21,11.21,0,0,0,2.06,2.53,7.57,7.57,0,0,0,2.41.71c0,.23,0,.39,0,.46s0,.28-.09.66l.05.16-1.25,0c-.26,0-.79,0-1.58-.08l-2.16-.15-.23,0-.51,0c-.74,0-1.61,0-2.62.12s-1.74.13-2.21.13c-.31,0-.8,0-1.5,0v-.46c0-.21,0-.43,0-.66a28.85,28.85,0,0,1,2.83-.58,4.31,4.31,0,0,1,.44-.25v-.19a.89.89,0,0,0-.05-.32,4.79,4.79,0,0,0-.49-1c-.51-.82-1.21-1.8-2.1-2.95l-2.09-2.8c-.27.31-1.2,1.61-2.81,3.89a9,9,0,0,0-1.31,1.89,2.52,2.52,0,0,0-.35.83v.14l.23.31a13.41,13.41,0,0,0,1.62.61l1.25.42.1.82v.08l0,.2a5.49,5.49,0,0,1-.69.07c-.19,0-.75,0-1.69-.14-.31,0-.88-.06-1.7-.07l-.83,0-3.88.18-.83,0-.07-.8a3.47,3.47,0,0,1,.05-.46l.76-.09a6.42,6.42,0,0,0,2.11-.49,6.08,6.08,0,0,0,1.11-1.08c.83-.91,1.58-1.8,2.25-2.68.38-.52.69-.9.91-1.16.62-.86,1.56-2.08,2.8-3.68l-1-1.56c-.75-.92-1.33-1.69-1.75-2.29l-1-1.52c-.4-.65-.66-1.07-.78-1.24-.56-.73-1.23-1.69-2-2.9a2.82,2.82,0,0,0-1.13-1,6.81,6.81,0,0,0-2.25-.4v-.26a1.6,1.6,0,0,0,0-.28,2.52,2.52,0,0,1-.07-.44Z" transform="translate(-377.84 -254.66)"/><path d="M687.22,374h1.71l1,.07h.44l.63.08a18.47,18.47,0,0,0,2.83.16,31.41,31.41,0,0,0,4.33-.28l.61,0c0,.39,0,.78,0,1.16a2.48,2.48,0,0,1-.37.16l-1.74.3c-.14,0-.34.1-.58.19a1.42,1.42,0,0,0,.07.46,34.24,34.24,0,0,0,2.41,3.66l1.71,2.43.19.28,1-1.23,2.17-3.17a9.5,9.5,0,0,0,1-1.76,1,1,0,0,0,.07-.33l-.06-.28a2.71,2.71,0,0,0-.56-.25l-.67,0a12.56,12.56,0,0,1-1.63-.14,3.21,3.21,0,0,1-.05-.53q0-.09,0-.42c0-.09,0-.22,0-.41a1,1,0,0,0,.35-.09c1.06.07,3.23.11,6.54.11.42,0,.8,0,1.12-.05l.6-.06a3.38,3.38,0,0,1,.53.06,2.51,2.51,0,0,1,.09.63c0,.12,0,.3,0,.56l-2.71.58a2.33,2.33,0,0,0-.73.49A30.45,30.45,0,0,0,705.3,379l-2.55,3.3-.73,1-.52.64.26.38c.65.92,1.31,1.85,2,2.78l3.49,5.16a10.94,10.94,0,0,0,2.06,2.53,7.48,7.48,0,0,0,2.4.71,3.52,3.52,0,0,1,.06.46q0,.09-.09.66l.05.16-1.25,0c-.27,0-.79,0-1.58-.08l-2.16-.15-.23,0-.51,0c-.74,0-1.61,0-2.62.12s-1.74.13-2.21.13c-.31,0-.81,0-1.5,0v-.46a5.07,5.07,0,0,1,0-.66,28.85,28.85,0,0,1,2.83-.58,4.31,4.31,0,0,1,.44-.25v-.19a.89.89,0,0,0-.05-.32,4.79,4.79,0,0,0-.49-1c-.51-.82-1.21-1.8-2.1-2.95l-2.09-2.8q-.4.47-2.81,3.89a9,9,0,0,0-1.31,1.89,2.65,2.65,0,0,0-.36.83l0,.14.23.31a12.8,12.8,0,0,0,1.62.61l1.25.42.1.82v.08l0,.2a5.49,5.49,0,0,1-.69.07c-.19,0-.75,0-1.69-.14-.31,0-.88-.06-1.7-.07l-.83,0-3.88.18-.83,0-.07-.8a3.47,3.47,0,0,1,0-.46l.76-.09a6.42,6.42,0,0,0,2.11-.49,6.08,6.08,0,0,0,1.11-1.08c.83-.91,1.58-1.8,2.25-2.68.38-.52.69-.9.91-1.16.62-.86,1.55-2.08,2.8-3.68l-1-1.56c-.75-.92-1.33-1.69-1.75-2.29l-1-1.52c-.4-.65-.66-1.07-.78-1.24-.56-.73-1.23-1.69-2-2.9a2.69,2.69,0,0,0-1.13-1,6.8,6.8,0,0,0-2.24-.4v-.26a1.6,1.6,0,0,0,0-.28,2.52,2.52,0,0,1-.07-.44Z" transform="translate(-377.84 -254.66)"/><path d="M711.69,396.73v-1.27l1.16-.3a7.34,7.34,0,0,0,1.69-.58,3,3,0,0,0,.32-1.51l0-2.07,0-4,0-.95c.09-2.32.14-3.52.14-3.59l0-2.33.06-.95-.09-2,0-.75a3.37,3.37,0,0,0-.12-.56,6.69,6.69,0,0,0-2.34-.43c-.26,0-.46,0-.61-.05l0-1.55,5,.21,1.16,0c.69,0,1.79-.05,3.32-.14l1.61-.11c0,.23,0,.41,0,.57s0,.45,0,.77c-.46.16-1,.32-1.6.47a10.9,10.9,0,0,0-1.48.44,6.29,6.29,0,0,0-.11,1.32c0,.51,0,.92,0,1.23,0,2,0,3.51,0,4.57l0,4.64-.09,2.36.07,3.51-.05.67a1.19,1.19,0,0,0,.1.41,19.21,19.21,0,0,0,1.94.31l1.07.14a6.49,6.49,0,0,1,.07.88c0,.13,0,.33,0,.6l-.35,0-.65,0a2.66,2.66,0,0,1-.45-.05l-2.34-.25-3.1,0c-.62,0-1.53.06-2.71.17C712.43,396.68,711.93,396.72,711.69,396.73Z" transform="translate(-377.84 -254.66)"/><path d="M552.28,264a3.63,3.63,0,0,0-.23,1.25,1.24,1.24,0,0,0,.22.75.49.49,0,0,0,.39.19.6.6,0,0,0,.27-.06,1.76,1.76,0,0,0,.43-.31,3.21,3.21,0,0,0,.38-.46,2.74,2.74,0,0,0,.32-.64h.28a3.15,3.15,0,0,1-1,1.5,1.6,1.6,0,0,1-1.05.46.75.75,0,0,1-.61-.33,1.93,1.93,0,0,1-.34-1.19,4.36,4.36,0,0,1,.1-.79,5.42,5.42,0,0,1,.23-.76,8.6,8.6,0,0,1,.46-.91l.53-.76q.51-.56.57-.6a1.86,1.86,0,0,1,.48-.31,1.12,1.12,0,0,1,.51-.11.74.74,0,0,1,.58.28,1,1,0,0,1,.26.71,1.55,1.55,0,0,1-.2.74,1.75,1.75,0,0,1-.42.54l-.57.37a3.93,3.93,0,0,1-.51.17A10.59,10.59,0,0,1,552.28,264Zm.11-.35a2.09,2.09,0,0,0,.69-.17,3.29,3.29,0,0,0,.67-.38,1.59,1.59,0,0,0,.37-.37,1.93,1.93,0,0,0,.32-.55,1.43,1.43,0,0,0,.11-.58.47.47,0,0,0-.11-.33.38.38,0,0,0-.26-.13.76.76,0,0,0-.44.21,4.56,4.56,0,0,0-.89,1.24A6.62,6.62,0,0,0,552.39,263.69Z" transform="translate(-377.84 -254.66)"/><path d="M557.08,261.48l-.21,0a2.58,2.58,0,0,0-.47.3,3.4,3.4,0,0,0-.58.56l-.4.09a4.26,4.26,0,0,1,1.17-1.12,2.09,2.09,0,0,1,1-.4.35.35,0,0,1,.24.08.28.28,0,0,1,.08.2,3,3,0,0,1-.39,1.11l-.22.5c-.28.59-.57,1.16-.88,1.69-.1.17-.21.38-.33.62l-.17.32a1.19,1.19,0,0,0-.21.52.11.11,0,0,0,0,.09.13.13,0,0,0,.09,0,.52.52,0,0,0,.23-.09,3.87,3.87,0,0,0,1.24-1.18h.3a5.59,5.59,0,0,1-.61.85,3.53,3.53,0,0,1-.92.77,1.5,1.5,0,0,1-.69.21.5.5,0,0,1-.33-.09.3.3,0,0,1-.11-.24,5.62,5.62,0,0,1,.77-2l1.1-2.08a3,3,0,0,0,.24-.51.47.47,0,0,0,0-.15A.45.45,0,0,0,557.08,261.48Zm.39-3.07a.58.58,0,0,1,.18-.42.59.59,0,0,1,.43-.19.56.56,0,0,1,.57.54.72.72,0,0,1-.21.5.63.63,0,0,1-.45.13.5.5,0,0,1-.37-.15A.56.56,0,0,1,557.47,258.41Z" transform="translate(-377.84 -254.66)"/><path d="M560.33,261.5a2.29,2.29,0,0,0-.63.52,5.64,5.64,0,0,0-.5.47l-.24.25-.21-.05a5.22,5.22,0,0,1,.63-.77,4.94,4.94,0,0,1,1.07-.88,1,1,0,0,1,.49-.15.33.33,0,0,1,.23.09.32.32,0,0,1,.09.21,1.17,1.17,0,0,1-.11.39s0,.1-.11.23c-.2.48-.6,1.29-1.19,2.44a8.35,8.35,0,0,0-.76,1.68v0a1.18,1.18,0,0,0,.48-.29,15.41,15.41,0,0,0,1.36-1.27l.31-.33a12.72,12.72,0,0,0,1.29-1.55,14.13,14.13,0,0,0,.88-1.61l.32,0a.33.33,0,0,1,.24.1q-.15.44-.54,1.41l-1.27,3.17a1.63,1.63,0,0,0-.15.46h0s.11-.05.23-.16a4.4,4.4,0,0,0,.66-.72l.21-.27.22,0a5.52,5.52,0,0,1-1.1,1.35,1.21,1.21,0,0,1-.68.4,1.24,1.24,0,0,1-.23,0,.36.36,0,0,1-.13-.25,3,3,0,0,1,.28-1l1-2.25a.69.69,0,0,0,0-.13l-.54.61a21.58,21.58,0,0,1-1.69,1.81,8.63,8.63,0,0,1-1.52,1.12.72.72,0,0,1-.39.11.23.23,0,0,1-.16-.06.3.3,0,0,1-.07-.2,1.12,1.12,0,0,1,.05-.27,5.37,5.37,0,0,1,.39-.89l1.17-2.3.48-1a.67.67,0,0,0,.13-.3A.42.42,0,0,0,560.33,261.5Z" transform="translate(-377.84 -254.66)"/><path d="M564.26,265.33c.23,0,.41.18.56.53a.9.9,0,0,0,.21.34.35.35,0,0,0,.25.09.74.74,0,0,0,.56-.28.83.83,0,0,0,.21-.63,3.5,3.5,0,0,0-.23-1,4.94,4.94,0,0,1-.33-1.49,2.41,2.41,0,0,1,.42-1.4,1.52,1.52,0,0,1,1.34-.61.88.88,0,0,1,.62.21.67.67,0,0,1,.24.52.48.48,0,0,1-.12.33.33.33,0,0,1-.25.12.68.68,0,0,1-.54-.29,2,2,0,0,0-.32-.33.57.57,0,0,0-.26,0,.43.43,0,0,0-.33.17.57.57,0,0,0-.15.4,5.26,5.26,0,0,0,.33,1.54,4.87,4.87,0,0,1,.32,1.54,1.38,1.38,0,0,1-.21.7,1.67,1.67,0,0,1-.67.61,1.88,1.88,0,0,1-.93.25,1.3,1.3,0,0,1-.86-.24.77.77,0,0,1-.29-.59.45.45,0,0,1,.12-.33A.39.39,0,0,1,564.26,265.33Z" transform="translate(-377.84 -254.66)"/><path d="M572.43,264a3.63,3.63,0,0,0-.23,1.25,1.17,1.17,0,0,0,.22.75.49.49,0,0,0,.39.19.6.6,0,0,0,.27-.06,1.76,1.76,0,0,0,.43-.31,3.21,3.21,0,0,0,.38-.46,2.74,2.74,0,0,0,.32-.64h.28a3.22,3.22,0,0,1-1,1.5,1.6,1.6,0,0,1-1.05.46.75.75,0,0,1-.61-.33,1.93,1.93,0,0,1-.34-1.19,4.36,4.36,0,0,1,.1-.79,5.42,5.42,0,0,1,.23-.76,8.6,8.6,0,0,1,.46-.91l.53-.76q.51-.56.57-.6a1.86,1.86,0,0,1,.48-.31,1.1,1.1,0,0,1,.5-.11.76.76,0,0,1,.59.28,1,1,0,0,1,.26.71,1.55,1.55,0,0,1-.2.74,1.75,1.75,0,0,1-.42.54l-.57.37a3.93,3.93,0,0,1-.51.17C573.22,263.87,572.86,264,572.43,264Zm.11-.35a2.09,2.09,0,0,0,.69-.17,3.29,3.29,0,0,0,.67-.38,1.59,1.59,0,0,0,.37-.37,1.93,1.93,0,0,0,.32-.55,1.43,1.43,0,0,0,.11-.58.47.47,0,0,0-.11-.33.38.38,0,0,0-.26-.13.73.73,0,0,0-.44.21,4.56,4.56,0,0,0-.89,1.24A6.62,6.62,0,0,0,572.54,263.69Z" transform="translate(-377.84 -254.66)"/><path d="M577.19,261.76s0-.06,0-.07,0,0-.06,0c-.23,0-.6.37-1.1,1.12h-.25a5.29,5.29,0,0,1,.47-.73,3.39,3.39,0,0,1,.69-.72,3,3,0,0,1,.69-.44.53.53,0,0,1,.2,0h.1a.37.37,0,0,1,.12.25,1,1,0,0,1,0,.17c0,.05,0,.14-.07.25l-.3.83-.39,1c-.1.23-.18.48-.27.74a.77.77,0,0,0,.09-.13,20.1,20.1,0,0,1,1.38-1.78,5.62,5.62,0,0,1,1.21-1.14,1.27,1.27,0,0,1,.65-.21.49.49,0,0,1,.36.12.44.44,0,0,1,.13.33,1.94,1.94,0,0,1,0,.24,7.09,7.09,0,0,1-.22.72c-.11.31-.39,1-.86,2l-.68,1.58,0,.09a.42.42,0,0,0,0,.12c.25-.06.64-.46,1.15-1.22h.28a8,8,0,0,1-.7,1,2.8,2.8,0,0,1-.81.71,1,1,0,0,1-.51.15.37.37,0,0,1-.25-.07.22.22,0,0,1-.08-.15,3.13,3.13,0,0,1,.35-1.12l1-2.17.38-.91a3.38,3.38,0,0,0,.16-.41,1,1,0,0,0,0-.24.22.22,0,0,0,0-.14.17.17,0,0,0-.12-.05.45.45,0,0,0-.25.09,4.61,4.61,0,0,0-1.12,1,17.56,17.56,0,0,0-1.16,1.51,18,18,0,0,0-1.25,2.32.7.7,0,0,1-.2.28l-.22,0-.27,0a.23.23,0,0,1,0-.09.87.87,0,0,1,.07-.25c.1-.29.34-.92.74-1.87l.15-.37Z" transform="translate(-377.84 -254.66)"/><path d="M583.07,261.48l-.21,0a3,3,0,0,0-.47.3,3.4,3.4,0,0,0-.58.56l-.4.09a4.26,4.26,0,0,1,1.17-1.12,2.13,2.13,0,0,1,1-.4.33.33,0,0,1,.24.08.28.28,0,0,1,.08.2,3,3,0,0,1-.39,1.11l-.22.5c-.28.59-.57,1.16-.88,1.69-.1.17-.21.38-.33.62l-.17.32a1.19,1.19,0,0,0-.21.52.11.11,0,0,0,0,.09.13.13,0,0,0,.09,0,.52.52,0,0,0,.23-.09,3.11,3.11,0,0,0,.61-.45,3.42,3.42,0,0,0,.63-.73h.3a5.59,5.59,0,0,1-.61.85,3.53,3.53,0,0,1-.92.77,1.46,1.46,0,0,1-.68.21.51.51,0,0,1-.34-.09.3.3,0,0,1-.11-.24,5.62,5.62,0,0,1,.77-2l1.11-2.08a3.81,3.81,0,0,0,.23-.51.61.61,0,0,0,.05-.15A.58.58,0,0,0,583.07,261.48Zm.39-3.07a.55.55,0,0,1,.19-.42.56.56,0,0,1,.43-.19.56.56,0,0,1,.56.54.72.72,0,0,1-.21.5.63.63,0,0,1-.45.13.5.5,0,0,1-.37-.15A.56.56,0,0,1,583.46,258.41Z" transform="translate(-377.84 -254.66)"/><path d="M586.43,261.59l-.09,0a.81.81,0,0,0-.38.2,4.15,4.15,0,0,0-.82.8l-.14.16-.26,0a2.81,2.81,0,0,1,.43-.57,5.61,5.61,0,0,1,.68-.65,3.4,3.4,0,0,1,.72-.44.83.83,0,0,1,.34-.07.41.41,0,0,1,.25.08.26.26,0,0,1,.1.2,8.69,8.69,0,0,1-.8,1.8c-.15.3-.25.51-.3.62.26-.27.58-.63,1-1.09a11.74,11.74,0,0,1,1.12-1.12,2,2,0,0,1,.62-.37,1.66,1.66,0,0,1,.58-.13.47.47,0,0,1,.32.12.32.32,0,0,1,.09.24,5.58,5.58,0,0,1-.79,2.05l-.31.6,0,.11.7-.83.44-.48a2.71,2.71,0,0,0,.31-.33,5.08,5.08,0,0,1,1.2-1.07,2.15,2.15,0,0,1,1-.38.34.34,0,0,1,.26.12.45.45,0,0,1,.12.33,1.09,1.09,0,0,1,0,.26,3.62,3.62,0,0,1-.22.61s-.2.38-.59,1.09q-.33.62-.51.9l-.35.54a2.83,2.83,0,0,1-.38.57,1.08,1.08,0,0,0-.39.64.09.09,0,0,0,0,.07,1.12,1.12,0,0,0,.26-.14,8.1,8.1,0,0,0,1.09-.86l.21.05a3.23,3.23,0,0,1-1.07,1,2.46,2.46,0,0,1-1.33.49.34.34,0,0,1-.25-.11.26.26,0,0,1,0-.14s.09-.17.22-.38l1.13-1.84a20.05,20.05,0,0,0,1.09-1.88,3,3,0,0,0,.26-.7.2.2,0,0,0,0-.13.18.18,0,0,0-.12-.05.64.64,0,0,0-.25.08,4.37,4.37,0,0,0-.92.78c-.69.73-1.22,1.32-1.58,1.75a13.74,13.74,0,0,0-1.49,2.17,1.46,1.46,0,0,1-.32.43l-.29,0a1.19,1.19,0,0,1-.36,0,1.11,1.11,0,0,1,.19-.4q.33-.53,1-1.86c.48-.88.8-1.48,1-1.8a5.94,5.94,0,0,0,.29-.7.77.77,0,0,0,0-.15.32.32,0,0,0-.07-.2.12.12,0,0,0-.1-.06.78.78,0,0,0-.33.12,4.13,4.13,0,0,0-.88.77l-1.11,1.2c-.56.72-1,1.31-1.25,1.75l-.26.45c-.16.28-.27.47-.32.57a1.27,1.27,0,0,1-.27.3,1.73,1.73,0,0,1-.3,0,.55.55,0,0,1-.18,0l0-.1a.56.56,0,0,1,.11-.27s.4-.76,1.12-2.15l1.22-2.38A.54.54,0,0,0,586.43,261.59Z" transform="translate(-377.84 -254.66)"/><path d="M596.86,262.84l-.22,0h-.06a4.79,4.79,0,0,1,1.06-1.73.93.93,0,0,1,.63-.32.47.47,0,0,1,.33.16.63.63,0,0,1,.15.44,3.34,3.34,0,0,1-.06.62,10.09,10.09,0,0,1-.33,1l-.62,1.57c-.18.43-.28.69-.32.79l-.09.27a1.74,1.74,0,0,0-.15.51.48.48,0,0,0,.05.18l.1,0,.46-.21a9.88,9.88,0,0,0,1.06-.87,12,12,0,0,0,1-1.19,2.65,2.65,0,0,0,.42-.8,1.9,1.9,0,0,0,.1-.61,6.74,6.74,0,0,0-.16-1.18.85.85,0,0,1,.17-.54.32.32,0,0,1,.26-.16.38.38,0,0,1,.28.18.84.84,0,0,1,.14.51,4.49,4.49,0,0,1-.5,1.91,7.37,7.37,0,0,1-1.12,1.64,6.77,6.77,0,0,1-1.62,1.42,1.66,1.66,0,0,1-.88.25.93.93,0,0,1-.33-.07.43.43,0,0,1-.18-.32,1.92,1.92,0,0,1,.17-.68c.49-1.21.93-2.35,1.31-3.41a1.51,1.51,0,0,0,.1-.49.33.33,0,0,0-.06-.21.14.14,0,0,0-.11-.06q-.15,0-.33.24A4.74,4.74,0,0,0,596.86,262.84Z" transform="translate(-377.84 -254.66)"/><path d="M602.78,261.48l-.21,0a2.58,2.58,0,0,0-.47.3,3.4,3.4,0,0,0-.58.56l-.4.09a4.26,4.26,0,0,1,1.17-1.12,2.09,2.09,0,0,1,1-.4.35.35,0,0,1,.24.08.28.28,0,0,1,.08.2,3,3,0,0,1-.39,1.11l-.22.5c-.28.59-.57,1.16-.88,1.69-.1.17-.21.38-.33.62l-.17.32a1.19,1.19,0,0,0-.21.52.11.11,0,0,0,0,.09.13.13,0,0,0,.09,0,.52.52,0,0,0,.23-.09,3.87,3.87,0,0,0,1.24-1.18h.3a5.59,5.59,0,0,1-.61.85,3.53,3.53,0,0,1-.92.77,1.5,1.5,0,0,1-.69.21.5.5,0,0,1-.33-.09.3.3,0,0,1-.11-.24,5.62,5.62,0,0,1,.77-2l1.1-2.08a3,3,0,0,0,.24-.51.47.47,0,0,0,0-.15A.45.45,0,0,0,602.78,261.48Zm.39-3.07a.58.58,0,0,1,.18-.42.59.59,0,0,1,.43-.19.56.56,0,0,1,.57.54.72.72,0,0,1-.21.5.63.63,0,0,1-.45.13.5.5,0,0,1-.37-.15A.56.56,0,0,1,603.17,258.41Z" transform="translate(-377.84 -254.66)"/><path d="M605.8,261.76a.11.11,0,0,0,0-.07.07.07,0,0,0-.06,0c-.24,0-.61.37-1.11,1.12h-.24a5.07,5.07,0,0,1,.46-.73,4,4,0,0,1,.69-.72,3.31,3.31,0,0,1,.7-.44.54.54,0,0,1,.19,0h.11a.37.37,0,0,1,.12.25,1,1,0,0,1,0,.17,1.71,1.71,0,0,1-.07.25l-.3.83-.39,1c-.09.23-.18.48-.27.74l.1-.13a18.28,18.28,0,0,1,1.37-1.78,5.61,5.61,0,0,1,1.22-1.14,1.22,1.22,0,0,1,.65-.21.52.52,0,0,1,.36.12.44.44,0,0,1,.13.33,1,1,0,0,1,0,.24,4.87,4.87,0,0,1-.21.72c-.11.31-.4,1-.86,2l-.69,1.58,0,.09a.31.31,0,0,0,0,.12c.26-.06.64-.46,1.15-1.22h.28a7.73,7.73,0,0,1-.69,1,2.93,2.93,0,0,1-.81.71,1,1,0,0,1-.51.15.36.36,0,0,1-.25-.07.19.19,0,0,1-.08-.15,2.93,2.93,0,0,1,.35-1.12l1-2.17.38-.91a3.38,3.38,0,0,0,.16-.41,1,1,0,0,0,0-.24.21.21,0,0,0,0-.14.19.19,0,0,0-.13-.05.51.51,0,0,0-.25.09,4.42,4.42,0,0,0-1.11,1,16.27,16.27,0,0,0-1.17,1.51,20.86,20.86,0,0,0-1.25,2.32.69.69,0,0,1-.19.28l-.22,0-.28,0a.51.51,0,0,1,0-.09,1.14,1.14,0,0,1,.06-.25c.1-.29.35-.92.74-1.87l.16-.37Z" transform="translate(-377.84 -254.66)"/><path d="M613.28,262.13l-.16-.16-.13-.26a1,1,0,0,0-.14-.26.27.27,0,0,0-.17-.08.73.73,0,0,0-.51.3,6.12,6.12,0,0,0-1,1.78,5.68,5.68,0,0,0-.51,2.06.76.76,0,0,0,.09.43.22.22,0,0,0,.19.09.93.93,0,0,0,.59-.29,4.77,4.77,0,0,0,.87-1.07l.2,0h.11a3.38,3.38,0,0,1-.38.65,4,4,0,0,1-.95,1.05,1.4,1.4,0,0,1-.79.3.59.59,0,0,1-.49-.22,1.56,1.56,0,0,1-.22-.93,4.42,4.42,0,0,1,.26-1.33,6.09,6.09,0,0,1,.78-1.52,7.24,7.24,0,0,1,.84-1,2.9,2.9,0,0,1,.79-.54,1.35,1.35,0,0,1,.6-.16.66.66,0,0,1,.51.25.85.85,0,0,1,.22.59.43.43,0,0,1-.1.31.33.33,0,0,1-.25.12A1.15,1.15,0,0,1,613.28,262.13Z" transform="translate(-377.84 -254.66)"/><path d="M615.53,261.5a2.3,2.3,0,0,0-.64.52c-.18.15-.34.31-.5.47s-.18.2-.23.25l-.22-.05a4.88,4.88,0,0,1,.64-.77,4.71,4.71,0,0,1,1.07-.88,1,1,0,0,1,.49-.15.31.31,0,0,1,.22.09.34.34,0,0,1,.1.21,1,1,0,0,1-.12.39s-.05.1-.1.23c-.21.48-.6,1.29-1.19,2.44a8.77,8.77,0,0,0-.77,1.68v0a1.18,1.18,0,0,0,.48-.29,15,15,0,0,0,1.35-1.27l.32-.33a13.71,13.71,0,0,0,1.29-1.55,16.45,16.45,0,0,0,.87-1.61l.32,0a.3.3,0,0,1,.24.1q-.13.44-.54,1.41l-1.27,3.17a1.63,1.63,0,0,0-.15.46h0s.11-.05.22-.16a4.07,4.07,0,0,0,.67-.72l.21-.27.22,0a5.6,5.6,0,0,1-1.11,1.35,1.18,1.18,0,0,1-.68.4,1.39,1.39,0,0,1-.23,0,.39.39,0,0,1-.12-.25,2.78,2.78,0,0,1,.28-1l1-2.25a.38.38,0,0,0,.06-.13c-.08.09-.27.29-.54.61a23.39,23.39,0,0,1-1.69,1.81,8.7,8.7,0,0,1-1.53,1.12.72.72,0,0,1-.39.11.25.25,0,0,1-.16-.06.3.3,0,0,1-.06-.2,1.12,1.12,0,0,1,0-.27,5.37,5.37,0,0,1,.39-.89l1.17-2.3.47-1a.67.67,0,0,0,.13-.3A.31.31,0,0,0,615.53,261.5Z" transform="translate(-377.84 -254.66)"/><path d="M621.88,257.67l0-.19c.56-.05,1-.07,1.27-.07h.3v.09l-.21.66-.5,1.27-.92,2.4c-.17.45-.44,1.15-.82,2.1l-.23.59a6.84,6.84,0,0,1-.38.88,1.22,1.22,0,0,0-.23.54l0,.11a1.08,1.08,0,0,0,.55-.31,4.08,4.08,0,0,0,.88-1l.2,0h.07a3.47,3.47,0,0,1-.55.81,5.22,5.22,0,0,1-.64.62,3.28,3.28,0,0,1-.76.46,1,1,0,0,1-.45.1.24.24,0,0,1-.18-.06.2.2,0,0,1-.05-.15,16.14,16.14,0,0,1,1.09-2.83c.22-.5.45-1.08.7-1.73.42-1.14.75-2,1-2.44a7.54,7.54,0,0,0,.5-1.3.58.58,0,0,0,0-.1.28.28,0,0,0-.1-.19A1.72,1.72,0,0,0,621.88,257.67Z" transform="translate(-377.84 -254.66)"/><path d="M624.29,261.5a2.45,2.45,0,0,0-.64.52l-.5.47c-.1.12-.18.2-.23.25l-.22-.05a6.47,6.47,0,0,1,.64-.77,4.94,4.94,0,0,1,1.07-.88,1,1,0,0,1,.49-.15.33.33,0,0,1,.32.3,1,1,0,0,1-.12.39l-.1.23c-.2.48-.6,1.29-1.19,2.44a8.35,8.35,0,0,0-.76,1.68v0a1.18,1.18,0,0,0,.48-.29,13.77,13.77,0,0,0,1.35-1.27s.15-.15.32-.33a12.72,12.72,0,0,0,1.29-1.55,14.13,14.13,0,0,0,.88-1.61l.32,0a.33.33,0,0,1,.24.1q-.15.44-.54,1.41l-1.28,3.17a2.71,2.71,0,0,0-.15.46h0a.59.59,0,0,0,.23-.16,4.4,4.4,0,0,0,.66-.72l.21-.27.22,0a5.6,5.6,0,0,1-1.11,1.35,1.16,1.16,0,0,1-.67.4l-.24,0a.39.39,0,0,1-.12-.25,3,3,0,0,1,.28-1l1-2.25a.69.69,0,0,0,0-.13l-.54.61a23.39,23.39,0,0,1-1.69,1.81,8.63,8.63,0,0,1-1.52,1.12.72.72,0,0,1-.39.11.21.21,0,0,1-.16-.06.26.26,0,0,1-.07-.2,1.12,1.12,0,0,1,0-.27,5.37,5.37,0,0,1,.39-.89l1.17-2.3.48-1a.82.82,0,0,0,.13-.3A.42.42,0,0,0,624.29,261.5Z" transform="translate(-377.84 -254.66)"/><path d="M630.24,261.59l-.09,0a.87.87,0,0,0-.39.2,4.39,4.39,0,0,0-.81.8l-.14.16-.26,0a2.49,2.49,0,0,1,.43-.57,5.61,5.61,0,0,1,.68-.65,3.4,3.4,0,0,1,.72-.44.83.83,0,0,1,.34-.07.41.41,0,0,1,.25.08.3.3,0,0,1,.1.2,8.69,8.69,0,0,1-.8,1.8c-.15.3-.25.51-.3.62.25-.27.58-.63,1-1.09a11.74,11.74,0,0,1,1.12-1.12,2,2,0,0,1,.62-.37,1.62,1.62,0,0,1,.58-.13.47.47,0,0,1,.32.12.32.32,0,0,1,.09.24,5.58,5.58,0,0,1-.79,2.05l-.32.6,0,.11.7-.83.44-.48a3.86,3.86,0,0,0,.31-.33,5.08,5.08,0,0,1,1.2-1.07,2.15,2.15,0,0,1,1-.38.34.34,0,0,1,.26.12.45.45,0,0,1,.12.33,1.09,1.09,0,0,1,0,.26,3.62,3.62,0,0,1-.22.61s-.2.38-.59,1.09c-.22.41-.4.71-.51.9l-.35.54a2.83,2.83,0,0,1-.38.57,1.08,1.08,0,0,0-.39.64.09.09,0,0,0,0,.07,1.12,1.12,0,0,0,.26-.14,8.1,8.1,0,0,0,1.09-.86l.21.05a3.23,3.23,0,0,1-1.07,1,2.46,2.46,0,0,1-1.33.49.34.34,0,0,1-.25-.11.26.26,0,0,1,0-.14,3,3,0,0,1,.22-.38l1.13-1.84a20.05,20.05,0,0,0,1.09-1.88,3,3,0,0,0,.26-.7.2.2,0,0,0,0-.13.18.18,0,0,0-.12-.05.64.64,0,0,0-.25.08,4.37,4.37,0,0,0-.92.78c-.69.73-1.22,1.32-1.59,1.75a14.37,14.37,0,0,0-1.48,2.17,1.46,1.46,0,0,1-.32.43l-.29,0a1.19,1.19,0,0,1-.36,0,1.11,1.11,0,0,1,.19-.4q.33-.53,1.05-1.86c.48-.88.8-1.48.95-1.8a5.94,5.94,0,0,0,.29-.7.77.77,0,0,0,0-.15.32.32,0,0,0-.07-.2.13.13,0,0,0-.11-.06.75.75,0,0,0-.32.12,4.13,4.13,0,0,0-.88.77l-1.11,1.2c-.56.72-1,1.31-1.25,1.75l-.26.45c-.16.28-.27.47-.32.57a1.27,1.27,0,0,1-.27.3,1.73,1.73,0,0,1-.3,0,.55.55,0,0,1-.18,0l0-.1a.56.56,0,0,1,.11-.27s.4-.76,1.12-2.15l1.22-2.38A.54.54,0,0,0,630.24,261.59Z" transform="translate(-377.84 -254.66)"/><path d="M641.06,264a3.41,3.41,0,0,0-.23,1.25,1.17,1.17,0,0,0,.22.75.47.47,0,0,0,.39.19.53.53,0,0,0,.26-.06,1.82,1.82,0,0,0,.44-.31,3.21,3.21,0,0,0,.38-.46,2.74,2.74,0,0,0,.32-.64h.28a3.22,3.22,0,0,1-1,1.5,1.6,1.6,0,0,1-1.05.46.75.75,0,0,1-.61-.33,1.87,1.87,0,0,1-.34-1.19,4.74,4.74,0,0,1,.33-1.55,8.6,8.6,0,0,1,.46-.91l.52-.76c.35-.37.54-.57.58-.6a1.86,1.86,0,0,1,.48-.31,1.1,1.1,0,0,1,.5-.11.76.76,0,0,1,.59.28,1,1,0,0,1,.25.71,1.54,1.54,0,0,1-.19.74,1.75,1.75,0,0,1-.42.54l-.57.37a3.93,3.93,0,0,1-.51.17C641.85,263.87,641.49,264,641.06,264Zm.11-.35a2,2,0,0,0,.68-.17,3,3,0,0,0,.67-.38,1.6,1.6,0,0,0,.38-.37,1.93,1.93,0,0,0,.32-.55,1.43,1.43,0,0,0,.11-.58.52.52,0,0,0-.11-.33.38.38,0,0,0-.26-.13.73.73,0,0,0-.44.21,4.56,4.56,0,0,0-.89,1.24A5.81,5.81,0,0,0,641.17,263.69Z" transform="translate(-377.84 -254.66)"/><path d="M644.13,265.33c.23,0,.41.18.56.53a.9.9,0,0,0,.21.34.35.35,0,0,0,.25.09.74.74,0,0,0,.56-.28.83.83,0,0,0,.21-.63,3.5,3.5,0,0,0-.23-1,4.94,4.94,0,0,1-.33-1.49,2.41,2.41,0,0,1,.42-1.4,1.51,1.51,0,0,1,1.34-.61.88.88,0,0,1,.62.21.67.67,0,0,1,.24.52.48.48,0,0,1-.12.33.33.33,0,0,1-.25.12.68.68,0,0,1-.54-.29,2,2,0,0,0-.32-.33.57.57,0,0,0-.26,0,.47.47,0,0,0-.34.17.61.61,0,0,0-.14.4,5.26,5.26,0,0,0,.33,1.54,4.87,4.87,0,0,1,.32,1.54,1.38,1.38,0,0,1-.21.7,1.67,1.67,0,0,1-.67.61,1.86,1.86,0,0,1-.93.25,1.3,1.3,0,0,1-.86-.24.77.77,0,0,1-.29-.59.45.45,0,0,1,.12-.33A.39.39,0,0,1,644.13,265.33Z" transform="translate(-377.84 -254.66)"/><path d="M649.82,261.53h-.6l-.45,0h-.09a1,1,0,0,1,.12-.35l1.18-.05c.09-.22.17-.39.23-.53.14-.29.27-.64.42-1.05a1.94,1.94,0,0,1,.15-.36l.34,0a1.66,1.66,0,0,1,.32,0v.11a11.08,11.08,0,0,1-.6,1.51,3,3,0,0,0-.12.32l.23,0h.38l.65,0a.65.65,0,0,1-.09.37,6.54,6.54,0,0,1-.7,0h-.28a1.15,1.15,0,0,0-.4.07l-1.11,2.67c-.13.25-.34.74-.64,1.46a.16.16,0,0,0,0,.1h.09a.82.82,0,0,0,.46-.23,8.1,8.1,0,0,0,1.12-1.2,1,1,0,0,1,.2.15,14,14,0,0,1-.95,1.09,5.55,5.55,0,0,1-.69.54,3.94,3.94,0,0,1-.51.32.85.85,0,0,1-.31.06.36.36,0,0,1-.25-.07.29.29,0,0,1-.08-.21,3.26,3.26,0,0,1,.33-.92l.28-.64,1-2.42C649.64,262,649.74,261.77,649.82,261.53Z" transform="translate(-377.84 -254.66)"/><path d="M656.25,261.48a2.27,2.27,0,0,0-.43.39l-.62.82h-.28a4,4,0,0,1,.63-.91,3.41,3.41,0,0,1,.81-.74,1.28,1.28,0,0,1,.49-.15.45.45,0,0,1,.23.13.27.27,0,0,1,.07.2,1,1,0,0,1,0,.23,10.87,10.87,0,0,1-.3,1.07c-.15.46-.28.83-.4,1.1l-.35.84,0,.12.39-.73a13.32,13.32,0,0,1,1.61-2.61,1.18,1.18,0,0,1,.84-.35.74.74,0,0,1,.52.22.61.61,0,0,1,.17.45.79.79,0,0,1-.19.54.47.47,0,0,1-.39.16.36.36,0,0,1-.3-.1,1,1,0,0,1-.11-.5c-.06-.11-.12-.17-.2-.17a.33.33,0,0,0-.23.11,10.36,10.36,0,0,0-1.24,1.88,21,21,0,0,0-1.14,2.21,5.11,5.11,0,0,1-.37.85c0,.08-.14.11-.28.11a.43.43,0,0,1-.26-.06.21.21,0,0,1-.08-.17.8.8,0,0,1,.07-.31c.2-.48.51-1.36.94-2.65l.48-1.46c0-.13.06-.22.07-.25l0-.1C656.38,261.61,656.34,261.55,656.25,261.48Z" transform="translate(-377.84 -254.66)"/><path d="M663.38,261.55l.09-.18a.63.63,0,0,1,.16-.27l.28,0a.64.64,0,0,1,.23.05l0,.08a.24.24,0,0,1,0,.12l-.08.26-.06.14-.45,1.22c-.19.55-.36,1-.5,1.32a9.32,9.32,0,0,0-.38,1,4,4,0,0,1-.28.73l0,.07a.16.16,0,0,0,.07.1,2.1,2.1,0,0,0,.49-.37c.34-.34.54-.55.61-.63l.13-.17.14.15a7.61,7.61,0,0,1-.61.72,3.41,3.41,0,0,1-.78.65,1,1,0,0,1-.51.14.34.34,0,0,1-.22-.06.25.25,0,0,1-.08-.18,1.46,1.46,0,0,1,.07-.35q.17-.45.24-.6c0-.09.11-.24.18-.44s.14-.34.28-.64a2.88,2.88,0,0,0-.33.38,9.07,9.07,0,0,1-1.31,1.32,4.32,4.32,0,0,1-.81.46,1.86,1.86,0,0,1-.56.11.93.93,0,0,1-.37-.05.67.67,0,0,1-.27-.28,1,1,0,0,1-.08-.45,2.9,2.9,0,0,1,.2-1,5.32,5.32,0,0,1,.67-1.34,6.47,6.47,0,0,1,1.17-1.21,5.28,5.28,0,0,1,1.05-.65,3,3,0,0,1,1.11-.27,1.36,1.36,0,0,1,.29,0A1.2,1.2,0,0,1,663.38,261.55ZM660,266a1.34,1.34,0,0,0,.3-.12l.55-.38,1-1a7.07,7.07,0,0,0,.56-.73c.05-.08.17-.29.36-.64l.17-.48a3,3,0,0,0,.1-.48.53.53,0,0,0-.16-.36.46.46,0,0,0-.34-.1,1.17,1.17,0,0,0-.48.09,3.85,3.85,0,0,0-.81.52,6.28,6.28,0,0,0-1,1.1,6.7,6.7,0,0,0-.64,1.13,2.53,2.53,0,0,0-.26.93.55.55,0,0,0,.1.37.35.35,0,0,0,.27.13Z" transform="translate(-377.84 -254.66)"/><path d="M666.18,261.53h-.6l-.45,0H665a1,1,0,0,1,.12-.35l1.18-.05c.09-.22.17-.39.23-.53.14-.29.27-.64.42-1.05a3,3,0,0,1,.14-.36l.35,0a1.66,1.66,0,0,1,.32,0v.11a11.08,11.08,0,0,1-.6,1.51,3,3,0,0,0-.12.32l.23,0h.38l.64,0a.66.66,0,0,1-.08.37,6.62,6.62,0,0,1-.71,0h-.27a1.15,1.15,0,0,0-.4.07l-1.11,2.67c-.13.25-.34.74-.64,1.46a.16.16,0,0,0,0,.1h.09a.82.82,0,0,0,.46-.23,8.1,8.1,0,0,0,1.12-1.2,1,1,0,0,1,.2.15c-.45.55-.77.91-.95,1.09a5.55,5.55,0,0,1-.69.54,3.94,3.94,0,0,1-.51.32.85.85,0,0,1-.31.06.36.36,0,0,1-.25-.07.29.29,0,0,1-.08-.21,3.26,3.26,0,0,1,.33-.92l.28-.64,1-2.42C666,262,666.1,261.77,666.18,261.53Z" transform="translate(-377.84 -254.66)"/><path d="M669.52,261.48l-.21,0a2.74,2.74,0,0,0-.48.3,4.33,4.33,0,0,0-.58.56l-.39.09a4.26,4.26,0,0,1,1.17-1.12,2.09,2.09,0,0,1,1-.4.32.32,0,0,1,.23.08.24.24,0,0,1,.08.2,2.94,2.94,0,0,1-.38,1.11l-.23.5c-.27.59-.56,1.16-.87,1.69-.1.17-.21.38-.33.62l-.17.32a1.19,1.19,0,0,0-.21.52.11.11,0,0,0,0,.09.13.13,0,0,0,.09,0,.57.57,0,0,0,.23-.09,3.87,3.87,0,0,0,1.24-1.18h.3a5.59,5.59,0,0,1-.61.85,3.53,3.53,0,0,1-.92.77,1.5,1.5,0,0,1-.69.21.5.5,0,0,1-.33-.09.28.28,0,0,1-.11-.24,5.62,5.62,0,0,1,.77-2l1.1-2.08a4.15,4.15,0,0,0,.24-.51.47.47,0,0,0,0-.15A.45.45,0,0,0,669.52,261.48Zm.39-3.07a.63.63,0,0,1,.61-.61.54.54,0,0,1,.4.16.52.52,0,0,1,.16.38.76.76,0,0,1-.2.5.63.63,0,0,1-.45.13.5.5,0,0,1-.37-.15A.56.56,0,0,1,669.91,258.41Z" transform="translate(-377.84 -254.66)"/><path d="M675,262.62a4.45,4.45,0,0,1-1,2.81,2.64,2.64,0,0,1-2,1.23,1.08,1.08,0,0,1-.89-.41,2,2,0,0,1-.34-1.29,4.54,4.54,0,0,1,.26-1.38,4.2,4.2,0,0,1,.69-1.28L672,262a3.44,3.44,0,0,1,.86-.8,1.94,1.94,0,0,1,1-.32,1,1,0,0,1,.81.4A2.1,2.1,0,0,1,675,262.62Zm-3.56,3.11a.62.62,0,0,0,.15.46.65.65,0,0,0,.47.15.92.92,0,0,0,.65-.31,5.91,5.91,0,0,0,1.18-2,6.21,6.21,0,0,0,.59-2.21.64.64,0,0,0-.15-.45.41.41,0,0,0-.32-.17,1.21,1.21,0,0,0-.84.47,6.67,6.67,0,0,0-1.29,2.19A5.49,5.49,0,0,0,671.48,265.73Z" transform="translate(-377.84 -254.66)"/><path d="M679.9,264a3.63,3.63,0,0,0-.23,1.25,1.24,1.24,0,0,0,.22.75.49.49,0,0,0,.39.19.6.6,0,0,0,.27-.06,1.76,1.76,0,0,0,.43-.31,3.21,3.21,0,0,0,.38-.46,2.74,2.74,0,0,0,.32-.64H682a3.15,3.15,0,0,1-1,1.5,1.57,1.57,0,0,1-1,.46.75.75,0,0,1-.62-.33,1.93,1.93,0,0,1-.33-1.19,4.24,4.24,0,0,1,.09-.79,5.42,5.42,0,0,1,.23-.76,8.6,8.6,0,0,1,.46-.91l.53-.76q.51-.56.57-.6a1.86,1.86,0,0,1,.48-.31,1.14,1.14,0,0,1,.51-.11.74.74,0,0,1,.58.28,1,1,0,0,1,.26.71,1.55,1.55,0,0,1-.2.74,1.75,1.75,0,0,1-.42.54l-.57.37a3.93,3.93,0,0,1-.51.17A10.59,10.59,0,0,1,679.9,264Zm.11-.35a2.09,2.09,0,0,0,.69-.17,3.29,3.29,0,0,0,.67-.38,1.59,1.59,0,0,0,.37-.37,2,2,0,0,0,.33-.55,1.61,1.61,0,0,0,.1-.58.47.47,0,0,0-.11-.33.38.38,0,0,0-.26-.13.76.76,0,0,0-.44.21,4.56,4.56,0,0,0-.89,1.24A6.62,6.62,0,0,0,680,263.69Z" transform="translate(-377.84 -254.66)"/><path d="M684.73,261.53h-.61l-.45,0h-.08a.78.78,0,0,1,.11-.35l1.19-.05.22-.53a9.52,9.52,0,0,0,.42-1.05,3,3,0,0,1,.15-.36l.35,0a1.55,1.55,0,0,1,.31,0v.11a11.08,11.08,0,0,1-.6,1.51,3,3,0,0,0-.11.32l.23,0h.37l.65,0a.75.75,0,0,1-.08.37,6.75,6.75,0,0,1-.71,0h-.28a1.15,1.15,0,0,0-.4.07l-1.11,2.67c-.12.25-.34.74-.64,1.46a.26.26,0,0,0,0,.1h.09a.79.79,0,0,0,.46-.23,7.6,7.6,0,0,0,1.12-1.2.75.75,0,0,1,.2.15,14,14,0,0,1-1,1.09,5.55,5.55,0,0,1-.69.54,3.94,3.94,0,0,1-.51.32.81.81,0,0,1-.31.06.37.37,0,0,1-.25-.07.29.29,0,0,1-.08-.21,3.26,3.26,0,0,1,.33-.92l.29-.64,1-2.42C684.54,262,684.65,261.77,684.73,261.53Z" transform="translate(-377.84 -254.66)"/><path d="M693.87,262.62a4.45,4.45,0,0,1-1,2.81,2.62,2.62,0,0,1-2,1.23,1.07,1.07,0,0,1-.89-.41,2,2,0,0,1-.35-1.29,4.29,4.29,0,0,1,.27-1.38,4.2,4.2,0,0,1,.69-1.28l.22-.28a3.44,3.44,0,0,1,.86-.8,1.88,1.88,0,0,1,1-.32,1,1,0,0,1,.81.4A2.17,2.17,0,0,1,693.87,262.62Zm-3.55,3.11a.54.54,0,0,0,.62.61.94.94,0,0,0,.65-.31,6.08,6.08,0,0,0,1.18-2,6.16,6.16,0,0,0,.58-2.21.64.64,0,0,0-.14-.45.42.42,0,0,0-.33-.17,1.21,1.21,0,0,0-.84.47,6.66,6.66,0,0,0-1.28,2.19A5.26,5.26,0,0,0,690.32,265.73Z" transform="translate(-377.84 -254.66)"/><path d="M696,261.48a2.56,2.56,0,0,0-.42.39s-.25.31-.62.82h-.28a4,4,0,0,1,.63-.91,3.41,3.41,0,0,1,.81-.74,1.23,1.23,0,0,1,.49-.15.45.45,0,0,1,.23.13.27.27,0,0,1,.07.2,1,1,0,0,1,0,.23,10.87,10.87,0,0,1-.3,1.07c-.15.46-.28.83-.4,1.1l-.35.84,0,.12.39-.73a14,14,0,0,1,1.6-2.61,1.22,1.22,0,0,1,.85-.35.71.71,0,0,1,.51.22.58.58,0,0,1,.18.45.76.76,0,0,1-.2.54.47.47,0,0,1-.39.16.34.34,0,0,1-.29-.1.9.9,0,0,1-.11-.5c-.06-.11-.12-.17-.2-.17a.33.33,0,0,0-.23.11,10.36,10.36,0,0,0-1.24,1.88,17.57,17.57,0,0,0-1.14,2.21,6.14,6.14,0,0,1-.37.85.31.31,0,0,1-.28.11.43.43,0,0,1-.26-.06.21.21,0,0,1-.08-.17.8.8,0,0,1,.07-.31c.19-.48.51-1.36.94-2.65L696,262a1.19,1.19,0,0,1,.07-.25l0-.1C696.1,261.61,696.05,261.55,696,261.48Z" transform="translate(-377.84 -254.66)"/><path d="M703.1,261.55l.09-.18a.54.54,0,0,1,.16-.27l.28,0a.64.64,0,0,1,.23.05l0,.08a.24.24,0,0,1,0,.12l-.09.26,0,.14-.45,1.22c-.19.55-.36,1-.5,1.32a9.32,9.32,0,0,0-.38,1,3.29,3.29,0,0,1-.29.73l0,.07a.16.16,0,0,0,.07.1,2.33,2.33,0,0,0,.49-.37q.51-.51.6-.63l.14-.17.14.15a6.66,6.66,0,0,1-.62.72,3,3,0,0,1-.78.65,1,1,0,0,1-.5.14.37.37,0,0,1-.23-.06.24.24,0,0,1-.07-.18,1.46,1.46,0,0,1,.07-.35q.17-.45.24-.6l.18-.44c.05-.12.14-.34.28-.64a2.88,2.88,0,0,0-.33.38,9.07,9.07,0,0,1-1.31,1.32,4.32,4.32,0,0,1-.81.46,1.86,1.86,0,0,1-.56.11.93.93,0,0,1-.37-.05.67.67,0,0,1-.27-.28.88.88,0,0,1-.08-.45,2.86,2.86,0,0,1,.19-1,5.29,5.29,0,0,1,.68-1.34,6.47,6.47,0,0,1,1.17-1.21,5.28,5.28,0,0,1,1-.65,3,3,0,0,1,1.11-.27,1.36,1.36,0,0,1,.29,0A1.38,1.38,0,0,1,703.1,261.55ZM699.76,266a1.34,1.34,0,0,0,.3-.12l.55-.38,1-1a7.07,7.07,0,0,0,.56-.73c.05-.08.17-.29.36-.64l.17-.48a3,3,0,0,0,.1-.48.53.53,0,0,0-.16-.36.49.49,0,0,0-.35-.1,1.13,1.13,0,0,0-.47.09,3.85,3.85,0,0,0-.81.52,6.28,6.28,0,0,0-1,1.1,6.7,6.7,0,0,0-.64,1.13,2.53,2.53,0,0,0-.26.93.55.55,0,0,0,.1.37.35.35,0,0,0,.27.13Z" transform="translate(-377.84 -254.66)"/><path d="M705.9,261.53h-.61l-.44,0h-.09a1,1,0,0,1,.12-.35l1.18-.05c.09-.22.17-.39.23-.53q.19-.44.42-1.05a3,3,0,0,1,.14-.36l.35,0a1.66,1.66,0,0,1,.32,0v.11a11.08,11.08,0,0,1-.6,1.51,1.75,1.75,0,0,0-.12.32l.23,0h.37l.65,0a.66.66,0,0,1-.08.37,6.75,6.75,0,0,1-.71,0H707a1.09,1.09,0,0,0-.4.07l-1.11,2.67c-.13.25-.34.74-.64,1.46a.16.16,0,0,0,0,.1H705a.85.85,0,0,0,.46-.23,8.1,8.1,0,0,0,1.12-1.2,1,1,0,0,1,.2.15c-.45.55-.77.91-1,1.09a5.55,5.55,0,0,1-.69.54,4.86,4.86,0,0,1-.51.32.87.87,0,0,1-.32.06.33.33,0,0,1-.24-.07.25.25,0,0,1-.08-.21,3.45,3.45,0,0,1,.32-.92l.29-.64,1-2.42C705.72,262,705.82,261.77,705.9,261.53Z" transform="translate(-377.84 -254.66)"/><path d="M709.24,261.48l-.22,0a3,3,0,0,0-.47.3,3.81,3.81,0,0,0-.58.56l-.4.09a4.55,4.55,0,0,1,1.17-1.12,2.12,2.12,0,0,1,1-.4.32.32,0,0,1,.23.08.28.28,0,0,1,.08.2,3.14,3.14,0,0,1-.38,1.11l-.23.5c-.27.59-.56,1.16-.87,1.69-.1.17-.21.38-.33.62s-.12.23-.17.32a1.19,1.19,0,0,0-.21.52.14.14,0,0,0,0,.09.18.18,0,0,0,.09,0,.52.52,0,0,0,.23-.09,3.13,3.13,0,0,0,.62-.45,3.68,3.68,0,0,0,.62-.73h.31a5.75,5.75,0,0,1-.62.85,3.49,3.49,0,0,1-.91.77,1.5,1.5,0,0,1-.69.21.53.53,0,0,1-.34-.09.3.3,0,0,1-.1-.24,5.42,5.42,0,0,1,.77-2l1.1-2.08c.11-.22.19-.38.24-.51a.47.47,0,0,0,0-.15A.45.45,0,0,0,709.24,261.48Zm.39-3.07a.63.63,0,0,1,.61-.61.54.54,0,0,1,.4.16.52.52,0,0,1,.16.38.76.76,0,0,1-.2.5.68.68,0,0,1-.46.13.49.49,0,0,1-.36-.15A.52.52,0,0,1,709.63,258.41Z" transform="translate(-377.84 -254.66)"/><path d="M714.76,262.62a4.45,4.45,0,0,1-1,2.81,2.64,2.64,0,0,1-2,1.23,1.07,1.07,0,0,1-.89-.41,2,2,0,0,1-.34-1.29,4.25,4.25,0,0,1,.26-1.38,4.2,4.2,0,0,1,.69-1.28l.22-.28a3.44,3.44,0,0,1,.86-.8,1.91,1.91,0,0,1,1-.32,1,1,0,0,1,.81.4A2.1,2.1,0,0,1,714.76,262.62Zm-3.56,3.11a.62.62,0,0,0,.15.46.63.63,0,0,0,.47.15.94.94,0,0,0,.65-.31,6.08,6.08,0,0,0,1.18-2,6.21,6.21,0,0,0,.59-2.21.64.64,0,0,0-.15-.45.42.42,0,0,0-.33-.17,1.25,1.25,0,0,0-.84.47,6.84,6.84,0,0,0-1.28,2.19A5.49,5.49,0,0,0,711.2,265.73Z" transform="translate(-377.84 -254.66)"/></g></svg>